<svg xmlns="http://www.w3.org/2000/svg" width="226" height="56" fill="none" viewBox="0 0 226 56"><path fill="#29338a" d="M106.084 42.067h1.27l-.918 4.835h2.292l-.216 1.117h-3.562zm4.919-.159a13 13 0 0 1-1.381 2.394l-.799.08c.384-.771.705-1.572.959-2.394zm-.136 6.112 1.182-6.272h1.27l-.479 2.498a1.8 1.8 0 0 1 1.373-.647 1.04 1.04 0 0 1 1.086 1.165q-.006.403-.08.798l-.463 2.473h-1.277l.447-2.393q.053-.264.056-.535c0-.287-.12-.486-.44-.486-.439 0-.894.534-1.062 1.412l-.367 1.978zm9.815-4.317-.559 2.912c-.104.543-.168 1.013-.231 1.404h-1.118l.079-.71a1.88 1.88 0 0 1-1.493.798c-.695 0-1.11-.391-1.11-1.213q.006-.403.088-.797l.455-2.394h1.27l-.431 2.314a3 3 0 0 0-.064.558c0 .287.103.51.431.51.327 0 .878-.526 1.046-1.387l.375-1.995zm.479 4.316.535-2.912c.096-.55.168-1.03.224-1.404h1.062l-.08.694a1.74 1.74 0 0 1 1.477-.798.927.927 0 0 1 1.023.798 1.79 1.79 0 0 1 1.485-.798 1.016 1.016 0 0 1 1.062 1.157 5 5 0 0 1-.08.734l-.471 2.521h-1.222l.431-2.393q.051-.261.056-.527c0-.303-.127-.51-.431-.51-.423 0-.798.574-1.006 1.435l-.359 1.963h-1.23l.439-2.393q.059-.244.064-.495c0-.287-.096-.526-.407-.526-.432 0-.887.606-1.039 1.452l-.359 1.946z"/><path fill="#29338a" fill-rule="evenodd" d="M131.607 47.158c-.056.31-.056.606-.056.861h1.198a11 11 0 0 1 .167-1.946l.455-2.258a5.2 5.2 0 0 0-1.429-.207 2.915 2.915 0 0 0-3.091 3.007 1.336 1.336 0 0 0 1.31 1.5 1.6 1.6 0 0 0 1.446-.957m-.032-2.553q.172-.021.343 0l-.2 1.037c-.199 1.053-.694 1.492-1.046 1.492-.351 0-.519-.295-.519-.718 0-.806.623-1.811 1.422-1.811m3.465-1.617a.58.58 0 0 0 .44.172h.008a.7.7 0 0 0 .751-.71.6.6 0 0 0-.631-.63.73.73 0 0 0-.735.726.6.6 0 0 0 .167.442m-.359.715-.798 4.316h1.27l.798-4.316z" clip-rule="evenodd"/><path fill="#29338a" d="m136.446 48.02.543-2.913c.104-.55.176-1.029.232-1.404h1.134l-.096.71c.341-.502.91-.801 1.517-.798a1.037 1.037 0 0 1 1.102 1.173 5 5 0 0 1-.071.734l-.472 2.505h-1.277l.455-2.393a3 3 0 0 0 .04-.487c0-.303-.104-.51-.423-.51-.32 0-.903.518-1.079 1.475l-.359 1.915z"/><path fill="#29338a" fill-rule="evenodd" d="M146.372 47.157c-.064.311-.064.607-.064.862h1.206a9.6 9.6 0 0 1 .168-1.947l.455-2.258a5.3 5.3 0 0 0-1.429-.207 2.903 2.903 0 0 0-3.091 3.008 1.332 1.332 0 0 0 1.302 1.5 1.64 1.64 0 0 0 1.453-.958m-.032-2.553a1.5 1.5 0 0 1 .344 0l-.208 1.037c-.192 1.053-.687 1.492-1.038 1.492-.352 0-.519-.295-.519-.718 0-.806.623-1.81 1.421-1.81z" clip-rule="evenodd"/><path fill="#29338a" d="m153.328 43.703-.551 2.912c-.111.543-.167 1.013-.231 1.404h-1.126l.08-.71a1.87 1.87 0 0 1-1.494.798c-.686 0-1.102-.391-1.102-1.213q0-.404.088-.797l.447-2.394h1.278l-.431 2.314q-.058.275-.064.558c0 .287.104.51.431.51.328 0 .871-.526 1.046-1.387l.376-1.995zm5.478 4.164a2.9 2.9 0 0 1-1.23.232 1.686 1.686 0 0 1-1.852-1.755 2.71 2.71 0 0 1 2.819-2.736c.298-.006.595.04.878.135l-.311.981a1.4 1.4 0 0 0-.583-.103 1.5 1.5 0 0 0-1.47 1.595.796.796 0 0 0 .879.854c.297.001.591-.061.862-.184z"/><path fill="#29338a" fill-rule="evenodd" d="M166.106 47.74a3.1 3.1 0 0 1-1.541.375 1.6 1.6 0 0 1-1.47-.798 1.88 1.88 0 0 1-1.557.798 1.71 1.71 0 0 1-1.821-1.843 2.487 2.487 0 0 1 2.396-2.665 1.46 1.46 0 0 1 1.414.798 2 2 0 0 1 1.597-.798 1.286 1.286 0 0 1 1.461 1.221c0 1.276-1.405 1.532-2.755 1.5a.64.64 0 0 0 .12.455c.218.232.528.355.846.335.407.005.809-.085 1.174-.264zm-4.352-.606c.718 0 1.078-1.038 1.078-1.724 0-.446-.16-.861-.655-.861-.727 0-1.102.973-1.102 1.7 0 .526.255.885.671.885zm3.186-2.601c.375 0 .519.183.519.383v.016c0 .423-.727.47-1.445.47.082-.462.459-.816.926-.87z" clip-rule="evenodd"/><path fill="#29338a" d="m171.799 43.703-.551 2.912c-.112.543-.168 1.013-.231 1.404h-1.126l.079-.71a1.88 1.88 0 0 1-1.493.798c-.687 0-1.102-.391-1.102-1.213q0-.404.088-.797l.447-2.394h1.278l-.431 2.314a3 3 0 0 0-.064.558c0 .287.103.51.431.51.327 0 .87-.526 1.046-1.387l.375-1.995zm.479 4.317.487-2.57c.12-.654.176-1.38.224-1.747h1.102c0 .287-.056.582-.08.878a1.6 1.6 0 0 1 1.382-.974h.239l-.247 1.237h-.208c-.798 0-1.19.726-1.349 1.596l-.304 1.595z"/><path fill="#29338a" fill-rule="evenodd" d="m181.814 46.344.871-4.596-1.222.04-.368 1.955a1.7 1.7 0 0 0-.591-.096 2.77 2.77 0 0 0-2.723 2.872c0 1.014.607 1.596 1.342 1.596a1.67 1.67 0 0 0 1.413-.798l-.056.702h1.126q.049-.844.208-1.675m-1.461-1.78c.182-.002.36.05.511.152l-.224 1.15c-.183.82-.615 1.212-.982 1.212s-.599-.28-.599-.798c0-.83.495-1.715 1.294-1.715zm4.448 3.551a3.7 3.7 0 0 0 1.597-.343l-.12-.934a2.7 2.7 0 0 1-1.206.272.98.98 0 0 1-.798-.335.87.87 0 0 1-.136-.44c1.733.04 2.803-.358 2.803-1.46a1.323 1.323 0 0 0-1.501-1.284 2.597 2.597 0 0 0-2.524 2.68 1.685 1.685 0 0 0 1.885 1.843zm.479-3.582c.287 0 .463.151.463.359v.008c0 .39-.495.518-1.485.518a1.085 1.085 0 0 1 1.022-.885" clip-rule="evenodd"/><path fill="#29338a" d="m189.265 48.019.543-2.912c.111-.55.183-1.03.231-1.404h1.134l-.088.71c.341-.502.91-.801 1.518-.798a1.037 1.037 0 0 1 1.11 1.173q-.013.369-.072.734l-.479 2.505h-1.27l.447-2.394q.042-.24.048-.486c0-.303-.112-.51-.423-.51-.312 0-.903.518-1.078 1.475l-.368 1.915z"/><path fill="#29338a" fill-rule="evenodd" d="M198.337 47.307a2.57 2.57 0 0 0 .694-1.929 1.71 1.71 0 0 0-1.829-1.77 2.59 2.59 0 0 0-2.579 2.72 1.706 1.706 0 0 0 1.828 1.787 2.57 2.57 0 0 0 1.886-.808m-1.71-.237c-.439 0-.687-.295-.687-.798v-.016c-.008-.67.36-1.74 1.094-1.74.512 0 .679.4.679.799 0 .742-.383 1.755-1.086 1.755" clip-rule="evenodd"/><path fill="#29338a" d="M199.79 46.878c.352.18.738.284 1.134.303.359 0 .551-.175.551-.39s-.144-.36-.543-.56a1.36 1.36 0 0 1-.919-1.148c0-.886.799-1.476 1.901-1.476.382-.018.763.056 1.11.215l-.295.902a2.04 2.04 0 0 0-.871-.191c-.335 0-.559.151-.559.374 0 .224.176.328.527.495.352.168.966.582.966 1.189 0 .981-.846 1.532-1.98 1.524a2.57 2.57 0 0 1-1.326-.343zm5.75 0c.349.18.733.284 1.126.303.367 0 .551-.175.551-.39s-.144-.36-.543-.56a1.36 1.36 0 0 1-.918-1.148c0-.886.798-1.476 1.9-1.476.385-.016.767.058 1.118.215l-.303.902a2 2 0 0 0-.863-.191c-.343 0-.567.151-.567.374 0 .224.176.328.527.495.352.168.967.582.967 1.189 0 .981-.839 1.532-1.981 1.524a2.56 2.56 0 0 1-1.325-.343z"/><path fill="#29338a" fill-rule="evenodd" d="M213.137 47.307a2.57 2.57 0 0 0 .7-1.929 1.716 1.716 0 0 0-1.829-1.77 2.59 2.59 0 0 0-2.587 2.72 1.705 1.705 0 0 0 1.828 1.787 2.58 2.58 0 0 0 1.888-.808m-1.704-.237c-.447 0-.695-.295-.695-.798v-.016c-.008-.67.368-1.74 1.102-1.74.511 0 .679.4.679.799 0 .742-.391 1.755-1.086 1.755m4.161-4.082a.58.58 0 0 0 .44.172h.008a.703.703 0 0 0 .75-.71.597.597 0 0 0-.631-.63.73.73 0 0 0-.734.726.58.58 0 0 0 .167.442m-.359.715-.798 4.316h1.269l.799-4.316z" clip-rule="evenodd"/><path fill="#29338a" d="m217 48.019.543-2.912c.112-.55.176-1.03.232-1.404h1.134l-.088.71c.341-.502.91-.801 1.517-.798a1.03 1.03 0 0 1 1.102 1.173q-.01.369-.064.734l-.479 2.505h-1.286l.456-2.394a3 3 0 0 0 0-.486c0-.303-.104-.51-.424-.51-.319 0-.902.518-1.078 1.475l-.359 1.915zm5.351-1.141c.351.18.738.284 1.134.303.359 0 .543-.175.543-.39s-.136-.36-.536-.56a1.36 1.36 0 0 1-.918-1.148c0-.886.799-1.476 1.901-1.476.382-.018.762.056 1.11.215l-.304.902a2 2 0 0 0-.862-.191c-.336 0-.567.151-.567.374 0 .224.176.328.535.495.359.168.958.582.958 1.189 0 .981-.838 1.532-1.98 1.524a2.6 2.6 0 0 1-1.326-.343zM63.903 20.623v5.672h5.502v-5.672h3.33v14.76h-3.33v-6.176h-5.502v6.175h-3.354V20.623z"/><path fill="#29338a" fill-rule="evenodd" d="m81.335 20.008 2.173 3.327h-2.133l-1.118-1.907-1.102 1.907h-2.172l2.172-3.327zm4.512 9.9a5.37 5.37 0 0 1-1.54 4.127 5.38 5.38 0 0 1-4.114 1.586 5.26 5.26 0 0 1-4.037-1.505 5.25 5.25 0 0 1-1.553-4.016c0-3.454 2.284-5.672 5.726-5.672a5.22 5.22 0 0 1 3.961 1.522 5.2 5.2 0 0 1 1.517 3.959zm-5.606 3.296c-1.397 0-2.196-1.349-2.196-3.191 0-1.548.687-3.192 2.196-3.192s2.125 1.596 2.125 3.192c0 1.898-.83 3.19-2.125 3.19zm7.364-8.528c.04.98.087 2.186.087 3.59l.016 11.456h3.33v-5.321a3.33 3.33 0 0 0 2.78 1.22c2.395 0 4.87-1.835 4.87-5.736 0-3.414-2.107-5.457-4.455-5.457a4.11 4.11 0 0 0-3.538 1.732h-.048l-.152-1.484zm3.497 6.805a3.6 3.6 0 0 1-.064-.694v-1.452q0-.303.064-.599a2.1 2.1 0 0 1 1.997-1.683c1.461 0 2.26 1.18 2.26 3 0 1.819-.855 3.023-2.3 3.023a2.02 2.02 0 0 1-1.957-1.595m12.386-8.559a1.67 1.67 0 0 0 .536-1.23h-.032a1.66 1.66 0 0 0-1.773-1.683 1.676 1.676 0 1 0 0 3.35 1.67 1.67 0 0 0 1.269-.437m.472 1.754h-3.338v10.706h3.338z" clip-rule="evenodd"/><path fill="#29338a" d="M110.101 21.756v2.92h2.396v2.449h-2.396v3.877c0 1.293.303 1.883 1.309 1.883q.5.014.991-.088v2.521a6.5 6.5 0 0 1-2.172.303 3.46 3.46 0 0 1-2.5-.94c-.615-.631-.918-1.66-.918-3.192v-4.364h-1.398v-2.45h1.43v-2.018z"/><path fill="#29338a" fill-rule="evenodd" d="M123.302 35.382a16 16 0 0 1-.16-2.609V29.04c0-2.521-1.134-4.628-4.712-4.628a8.9 8.9 0 0 0-4.168.942l.615 2.146a6.14 6.14 0 0 1 2.962-.798c1.646 0 1.949.806 1.949 1.38v.152c-3.793-.024-6.293 1.316-6.293 4.093a3.283 3.283 0 0 0 3.466 3.287 3.85 3.85 0 0 0 3.067-1.309h.071l.192 1.077zM116.785 32c0-1.292 1.358-1.683 3.115-1.683v1.157q0 .29-.064.574a1.82 1.82 0 0 1-1.733 1.22A1.2 1.2 0 0 1 116.785 32" clip-rule="evenodd"/><path fill="#29338a" d="M125.554 19.833h3.33v15.549h-3.33zm18.926 9.31h-5.438v3.503h6.069v2.736h-9.423V20.623h9.119v2.736h-5.765v3.064h5.438zm12.474 2.769c0 1.404.04 2.545.088 3.438h-2.915l-.159-1.508h-.064a3.83 3.83 0 0 1-3.354 1.747c-2.173 0-3.77-1.356-3.77-4.667v-6.246h3.354v5.76c0 1.595.503 2.497 1.661 2.497a1.79 1.79 0 0 0 1.669-1.165 1.9 1.9 0 0 0 .112-.726V24.66h3.354zm2.451-3.71c0-1.596-.04-2.61-.088-3.527h2.875l.112 1.971h.088a3.195 3.195 0 0 1 3.594-2.17v3.191a3.4 3.4 0 0 0-.895-.112 2.15 2.15 0 0 0-2.284 1.692 3.6 3.6 0 0 0-.064.742v5.433h-3.338z"/><path fill="#29338a" fill-rule="evenodd" d="M176.391 34.035a5.36 5.36 0 0 0 1.541-4.126 5.2 5.2 0 0 0-1.517-3.96 5.22 5.22 0 0 0-3.961-1.52c-3.442 0-5.726 2.217-5.726 5.672a5.24 5.24 0 0 0 1.54 4 5.26 5.26 0 0 0 4.01 1.52 5.38 5.38 0 0 0 4.113-1.586m-4.025-.83c-1.397 0-2.196-1.35-2.196-3.192 0-1.548.687-3.191 2.196-3.191s2.124 1.595 2.124 3.191c0 1.899-.83 3.191-2.124 3.191zm7.323-8.529c.048.981.088 2.186.088 3.59l-.04 11.456h3.33v-5.321h.048a3.34 3.34 0 0 0 2.779 1.22c2.396 0 4.872-1.834 4.872-5.736 0-3.414-2.108-5.457-4.448-5.457a4.12 4.12 0 0 0-3.578 1.732l-.16-1.484zm3.49 6.805a3 3 0 0 1-.072-.694v-1.468a2.4 2.4 0 0 1 .072-.598 2.084 2.084 0 0 1 1.989-1.668c1.461 0 2.26 1.181 2.26 3s-.855 3.024-2.3 3.024a2.004 2.004 0 0 1-1.949-1.596m15.214-8.098 2.675-3.327h-3.09l-1.885 3.327zm-3.091 7.73c.112 1.38 1.47 2.035 3.027 2.035 1.002.013 2-.135 2.955-.439l.439 2.258a10.6 10.6 0 0 1-3.881.678c-3.634 0-5.718-2.122-5.718-5.473 0-2.712 1.685-5.72 5.414-5.72 3.466 0 4.792 2.696 4.792 5.345q0 .662-.104 1.317zm3.921-2.281a1.93 1.93 0 0 0-1.884-2.162 2.18 2.18 0 0 0-2.061 2.162zm10.462 4.316c-1.558 0-2.915-.654-3.027-2.034h6.916a8 8 0 0 0 .111-1.317c0-2.648-1.325-5.345-4.791-5.345-3.729 0-5.415 3.008-5.415 5.72 0 3.351 2.085 5.473 5.718 5.473 1.325.02 2.642-.21 3.881-.678l-.431-2.258a9.4 9.4 0 0 1-2.962.44zm.436-5.818c.36.413.526.959.458 1.502h-3.945a2.187 2.187 0 0 1 2.06-2.162 1.93 1.93 0 0 1 1.427.66" clip-rule="evenodd"/><path fill="#29338a" d="M215.45 28.09c0-1.34-.048-2.473-.088-3.414h2.891l.16 1.468h.064a3.9 3.9 0 0 1 3.306-1.716c2.196 0 3.841 1.452 3.841 4.604v6.382h-3.33v-5.968c0-1.38-.487-2.321-1.693-2.321a1.77 1.77 0 0 0-1.685 1.253 2.3 2.3 0 0 0-.136.797v6.175h-3.33zM64.318 45.514c-.04-.798-.088-1.675-.08-2.394a31 31 0 0 1-.687 2.075l-.99 2.672h-.535l-.887-2.6c-.255-.798-.47-1.468-.63-2.123 0 .687-.056 1.596-.104 2.394l-.144 2.337h-.687l.376-5.456h.902l.934 2.64c.224.67.408 1.269.551 1.835q.24-.932.575-1.835l.975-2.609h.894l.343 5.457h-.686z"/><path fill="#29338a" fill-rule="evenodd" d="m66.674 47.908.567-1.716h1.965l.582 1.716h.751l-1.86-5.457H67.8l-1.853 5.457zm1.82-3.862.536 1.596-1.63-.008.536-1.596c.104-.335.2-.662.28-.989.08.32.159.638.279.997zm4.386-1.636a7.5 7.5 0 0 0-1.358.112l.007 5.393h.703v-2.393h.671c.639.024.926.263 1.094 1.061q.12.667.36 1.3h.734a7.7 7.7 0 0 1-.423-1.5 1.36 1.36 0 0 0-.799-1.1 1.43 1.43 0 0 0 1.03-1.389c.014-.39-.14-.767-.423-1.037a2.23 2.23 0 0 0-1.597-.447zm.07 2.601h-.726v-1.994q.348-.073.703-.064c.743.008 1.254.399 1.254 1.021 0 .623-.48 1.037-1.23 1.037z" clip-rule="evenodd"/><path fill="#29338a" d="M75.985 47.07c.386.226.823.347 1.27.35.719 0 1.142-.374 1.142-.925 0-.55-.296-.797-1.03-1.085-.895-.319-1.446-.797-1.446-1.547a1.595 1.595 0 0 1 1.773-1.484c.418-.014.832.077 1.206.263l-.192.574a2.2 2.2 0 0 0-1.038-.255c-.75 0-1.03.447-1.03.798 0 .51.328.798 1.086 1.053.918.359 1.39.798 1.39 1.596 0 .797-.623 1.595-1.909 1.595a2.9 2.9 0 0 1-1.397-.35zm7.132-1.723h-2.124v1.97h2.364v.59H80.29v-5.456h2.947v.59h-2.244v1.723h2.124zm1.358-2.896h.703v5.457h-.703zm2.147-.001h.703v4.867h2.332v.59h-3.035zm4.025 0h.703v4.867h2.34v.59h-3.043zm6.86 2.897h-2.125v1.97h2.372v.59H94.68v-5.456h2.946v.59h-2.244v1.723h2.125z"/><path fill="url(#a)" fill-rule="evenodd" d="M12.842 1.034c.256-.35.659-.563 1.093-.58h6.588V20.52H.471v-6.821c0-2.274 1.996-1.3 1.996-1.3l12.05 3.558 1.454-1.444c-.67-2.8-2.467-9.151-3.354-12.262a1.42 1.42 0 0 1 .225-1.216z" clip-rule="evenodd"/><path fill="#ae9a64" d="M42.7 2.25c-.894 3.111-2.691 9.461-3.354 12.262l1.454 1.444 12.042-3.542s2.005-.974 2.005 1.3v6.821h-20.06V.455h6.596a1.422 1.422 0 0 1 1.325 1.795"/><path fill="url(#b)" fill-rule="evenodd" d="M34.786 55.287V35.231h20.069v6.813c0 2.273-2.005 1.3-2.005 1.3l-12.043-3.542-1.453 1.436c.663 2.8 2.46 9.15 3.354 12.262a1.42 1.42 0 0 1-1.325 1.787z" clip-rule="evenodd"/><path fill="url(#c)" fill-rule="evenodd" d="m20.54 55.282-.006.005h-6.599a1.414 1.414 0 0 1-1.317-1.787c.886-3.111 2.683-9.462 3.354-12.262l-1.47-1.436-12.05 3.542s-1.997.973-1.997-1.3V35.23H20.53l.01.009z" clip-rule="evenodd"/><path fill="#29338a" d="M101.245 39.395h.519v11.409h-.519z"/><defs><linearGradient id="a" x1="14.758" x2="14.758" y1="20.373" y2="11.176" gradientUnits="userSpaceOnUse"><stop stop-color="#29338a"/><stop offset=".5" stop-color="#29338a"/><stop offset="1" stop-color="#24246c"/></linearGradient><linearGradient id="b" x1="40.821" x2="40.821" y1="35.309" y2="44.502" gradientUnits="userSpaceOnUse"><stop stop-color="#29338a"/><stop offset=".5" stop-color="#29338a"/><stop offset="1" stop-color="#24246c"/></linearGradient><linearGradient id="c" x1="20.472" x2="11.266" y1="40" y2="40" gradientUnits="userSpaceOnUse"><stop stop-color="#29338a"/><stop offset=".5" stop-color="#29338a"/><stop offset="1" stop-color="#24246c"/></linearGradient></defs></svg>