<svg xmlns="http://www.w3.org/2000/svg" viewBox="0 0 273.72 113.68">
  <defs>
    <style>
      .cls-1{fill:#1d1d1b}.cls-3{fill:#ac3c72}.cls-4{fill:#652f6c}
    </style>
  </defs>
  <title>IRIS GRIM</title>
  <g id="Calque_2" data-name="Calque 2">
    <g id="Calque_1-2" data-name="Calque 1">
      <path d="M194.58 45.74h1.51v5.39a9.17 9.17 0 0 1-5.52 1.93 7.49 7.49 0 1 1 .08-15 8.45 8.45 0 0 1 5.48 2l-1 1.24a6.8 6.8 0 0 0-4.5-1.73 5.94 5.94 0 1 0 0 11.87 7.1 7.1 0 0 0 3.91-1.25ZM209.93 53l-3.12-4.76h-4.95V53h-1.7V38.14h5.65c3.71 0 5.86 1.82 5.86 5a4.63 4.63 0 0 1-3.36 4.79l3.56 5.07Zm-4.07-6.28c2.69 0 4.22-1.22 4.22-3.55s-1.53-3.46-4.22-3.46h-4v7Zm23.87-1.15a7.79 7.79 0 1 1-7.73-7.48 7.58 7.58 0 0 1 7.73 7.48m-13.84 0a6.05 6.05 0 0 0 12.1 0 6.05 6.05 0 0 0-12.1 0M245 46.89c0 3.88-2.34 6.17-6.22 6.17s-6.27-2.29-6.27-6.17v-8.75h1.7v8.75a4.23 4.23 0 0 0 4.57 4.62c2.82 0 4.52-1.7 4.52-4.62v-8.75h1.7Zm15.53-3.76c0 3.27-2.13 5.15-5.8 5.15h-3.89V53h-1.69V38.14h5.58c3.67 0 5.8 1.86 5.8 4.99m-9.69-3.42v7h3.83c2.67 0 4.22-1.22 4.22-3.55s-1.55-3.46-4.22-3.46Zm22.6 0h-8.38v5h7.49v1.55h-7.49v5.18h8.66V53h-10.36V38.14h10.08Z" class="cls-1"/>
      <path d="M50.92 113.62h-1.5v-13.16h1.5Zm19.18 0h-1.39v-11l-4.79 9.56H63l-4.78-9.56v11h-1.43v-13.16h1.86l4.82 9.54 4.79-9.55h1.84Zm14.19-3.37h-7.16l-1.47 3.37h-1.59L80 100.46h1.56l5.89 13.16h-1.67Zm-.6-1.39-3-6.77-3 6.77Zm16.53-1.67h1.33V112a8.12 8.12 0 0 1-4.89 1.71 6.64 6.64 0 1 1 .08-13.26 7.45 7.45 0 0 1 4.85 1.8l-.86 1.09a6.1 6.1 0 0 0-4-1.52 5.26 5.26 0 1 0 0 10.51 6.3 6.3 0 0 0 3.46-1.11Zm15.78-5.34h-7.43v4.42h6.64v1.37h-6.64v4.59h7.68v1.39h-9.18v-13.16H116Zm13.81 11.77-2.76-4.21h-4.35v4.18h-1.5v-13.13h5c3.29 0 5.19 1.61 5.19 4.41a4.13 4.13 0 0 1-3 4.26l3.1 4.49Zm-3.61-5.57c2.39 0 3.74-1.07 3.74-3.14s-1.35-3.06-3.74-3.06h-3.5v6.2Zm11.97 5.57h-1.5v-13.16h1.5ZM153 101.85h-7.43v4.42h6.64v1.37h-6.64v4.59h7.67v1.39H144v-13.16h9Zm25.5 11.77h-1.39v-11l-4.8 9.56h-.9l-4.77-9.56v11h-1.43v-13.16h1.86l4.81 9.55 4.8-9.55h1.84Zm14.81-11.77h-7.43v4.42h6.64v1.37h-6.64v4.59h7.68v1.39h-9.18v-13.16h8.93Zm-1.65-4.91-2.33 1.86h-1.41l2.25-2.54ZM210.59 107a6.58 6.58 0 0 1-6.83 6.58h-5.26v-13.12h5.32a6.55 6.55 0 0 1 6.77 6.54M200 101.85v10.38h3.84a5.12 5.12 0 0 0 5.23-5.17 5.17 5.17 0 0 0-5.29-5.21Zm16.72 11.77h-1.51v-13.16h1.51ZM233 102.34l-.9 1.09a5.6 5.6 0 0 0-3.9-1.64 5.24 5.24 0 1 0 0 10.48 5.8 5.8 0 0 0 3.9-1.58l.92 1a7.22 7.22 0 0 1-4.89 2 6.63 6.63 0 1 1 0-13.26 7.1 7.1 0 0 1 4.87 1.91m12.87 7.91h-7.16l-1.47 3.37h-1.59l5.9-13.16h1.56l5.89 13.16h-1.64Zm-.6-1.39-3-6.77-2.95 6.77Zm9.18 3.37h5.77v1.39h-7.28v-13.16h1.51Zm19.02-10.38H266v4.42h6.64v1.37H266v4.59h7.68v1.39h-9.18v-13.16h8.93Z" style="fill:#898a8d"/>
      <path d="M60.59 94.64H49.42V60.89h11.17Zm25.03 0-4.48-9.1h-5.29v9.1h-10V60.89h15.73c9 0 14.25 4.33 14.25 12 0 5-2 8.66-5.68 10.73l6.83 11Zm-9.77-16.8h5.73c3 0 4.72-1.64 4.72-4.68s-1.74-4.57-4.72-4.57h-5.73ZM110 94.64h-8.81V60.89H110Zm32.09-30.38-2.93 6.3c-3.57-2.11-7.8-3.46-10.5-3.46-2.55 0-4.28.91-4.28 2.74 0 6.22 18 2.75 17.91 14.88 0 6.59-5.73 10.16-13.2 10.16a23.63 23.63 0 0 1-14.87-5.35l3-6.21c3.47 3.09 8.38 5.06 11.94 5.06 3.13 0 5-1.16 5-3.23 0-6.35-18-2.64-18-14.59 0-6.11 5.25-10 13-10a24 24 0 0 1 12.93 3.7m37.99 13.62h5.63v12.66a23.63 23.63 0 0 1-13.33 4.39c-10.07 0-17.82-7.47-17.82-17.14s7.9-17.05 18.2-17.05A20.7 20.7 0 0 1 186 65.56l-3.66 4.72a14.44 14.44 0 0 0-9.53-3.81 11.34 11.34 0 1 0 .05 22.68 15.5 15.5 0 0 0 7.22-2.15Zm33.22 16.76-5.83-10a9 9 0 0 1-1.2 0h-7.61v9.92h-6.45V60.94h14.06c8.72 0 13.67 4.19 13.67 11.6 0 5.3-2.35 9.1-6.69 10.93l7.42 11.17ZM198.66 79h7.61c4.82 0 7.51-2.07 7.51-6.31s-2.69-6.16-7.51-6.16h-7.61ZM232 94.64h-5.69v-33.7H232Zm41.72 0h-3.56l-.05-28-12.28 24.44h-2.31l-12.23-24.46v28h-3.66V60.94h4.77l12.33 24.45L269 60.94h4.72Z" class="cls-1"/>
      <circle cx="55" cy="52.04" r="5.43" class="cls-1"/>
      <circle cx="80.65" cy="44.93" r="1.68" class="cls-3"/>
      <circle cx="75.1" cy="36.41" r="1.68" class="cls-3"/>
      <circle cx="66.88" cy="30.26" r="1.68" class="cls-3"/>
      <circle cx="57.1" cy="27.68" r="1.68" class="cls-3"/>
      <circle cx="46.9" cy="28.71" r="1.68" class="cls-3"/>
      <circle cx="37.86" cy="33.41" r="1.68" class="cls-3"/>
      <circle cx="31.08" cy="41.06" r="1.68" class="cls-3"/>
      <circle cx="27.54" cy="50.55" r="1.68" class="cls-3"/>
      <circle cx="27.61" cy="60.76" r="1.68" class="cls-3"/>
      <circle cx="31.34" cy="70.26" r="1.68" class="cls-3"/>
      <circle cx="38.31" cy="77.69" r="1.68" class="cls-3"/>
      <path d="M88.39 39.63a1.91 1.91 0 1 0 1.91 1.91 1.91 1.91 0 0 0-1.91-1.91" class="cls-3"/>
      <circle cx="81.05" cy="30.41" r="1.9" class="cls-3"/>
      <circle cx="70.29" cy="22.52" r="1.9" class="cls-3"/>
      <circle cx="57.49" cy="19.24" r="1.9" class="cls-3"/>
      <circle cx="44.21" cy="20.71" r="1.9" class="cls-3"/>
      <circle cx="32.46" cy="26.9" r="1.9" class="cls-3"/>
      <path d="M25.58 36.94a1.9 1.9 0 1 0-1.9 1.91 1.9 1.9 0 0 0 1.9-1.91" class="cls-3"/>
      <circle cx="19.14" cy="49.37" r="1.9" class="cls-3"/>
      <circle cx="19.38" cy="62.68" r="1.9" class="cls-3"/>
      <circle cx="24.36" cy="75.03" r="1.9" class="cls-3"/>
      <circle cx="33.53" cy="84.67" r="1.9" class="cls-3"/>
      <circle cx="96.14" cy="38.14" r="2.13" class="cls-3"/>
      <circle cx="86.99" cy="24.41" r="2.13" class="cls-3"/>
      <circle cx="73.7" cy="14.79" r="2.13" class="cls-3"/>
      <circle cx="57.87" cy="10.8" r="2.13" class="cls-3"/>
      <circle cx="41.53" cy="12.71" r="2.13" class="cls-3"/>
      <circle cx="27.07" cy="20.4" r="2.13" class="cls-3"/>
      <circle cx="16.28" cy="32.83" r="2.13" class="cls-3"/>
      <circle cx="10.75" cy="48.2" r="2.13" class="cls-3"/>
      <path d="M11.15 62.46a2.13 2.13 0 1 0 2.13 2.13 2.13 2.13 0 0 0-2.13-2.13m6.22 15.21a2.13 2.13 0 1 0 2.13 2.13 2.13 2.13 0 0 0-2.13-2.13" class="cls-3"/>
      <circle cx="28.74" cy="91.64" r="2.13" class="cls-3"/>
      <circle cx="103.88" cy="34.75" r="2.35" class="cls-4"/>
      <circle cx="92.94" cy="18.41" r="2.35" class="cls-4"/>
      <circle cx="77.1" cy="7.06" r="2.35" class="cls-4"/>
      <circle cx="58.26" cy="2.35" r="2.35" class="cls-4"/>
      <circle cx="38.84" cy="4.71" r="2.35" class="cls-4"/>
      <circle cx="21.67" cy="13.89" r="2.35" class="cls-4"/>
      <circle cx="8.89" cy="28.71" r="2.35" class="cls-4"/>
      <circle cx="2.35" cy="47.03" r="2.35" class="cls-4"/>
      <circle cx="2.92" cy="66.5" r="2.35" class="cls-4"/>
      <path d="M10.39 82.22a2.35 2.35 0 1 0 2.35 2.35 2.36 2.36 0 0 0-2.35-2.35M24 96.26a2.35 2.35 0 1 0 2.35 2.35A2.36 2.36 0 0 0 24 96.26" class="cls-4"/>
    </g>
  </g>
</svg>
