<svg width="122" height="21" viewBox="0 0 122 21" fill="none" xmlns="http://www.w3.org/2000/svg">
<mask id="mask0_3011_318" style="mask-type:luminance" maskUnits="userSpaceOnUse" x="0" y="0" width="122" height="21">
<path d="M121.1 0H0V21H121.1V0Z" fill="white"/>
</mask>
<g mask="url(#mask0_3011_318)">
<path d="M42.2244 11.5512C43.5588 10.8402 44.4192 9.59517 44.4192 7.72668C44.4192 4.5858 42.0476 2.77747 39.0525 2.77747H31.522V20.5637H39.7343C42.6983 20.5637 45.0116 18.8447 45.0116 15.7019C45.0116 13.5381 43.8851 12.2038 42.2244 11.5512ZM40.5054 8.14231C40.5054 9.17955 39.645 10.0691 38.5786 10.0691H35.4358V6.24465H38.5786C39.645 6.24465 40.5054 7.0759 40.5054 8.14231ZM39.171 17.0947H35.4358V13.2702H39.171C40.2684 13.2702 41.0978 14.1598 41.0978 15.1988C41.0978 16.2652 40.2684 17.0947 39.171 17.0947Z" fill="white"/>
<path d="M48.8751 6.71854C50.0017 6.71854 50.9496 5.77062 50.9496 4.64406C50.9496 3.48833 50.0017 2.56958 48.8751 2.56958C47.7486 2.56958 46.7988 3.48833 46.7988 4.64406C46.7988 5.77062 47.7486 6.71854 48.8751 6.71854ZM46.9775 20.5636H50.7418V8.70552H46.9775V20.5636Z" fill="white"/>
<path d="M59.0596 20.8007C63.0317 20.8007 65.6403 18.1921 65.6403 14.6356C65.6403 11.0772 63.0317 8.46863 59.0596 8.46863C55.0856 8.46863 52.4478 11.0772 52.4478 14.6356C52.4478 18.1921 55.0856 20.8007 59.0596 20.8007ZM59.0596 17.4501C57.428 17.421 56.2431 16.2361 56.2431 14.6356C56.2431 13.0332 57.428 11.8483 59.0596 11.8192C60.6601 11.8483 61.876 13.0332 61.876 14.6356C61.876 16.2361 60.6601 17.421 59.0596 17.4501Z" fill="white"/>
<path d="M73.4697 20.8006C76.7893 20.8006 79.6057 18.8447 79.6057 15.5233C79.6057 8.9426 71.4244 10.5741 71.4244 7.48974C71.4244 6.48166 72.1955 6.00771 73.1434 6.00771C74.1515 6.00771 75.1596 6.57099 76.0492 7.54989L78.6578 5.05979C77.3526 3.54677 75.3674 2.5387 73.1726 2.5387C70.3562 2.5387 67.4815 4.22854 67.4815 7.78687C67.4815 13.8335 75.6937 12.3824 75.6937 15.4941C75.6937 16.473 74.8625 17.1256 73.4989 17.1256C71.8692 17.1256 70.595 16.2051 69.9424 14.8124L66.7104 16.8285C67.8661 19.0525 70.3562 20.8006 73.4697 20.8006Z" fill="white"/>
<path d="M94.3793 20.5637L88.7465 14.0723L93.9345 8.70557H89.3991L85.2775 12.9749V0.256348H81.5132V20.5637H85.2775V15.1095L89.4575 20.5637H94.3793Z" fill="white"/>
<path d="M106.957 14.6046C106.957 10.8986 104.409 8.43945 100.584 8.43945C96.7599 8.43945 94.062 10.9296 94.062 14.6355C94.062 18.3397 96.7308 20.8007 100.703 20.8007C103.993 20.8007 106.186 19.0525 106.781 16.473H103.133C102.808 17.421 101.948 17.9842 100.643 17.9842C98.9238 17.9842 98.0342 16.947 97.8865 15.2572H106.957V14.6046ZM100.643 11.3434C101.919 11.3434 102.659 11.9376 103.045 12.9749H98.1235C98.5081 11.9668 99.3102 11.3434 100.643 11.3434Z" fill="white"/>
<path d="M117.313 0.256348V9.74281C116.424 8.94255 115.297 8.46859 113.934 8.46859C110.643 8.46859 108.064 11.1957 108.064 14.6355C108.064 18.0736 110.643 20.8006 113.934 20.8006C115.297 20.8006 116.424 20.3267 117.313 19.5264V20.5928L121.078 20.5637V0.256348H117.313ZM114.675 17.4501C113.104 17.4501 111.859 16.2051 111.859 14.6355C111.859 13.0642 113.104 11.8191 114.675 11.8191C116.216 11.8191 117.492 13.0642 117.492 14.6355C117.492 16.2051 116.216 17.4501 114.675 17.4501Z" fill="white"/>
<path d="M0 1.75H10.8418C10.8888 1.75 10.9345 1.75926 10.9789 1.77546C11.0221 1.79282 11.0617 1.81713 11.095 1.84837C11.1284 1.88078 11.1543 1.91666 11.1728 1.95832C11.1913 1.99883 11.2 2.04165 11.2 2.08679V5.61437C11.2 5.65835 11.1913 5.70117 11.1728 5.74284C11.1543 5.78334 11.1284 5.82038 11.095 5.85163C11.0617 5.88287 11.0221 5.90718 10.9789 5.92454C10.9345 5.9419 10.8888 5.95 10.8418 5.95H0V1.75Z" fill="#0A367F"/>
<path d="M0 6.6499H14.3472C14.3935 6.6499 14.4385 6.65916 14.4822 6.67537C14.526 6.69273 14.5637 6.71703 14.5966 6.74828C14.6294 6.78068 14.655 6.81656 14.6732 6.85707C14.6915 6.89873 14.7 6.94155 14.7 6.98669V10.5143C14.7 10.5582 14.6915 10.6011 14.6732 10.6427C14.655 10.6832 14.6294 10.7203 14.5966 10.7515C14.5637 10.7828 14.526 10.8071 14.4822 10.8244C14.4385 10.8406 14.3935 10.8499 14.3472 10.8499H0V6.6499Z" fill="#0A367F"/>
<path d="M0 11.5499H18.1938C18.2417 11.5499 18.2871 11.5591 18.3301 11.5753C18.3743 11.5927 18.4124 11.617 18.4456 11.6483C18.48 11.6795 18.5058 11.7165 18.523 11.7571C18.5414 11.7987 18.55 11.8415 18.55 11.8855V15.4131C18.55 15.4582 18.5414 15.5011 18.523 15.5427C18.5058 15.5832 18.48 15.6191 18.4456 15.6515C18.4124 15.6828 18.3743 15.7071 18.3301 15.7244C18.2871 15.7406 18.2417 15.7499 18.1938 15.7499H0V11.5499Z" fill="#0A367F"/>
<path d="M0 16.45H21.6958C21.7433 16.45 21.7883 16.4581 21.8309 16.4755C21.8747 16.4928 21.9125 16.5171 21.9465 16.5484C21.9794 16.5796 22.005 16.6167 22.0232 16.6572C22.0403 16.6988 22.05 16.7417 22.05 16.7856V20.3132C22.05 20.3584 22.0403 20.4012 22.0232 20.4417C22.005 20.4834 21.9794 20.5191 21.9465 20.5515C21.9125 20.5828 21.8747 20.6071 21.8309 20.6245C21.7883 20.6407 21.7433 20.65 21.6958 20.65H0V16.45Z" fill="#0A367F"/>
<path d="M0 1.75H8.75001V5.95H0V1.75Z" fill="#37AFCF"/>
<path d="M0 6.6499H10.5V10.8499H0V6.6499Z" fill="#37AFCF"/>
<path d="M0 11.5499H14.7V15.7499H0V11.5499Z" fill="#37AFCF"/>
<path d="M0 16.45H17.5V20.65H0V16.45Z" fill="#37AFCF"/>
<path d="M0 1.75H3.85V5.95H0V1.75Z" fill="#6CE5E8"/>
<path d="M0 6.6499H5.6V10.8499H0V6.6499Z" fill="#6CE5E8"/>
<path d="M0 11.5499H8.75001V15.7499H0V11.5499Z" fill="#6CE5E8"/>
<path d="M0 16.45H10.15V20.65H0V16.45Z" fill="#6CE5E8"/>
</g>
</svg>
