<svg width="50" height="46" viewBox="0 0 50 46" fill="none" xmlns="http://www.w3.org/2000/svg">
<path d="M0 0H19C19.5523 0 20 0.447715 20 1V9C20 9.55228 19.5523 10 19 10H0V0Z" fill="url(#paint0_linear_1903_1122)"/>
<path d="M0 12H27C27.5523 12 28 12.4477 28 13V21C28 21.5523 27.5523 22 27 22H0V12Z" fill="url(#paint1_linear_1903_1122)"/>
<path d="M0 24H35C35.5523 24 36 24.4477 36 25V33C36 33.5523 35.5523 34 35 34H0V24Z" fill="url(#paint2_linear_1903_1122)"/>
<path d="M0 36H47C47.5523 36 48 36.4477 48 37V45C48 45.5523 47.5523 46 47 46H0V36Z" fill="url(#paint3_linear_1903_1122)"/>
<defs>
<linearGradient id="paint0_linear_1903_1122" x1="0" y1="5" x2="20" y2="5" gradientUnits="userSpaceOnUse">
<stop stop-color="#0A367F"/>
<stop offset="0.961538" stop-color="#6CE5E8" stop-opacity="0.909804"/>
</linearGradient>
<linearGradient id="paint1_linear_1903_1122" x1="0" y1="17" x2="28" y2="17" gradientUnits="userSpaceOnUse">
<stop stop-color="#0A367F"/>
<stop offset="0.961538" stop-color="#6CE5E8" stop-opacity="0.909804"/>
</linearGradient>
<linearGradient id="paint2_linear_1903_1122" x1="0" y1="29" x2="36" y2="29" gradientUnits="userSpaceOnUse">
<stop stop-color="#0A367F"/>
<stop offset="0.961538" stop-color="#6CE5E8" stop-opacity="0.909804"/>
</linearGradient>
<linearGradient id="paint3_linear_1903_1122" x1="0" y1="41" x2="48" y2="41" gradientUnits="userSpaceOnUse">
<stop stop-color="#0A367F"/>
<stop offset="0.961538" stop-color="#6CE5E8" stop-opacity="0.909804"/>
</linearGradient>
</defs>
</svg>
