<svg width="50" height="46" viewBox="0 0 50 46" fill="none" xmlns="http://www.w3.org/2000/svg">
<path d="M0 0H25C25.5523 0 26 0.447715 26 1V9C26 9.55228 25.5523 10 25 10H0V0Z" fill="url(#paint0_linear_1903_1116)"/>
<path d="M0 12H33C33.5523 12 34 12.4477 34 13V21C34 21.5523 33.5523 22 33 22H0V12Z" fill="url(#paint1_linear_1903_1116)"/>
<path d="M0 24H41C41.5523 24 42 24.4477 42 25V33C42 33.5523 41.5523 34 41 34H0V24Z" fill="url(#paint2_linear_1903_1116)"/>
<path d="M0 36H49C49.5523 36 50 36.4477 50 37V45C50 45.5523 49.5523 46 49 46H0V36Z" fill="url(#paint3_linear_1903_1116)"/>
<defs>
<linearGradient id="paint0_linear_1903_1116" x1="0" y1="5" x2="26" y2="5" gradientUnits="userSpaceOnUse">
<stop stop-color="#0A367F"/>
<stop offset="0.9375" stop-color="#CF7637"/>
</linearGradient>
<linearGradient id="paint1_linear_1903_1116" x1="0" y1="17" x2="34" y2="17" gradientUnits="userSpaceOnUse">
<stop stop-color="#0A367F"/>
<stop offset="0.9375" stop-color="#CF7637"/>
</linearGradient>
<linearGradient id="paint2_linear_1903_1116" x1="0" y1="29" x2="42" y2="29" gradientUnits="userSpaceOnUse">
<stop stop-color="#0A367F"/>
<stop offset="0.9375" stop-color="#CF7637"/>
</linearGradient>
<linearGradient id="paint3_linear_1903_1116" x1="0" y1="41" x2="50" y2="41" gradientUnits="userSpaceOnUse">
<stop stop-color="#0A367F"/>
<stop offset="0.9375" stop-color="#CF7637"/>
</linearGradient>
</defs>
</svg>
