<svg width="35" height="31" viewBox="0 0 35 31" fill="none" xmlns="http://www.w3.org/2000/svg">
<path d="M8.648 0L12.314 2.632C11.6873 3.44667 10.9353 4.7 10.058 6.392C9.18067 8.02134 8.42867 9.83867 7.802 11.844C7.17533 13.7867 6.89333 15.6667 6.956 17.484C7.39467 17.3587 7.73933 17.296 7.99 17.296C8.30333 17.2333 8.61667 17.202 8.93 17.202C10.622 17.202 12.126 17.7033 13.442 18.706C14.758 19.646 15.416 21.2127 15.416 23.406C15.416 25.286 14.7893 26.9467 13.536 28.388C12.3453 29.7667 10.716 30.456 8.648 30.456C5.76533 30.5187 3.60333 29.61 2.162 27.73C0.720667 25.7873 0 23.406 0 20.586C0 18.5807 0.313333 16.45 0.94 14.194C1.56667 11.938 2.50667 9.61933 3.76 7.238C5.076 4.794 6.70533 2.38133 8.648 0ZM27.448 0L31.114 2.632C30.4873 3.44667 29.7353 4.7 28.858 6.392C27.9807 8.02134 27.2287 9.83867 26.602 11.844C25.9753 13.7867 25.6933 15.6667 25.756 17.484C26.1947 17.3587 26.5393 17.296 26.79 17.296C27.1033 17.2333 27.4167 17.202 27.73 17.202C29.422 17.202 30.926 17.7033 32.242 18.706C33.558 19.646 34.216 21.2127 34.216 23.406C34.216 25.286 33.5893 26.9467 32.336 28.388C31.1453 29.7667 29.516 30.456 27.448 30.456C24.5653 30.5187 22.4033 29.61 20.962 27.73C19.5207 25.7873 18.8 23.406 18.8 20.586C18.8 18.5807 19.1133 16.45 19.74 14.194C20.3667 11.938 21.3067 9.61933 22.56 7.238C23.876 4.794 25.5053 2.38133 27.448 0Z" fill="#0A367F" fill-opacity="0.1"/>
</svg>
