<svg width="23" height="19" viewBox="0 0 23 19" fill="none" xmlns="http://www.w3.org/2000/svg">
<path d="M0 0H10.8419C10.8888 0 10.9345 0.00925875 10.9789 0.0254617C11.0222 0.0428219 11.0617 0.0671261 11.095 0.0983744C11.1284 0.13078 11.1543 0.166657 11.1728 0.208322C11.1914 0.248829 11.2 0.291651 11.2 0.336787V3.86437C11.2 3.90835 11.1914 3.95117 11.1728 3.99284C11.1543 4.03334 11.1284 4.07038 11.095 4.10163C11.0617 4.13287 11.0222 4.15718 10.9789 4.17454C10.9345 4.1919 10.8888 4.2 10.8419 4.2H0V0Z" fill="#0A367F"/>
<path d="M0 4.89999H14.3472C14.3935 4.89999 14.4385 4.90925 14.4823 4.92546C14.5261 4.94282 14.5638 4.96712 14.5966 4.99837C14.6294 5.03077 14.655 5.06665 14.6732 5.10716C14.6915 5.14882 14.7 5.19164 14.7 5.23678V8.76436C14.7 8.80834 14.6915 8.85117 14.6732 8.89283C14.655 8.93334 14.6294 8.97037 14.5966 9.00162C14.5638 9.03287 14.5261 9.05717 14.4823 9.07453C14.4385 9.09074 14.3935 9.09999 14.3472 9.09999H0V4.89999Z" fill="#0A367F"/>
<path d="M0 9.79999H18.1938C18.2417 9.79999 18.2871 9.80925 18.3301 9.82545C18.3743 9.84281 18.4124 9.86711 18.4456 9.89836C18.48 9.92961 18.5058 9.96665 18.523 10.0072C18.5414 10.0488 18.55 10.0916 18.55 10.1356V13.6632C18.55 13.7083 18.5414 13.7512 18.523 13.7928C18.5058 13.8333 18.48 13.8692 18.4456 13.9016C18.4124 13.9329 18.3743 13.9572 18.3301 13.9745C18.2871 13.9907 18.2417 14 18.1938 14H0V9.79999Z" fill="#0A367F"/>
<path d="M0 14.7H21.6959C21.7433 14.7 21.7883 14.7081 21.8309 14.7255C21.8748 14.7428 21.9125 14.7671 21.9466 14.7984C21.9794 14.8296 22.005 14.8667 22.0232 14.9072C22.0403 14.9488 22.05 14.9917 22.05 15.0356V18.5632C22.05 18.6084 22.0403 18.6512 22.0232 18.6917C22.005 18.7334 21.9794 18.7692 21.9466 18.8016C21.9125 18.8329 21.8748 18.8572 21.8309 18.8746C21.7883 18.8908 21.7433 18.9 21.6959 18.9H0V14.7Z" fill="#0A367F"/>
<path d="M0 0H8.75V4.2H0V0Z" fill="#37AFCF"/>
<path d="M0 4.89999H10.5V9.09999H0V4.89999Z" fill="#37AFCF"/>
<path d="M0 9.79999H14.7V14H0V9.79999Z" fill="#37AFCF"/>
<path d="M0 14.7H17.5V18.9H0V14.7Z" fill="#37AFCF"/>
<path d="M0 0H3.85V4.2H0V0Z" fill="#6CE5E8"/>
<path d="M0 4.89999H5.6V9.09999H0V4.89999Z" fill="#6CE5E8"/>
<path d="M0 9.79999H8.75V14H0V9.79999Z" fill="#6CE5E8"/>
<path d="M0 14.7H10.15V18.9H0V14.7Z" fill="#6CE5E8"/>
</svg>
