<svg width="308" height="103" viewBox="0 0 308 103" fill="none" xmlns="http://www.w3.org/2000/svg">
<g filter="url(#filter0_d_0_1)">
<rect x="73.6294" y="63.0249" width="137.097" height="30" rx="9" fill="#FFA514" fill-opacity="0.66"/>
<rect x="74.1294" y="63.5249" width="136.097" height="29" rx="8.5" stroke="white" stroke-opacity="0.37"/>
</g>
<path d="M107.345 81.8096V73.8096H110.345C110.96 73.8096 111.475 73.9163 111.892 74.1299C112.311 74.3434 112.628 74.6429 112.841 75.0283C113.057 75.4111 113.166 75.8577 113.166 76.3682C113.166 76.8812 113.056 77.3265 112.837 77.7041C112.621 78.0791 112.302 78.3695 111.88 78.5752C111.458 78.7783 110.94 78.8799 110.326 78.8799H108.189V77.6768H110.13C110.49 77.6768 110.784 77.6273 111.013 77.5283C111.242 77.4268 111.412 77.2796 111.521 77.0869C111.633 76.8916 111.689 76.652 111.689 76.3682C111.689 76.0843 111.633 75.8421 111.521 75.6416C111.409 75.4385 111.238 75.2848 111.009 75.1807C110.78 75.0739 110.485 75.0205 110.123 75.0205H108.794V81.8096H107.345ZM111.478 78.1846L113.458 81.8096H111.841L109.896 78.1846H111.478ZM117.007 81.9268C116.406 81.9268 115.886 81.8018 115.449 81.5518C115.014 81.2992 114.679 80.9424 114.445 80.4814C114.21 80.0179 114.093 79.4723 114.093 78.8447C114.093 78.2275 114.21 77.6859 114.445 77.2197C114.682 76.751 115.013 76.3864 115.437 76.126C115.861 75.863 116.36 75.7314 116.933 75.7314C117.303 75.7314 117.652 75.7913 117.98 75.9111C118.311 76.0283 118.602 76.2106 118.855 76.458C119.11 76.7054 119.311 77.0205 119.457 77.4033C119.602 77.7835 119.675 78.2367 119.675 78.7627V79.1963H114.757V78.2432H118.32C118.317 77.9723 118.259 77.7314 118.144 77.5205C118.029 77.307 117.869 77.139 117.664 77.0166C117.46 76.8942 117.223 76.833 116.953 76.833C116.664 76.833 116.41 76.9033 116.191 77.0439C115.972 77.182 115.802 77.3643 115.679 77.5908C115.559 77.8148 115.498 78.0609 115.496 78.3291V79.1611C115.496 79.5101 115.559 79.8096 115.687 80.0596C115.815 80.307 115.993 80.4971 116.222 80.6299C116.451 80.7601 116.72 80.8252 117.027 80.8252C117.233 80.8252 117.419 80.7965 117.585 80.7393C117.752 80.6794 117.897 80.5921 118.019 80.4775C118.141 80.363 118.234 80.221 118.296 80.0518L119.617 80.2002C119.533 80.5492 119.375 80.8538 119.14 81.1143C118.908 81.3721 118.611 81.5726 118.25 81.7158C117.888 81.8564 117.473 81.9268 117.007 81.9268ZM124.875 84.0596V80.8643H124.817C124.744 81.0101 124.639 81.165 124.5 81.3291C124.362 81.4906 124.18 81.6286 123.954 81.7432C123.727 81.8577 123.442 81.915 123.098 81.915C122.627 81.915 122.205 81.7939 121.833 81.5518C121.46 81.3096 121.166 80.958 120.95 80.4971C120.734 80.0361 120.625 79.4762 120.625 78.8174C120.625 78.1507 120.735 77.5882 120.954 77.1299C121.175 76.6689 121.473 76.3213 121.848 76.0869C122.223 75.8499 122.641 75.7314 123.102 75.7314C123.454 75.7314 123.743 75.7913 123.969 75.9111C124.196 76.0283 124.375 76.1702 124.508 76.3369C124.641 76.501 124.744 76.6559 124.817 76.8018H124.903V75.8096H126.293V84.0596H124.875ZM123.493 80.7549C123.792 80.7549 124.047 80.6742 124.258 80.5127C124.469 80.3486 124.629 80.1208 124.739 79.8291C124.848 79.5374 124.903 79.1976 124.903 78.8096C124.903 78.4215 124.848 78.0843 124.739 77.7979C124.632 77.5114 124.473 77.2887 124.262 77.1299C124.054 76.971 123.797 76.8916 123.493 76.8916C123.178 76.8916 122.915 76.9736 122.704 77.1377C122.493 77.3018 122.334 77.5283 122.227 77.8174C122.12 78.1064 122.067 78.4372 122.067 78.8096C122.067 79.1846 122.12 79.5192 122.227 79.8135C122.336 80.1051 122.497 80.3356 122.708 80.5049C122.921 80.6715 123.183 80.7549 123.493 80.7549ZM131.571 79.2861V75.8096H132.985V81.8096H131.614V80.7432H131.551C131.416 81.0791 131.193 81.3538 130.883 81.5674C130.576 81.7809 130.197 81.8877 129.747 81.8877C129.353 81.8877 129.006 81.8005 128.704 81.626C128.404 81.4489 128.17 81.1924 128 80.8564C127.831 80.5179 127.747 80.109 127.747 79.6299V75.8096H129.161V79.4111C129.161 79.7913 129.265 80.0934 129.473 80.3174C129.681 80.5413 129.955 80.6533 130.293 80.6533C130.502 80.6533 130.704 80.6025 130.899 80.501C131.094 80.3994 131.254 80.2484 131.379 80.0479C131.507 79.8447 131.571 79.5908 131.571 79.2861ZM137.095 81.9268C136.494 81.9268 135.974 81.8018 135.537 81.5518C135.102 81.2992 134.767 80.9424 134.533 80.4814C134.298 80.0179 134.181 79.4723 134.181 78.8447C134.181 78.2275 134.298 77.6859 134.533 77.2197C134.77 76.751 135.1 76.3864 135.525 76.126C135.949 75.863 136.448 75.7314 137.021 75.7314C137.391 75.7314 137.74 75.7913 138.068 75.9111C138.399 76.0283 138.69 76.2106 138.943 76.458C139.198 76.7054 139.399 77.0205 139.544 77.4033C139.69 77.7835 139.763 78.2367 139.763 78.7627V79.1963H134.845V78.2432H138.408C138.405 77.9723 138.347 77.7314 138.232 77.5205C138.117 77.307 137.957 77.139 137.751 77.0166C137.548 76.8942 137.311 76.833 137.041 76.833C136.751 76.833 136.498 76.9033 136.279 77.0439C136.06 77.182 135.889 77.3643 135.767 77.5908C135.647 77.8148 135.586 78.0609 135.583 78.3291V79.1611C135.583 79.5101 135.647 79.8096 135.775 80.0596C135.903 80.307 136.081 80.4971 136.31 80.6299C136.539 80.7601 136.807 80.8252 137.115 80.8252C137.32 80.8252 137.507 80.7965 137.673 80.7393C137.84 80.6794 137.985 80.5921 138.107 80.4775C138.229 80.363 138.322 80.221 138.384 80.0518L139.705 80.2002C139.621 80.5492 139.462 80.8538 139.228 81.1143C138.996 81.3721 138.699 81.5726 138.337 81.7158C137.975 81.8564 137.561 81.9268 137.095 81.9268ZM145.702 77.3955L144.413 77.5361C144.376 77.4059 144.312 77.2835 144.221 77.1689C144.133 77.0544 144.013 76.9619 143.862 76.8916C143.711 76.8213 143.526 76.7861 143.307 76.7861C143.013 76.7861 142.765 76.8499 142.565 76.9775C142.367 77.1051 142.269 77.2705 142.272 77.4736C142.269 77.6481 142.333 77.79 142.463 77.8994C142.596 78.0088 142.815 78.0986 143.12 78.1689L144.143 78.3877C144.711 78.5101 145.133 78.7041 145.409 78.9697C145.687 79.2354 145.828 79.583 145.831 80.0127C145.828 80.3903 145.717 80.7236 145.499 81.0127C145.282 81.2992 144.982 81.5231 144.596 81.6846C144.211 81.846 143.768 81.9268 143.268 81.9268C142.534 81.9268 141.943 81.7731 141.495 81.4658C141.047 81.1559 140.78 80.7249 140.694 80.1729L142.073 80.04C142.135 80.3109 142.268 80.5153 142.471 80.6533C142.674 80.7913 142.939 80.8604 143.264 80.8604C143.6 80.8604 143.87 80.7913 144.073 80.6533C144.278 80.5153 144.381 80.3447 144.381 80.1416C144.381 79.9697 144.315 79.8278 144.182 79.7158C144.052 79.6038 143.849 79.5179 143.573 79.458L142.549 79.2432C141.974 79.1234 141.548 78.9215 141.272 78.6377C140.996 78.3512 140.859 77.9893 140.862 77.5518C140.859 77.182 140.959 76.8617 141.163 76.5908C141.368 76.3174 141.653 76.1064 142.018 75.958C142.385 75.807 142.808 75.7314 143.288 75.7314C143.991 75.7314 144.544 75.8812 144.948 76.1807C145.354 76.4801 145.605 76.8851 145.702 77.3955ZM149.993 75.8096V76.9033H146.543V75.8096H149.993ZM147.395 74.3721H148.809V80.0049C148.809 80.195 148.838 80.3408 148.895 80.4424C148.955 80.5413 149.033 80.609 149.129 80.6455C149.226 80.682 149.333 80.7002 149.45 80.7002C149.538 80.7002 149.619 80.6937 149.692 80.6807C149.767 80.6676 149.825 80.6559 149.864 80.6455L150.102 81.751C150.027 81.777 149.918 81.8057 149.778 81.8369C149.64 81.8682 149.471 81.8864 149.27 81.8916C148.916 81.902 148.597 81.8486 148.313 81.7314C148.029 81.6117 147.804 81.4268 147.637 81.1768C147.473 80.9268 147.392 80.6143 147.395 80.2393V74.3721ZM156.9 75.8096V76.9033H153.451V75.8096H156.9ZM154.302 74.3721H155.716V80.0049C155.716 80.195 155.745 80.3408 155.802 80.4424C155.862 80.5413 155.94 80.609 156.037 80.6455C156.133 80.682 156.24 80.7002 156.357 80.7002C156.445 80.7002 156.526 80.6937 156.599 80.6807C156.675 80.6676 156.732 80.6559 156.771 80.6455L157.009 81.751C156.934 81.777 156.826 81.8057 156.685 81.8369C156.547 81.8682 156.378 81.8864 156.177 81.8916C155.823 81.902 155.504 81.8486 155.22 81.7314C154.936 81.6117 154.711 81.4268 154.544 81.1768C154.38 80.9268 154.3 80.6143 154.302 80.2393V74.3721ZM158.083 81.8096V75.8096H159.497V81.8096H158.083ZM158.793 74.958C158.569 74.958 158.377 74.8838 158.215 74.7354C158.054 74.5843 157.973 74.4033 157.973 74.1924C157.973 73.9788 158.054 73.7979 158.215 73.6494C158.377 73.4984 158.569 73.4229 158.793 73.4229C159.02 73.4229 159.213 73.4984 159.372 73.6494C159.533 73.7979 159.614 73.9788 159.614 74.1924C159.614 74.4033 159.533 74.5843 159.372 74.7354C159.213 74.8838 159.02 74.958 158.793 74.958ZM160.951 81.8096V75.8096H162.302V76.8291H162.373C162.498 76.4854 162.705 76.2171 162.994 76.0244C163.283 75.8291 163.628 75.7314 164.029 75.7314C164.435 75.7314 164.778 75.8304 165.056 76.0283C165.337 76.2236 165.535 76.4906 165.65 76.8291H165.712C165.845 76.4958 166.069 76.2301 166.384 76.0322C166.702 75.8317 167.078 75.7314 167.513 75.7314C168.065 75.7314 168.516 75.9059 168.865 76.2549C169.214 76.6038 169.388 77.113 169.388 77.7822V81.8096H167.97V78.001C167.97 77.6286 167.871 77.3564 167.673 77.1846C167.475 77.0101 167.233 76.9229 166.947 76.9229C166.606 76.9229 166.339 77.0296 166.146 77.2432C165.956 77.4541 165.861 77.7288 165.861 78.0674V81.8096H164.474V77.9424C164.474 77.6325 164.38 77.3851 164.193 77.2002C164.008 77.0153 163.766 76.9229 163.466 76.9229C163.263 76.9229 163.078 76.9749 162.912 77.0791C162.745 77.1807 162.612 77.3252 162.513 77.5127C162.414 77.6976 162.365 77.9137 162.365 78.1611V81.8096H160.951ZM173.479 81.9268C172.877 81.9268 172.358 81.8018 171.92 81.5518C171.486 81.2992 171.151 80.9424 170.917 80.4814C170.682 80.0179 170.565 79.4723 170.565 78.8447C170.565 78.2275 170.682 77.6859 170.917 77.2197C171.153 76.751 171.484 76.3864 171.909 76.126C172.333 75.863 172.832 75.7314 173.405 75.7314C173.775 75.7314 174.124 75.7913 174.452 75.9111C174.782 76.0283 175.074 76.2106 175.327 76.458C175.582 76.7054 175.782 77.0205 175.928 77.4033C176.074 77.7835 176.147 78.2367 176.147 78.7627V79.1963H171.229V78.2432H174.792C174.789 77.9723 174.73 77.7314 174.616 77.5205C174.501 77.307 174.341 77.139 174.135 77.0166C173.932 76.8942 173.695 76.833 173.424 76.833C173.135 76.833 172.881 76.9033 172.663 77.0439C172.444 77.182 172.273 77.3643 172.151 77.5908C172.031 77.8148 171.97 78.0609 171.967 78.3291V79.1611C171.967 79.5101 172.031 79.8096 172.159 80.0596C172.286 80.307 172.465 80.4971 172.694 80.6299C172.923 80.7601 173.191 80.8252 173.499 80.8252C173.704 80.8252 173.89 80.7965 174.057 80.7393C174.224 80.6794 174.368 80.5921 174.491 80.4775C174.613 80.363 174.706 80.221 174.768 80.0518L176.088 80.2002C176.005 80.5492 175.846 80.8538 175.612 81.1143C175.38 81.3721 175.083 81.5726 174.721 81.7158C174.359 81.8564 173.945 81.9268 173.479 81.9268ZM180.98 77.8955V79.0596H177.378V77.8955H180.98ZM185.084 81.9268C184.499 81.9268 183.991 81.7979 183.561 81.54C183.131 81.2822 182.798 80.9215 182.561 80.458C182.327 79.9945 182.209 79.4528 182.209 78.833C182.209 78.2132 182.327 77.6702 182.561 77.2041C182.798 76.738 183.131 76.376 183.561 76.1182C183.991 75.8604 184.499 75.7314 185.084 75.7314C185.67 75.7314 186.178 75.8604 186.608 76.1182C187.038 76.376 187.37 76.738 187.604 77.2041C187.841 77.6702 187.959 78.2132 187.959 78.833C187.959 79.4528 187.841 79.9945 187.604 80.458C187.37 80.9215 187.038 81.2822 186.608 81.54C186.178 81.7979 185.67 81.9268 185.084 81.9268ZM185.092 80.7939C185.41 80.7939 185.676 80.7067 185.889 80.5322C186.103 80.3551 186.262 80.1182 186.366 79.8213C186.472 79.5244 186.526 79.1937 186.526 78.8291C186.526 78.4619 186.472 78.1299 186.366 77.833C186.262 77.5335 186.103 77.2952 185.889 77.1182C185.676 76.9411 185.41 76.8525 185.092 76.8525C184.767 76.8525 184.496 76.9411 184.28 77.1182C184.066 77.2952 183.906 77.5335 183.799 77.833C183.695 78.1299 183.643 78.4619 183.643 78.8291C183.643 79.1937 183.695 79.5244 183.799 79.8213C183.906 80.1182 184.066 80.3551 184.28 80.5322C184.496 80.7067 184.767 80.7939 185.092 80.7939ZM192.199 75.8096V76.9033H188.652V75.8096H192.199ZM189.539 81.8096V75.2432C189.539 74.8395 189.622 74.5036 189.789 74.2354C189.958 73.9671 190.184 73.7666 190.468 73.6338C190.752 73.501 191.067 73.4346 191.414 73.4346C191.658 73.4346 191.876 73.4541 192.066 73.4932C192.256 73.5322 192.397 73.5674 192.488 73.5986L192.207 74.6924C192.147 74.6742 192.071 74.6559 191.98 74.6377C191.889 74.6169 191.787 74.6064 191.675 74.6064C191.412 74.6064 191.226 74.6702 191.117 74.7979C191.01 74.9229 190.957 75.1025 190.957 75.3369V81.8096H189.539ZM196.345 75.8096V76.9033H192.798V75.8096H196.345ZM193.685 81.8096V75.2432C193.685 74.8395 193.768 74.5036 193.935 74.2354C194.104 73.9671 194.331 73.7666 194.615 73.6338C194.899 73.501 195.214 73.4346 195.56 73.4346C195.805 73.4346 196.022 73.4541 196.212 73.4932C196.403 73.5322 196.543 73.5674 196.634 73.5986L196.353 74.6924C196.293 74.6742 196.218 74.6559 196.126 74.6377C196.035 74.6169 195.934 74.6064 195.822 74.6064C195.559 74.6064 195.373 74.6702 195.263 74.7979C195.156 74.9229 195.103 75.1025 195.103 75.3369V81.8096H193.685Z" fill="white"/>
<path d="M91.1157 79.1063L92.0104 78.2116L95.5951 81.7964C95.8391 82.0404 95.8391 82.4408 95.5951 82.691C95.3511 82.935 94.9507 82.935 94.7005 82.691L91.1157 79.1063ZM93.7996 75.5215L94.5941 74.727C95.1509 74.1702 95.0759 73.2067 94.4002 72.8001C91.9666 71.3111 88.7509 71.6177 86.6426 73.7197C89.1013 72.9064 91.8414 73.5633 93.7996 75.5215ZM86.6238 73.7385C84.5218 75.8468 84.2152 79.0625 85.6979 81.4961C86.1108 82.1718 87.068 82.2531 87.6248 81.6901L88.4193 80.8955C86.4674 78.9374 85.8105 76.1972 86.6238 73.7385ZM86.6363 73.726L86.6301 73.7322C86.3923 75.6153 87.362 78.0365 89.3202 80.0009L92.905 76.4161C90.9468 74.458 88.5194 73.4883 86.6363 73.726Z" fill="white"/>
<g opacity="0.8" filter="url(#filter1_d_0_1)">
<rect x="129.563" y="7.7998" width="166.327" height="35.1625" rx="10" fill="url(#paint0_linear_0_1)"/>
<rect x="130.063" y="8.2998" width="165.327" height="34.1625" rx="9.5" stroke="#0A367F" stroke-opacity="0.45"/>
</g>
<path opacity="0.9" d="M176.466 22.5254C176.423 22.1222 176.241 21.8083 175.921 21.5836C175.604 21.359 175.192 21.2466 174.684 21.2466C174.327 21.2466 174.02 21.3005 173.765 21.4082C173.51 21.5159 173.314 21.6621 173.179 21.8468C173.043 22.0314 172.974 22.2422 172.971 22.4792C172.971 22.6762 173.016 22.847 173.105 22.9917C173.197 23.1363 173.322 23.2594 173.479 23.361C173.636 23.4595 173.81 23.5426 174 23.6103C174.191 23.678 174.384 23.7349 174.578 23.7811L175.464 24.0027C175.821 24.0858 176.164 24.1981 176.493 24.3397C176.826 24.4812 177.123 24.6597 177.384 24.8752C177.649 25.0906 177.858 25.3507 178.012 25.6554C178.166 25.96 178.243 26.3171 178.243 26.7264C178.243 27.2804 178.101 27.7682 177.818 28.1898C177.535 28.6084 177.126 28.9361 176.59 29.1731C176.058 29.407 175.413 29.524 174.656 29.524C173.92 29.524 173.282 29.4101 172.74 29.1824C172.202 28.9546 171.78 28.6222 171.475 28.1852C171.174 27.7482 171.011 27.2157 170.986 26.5879H172.671C172.696 26.9172 172.797 27.1911 172.976 27.4096C173.154 27.6281 173.386 27.7913 173.673 27.899C173.962 28.0067 174.285 28.0605 174.642 28.0605C175.015 28.0605 175.341 28.0051 175.621 27.8944C175.904 27.7805 176.126 27.6235 176.286 27.4235C176.446 27.2203 176.527 26.9834 176.53 26.7125C176.527 26.4663 176.455 26.2632 176.313 26.1032C176.172 25.94 175.973 25.8046 175.718 25.6969C175.465 25.5861 175.17 25.4876 174.831 25.4015L173.756 25.1245C172.977 24.9244 172.362 24.6213 171.909 24.215C171.46 23.8057 171.235 23.2625 171.235 22.5854C171.235 22.0283 171.386 21.5405 171.688 21.122C171.992 20.7034 172.406 20.3787 172.929 20.1479C173.453 19.914 174.045 19.7971 174.707 19.7971C175.378 19.7971 175.966 19.914 176.47 20.1479C176.978 20.3787 177.377 20.7003 177.666 21.1127C177.955 21.5221 178.105 21.993 178.114 22.5254H176.466ZM181.159 29.3809L179.156 22.29H180.859L182.106 27.2757H182.17L183.445 22.29H185.13L186.404 27.248H186.473L187.701 22.29H189.409L187.401 29.3809H185.661L184.331 24.589H184.234L182.905 29.3809H181.159ZM192.616 29.524C192.167 29.524 191.762 29.444 191.402 29.2839C191.045 29.1208 190.762 28.8807 190.553 28.5637C190.347 28.2467 190.244 27.8559 190.244 27.3912C190.244 26.9911 190.317 26.6602 190.465 26.3986C190.613 26.137 190.814 25.9277 191.07 25.7708C191.325 25.6138 191.613 25.4953 191.933 25.4153C192.256 25.3322 192.59 25.2722 192.935 25.2353C193.35 25.1922 193.687 25.1537 193.946 25.1199C194.205 25.0829 194.392 25.0275 194.509 24.9537C194.629 24.8767 194.689 24.7582 194.689 24.5982V24.5705C194.689 24.2227 194.586 23.9534 194.38 23.7626C194.174 23.5718 193.877 23.4764 193.489 23.4764C193.08 23.4764 192.755 23.5656 192.515 23.7441C192.278 23.9226 192.118 24.1335 192.035 24.3766L190.474 24.155C190.597 23.7241 190.801 23.3641 191.084 23.0748C191.367 22.7824 191.713 22.5639 192.122 22.4192C192.532 22.2715 192.984 22.1976 193.48 22.1976C193.821 22.1976 194.161 22.2376 194.5 22.3176C194.838 22.3977 195.148 22.53 195.428 22.7147C195.708 22.8962 195.933 23.144 196.102 23.4579C196.274 23.7718 196.36 24.1642 196.36 24.6351V29.3809H194.754V28.4068H194.698C194.597 28.6038 194.454 28.7884 194.269 28.9608C194.088 29.13 193.858 29.267 193.581 29.3716C193.307 29.4732 192.986 29.524 192.616 29.524ZM193.05 28.296C193.386 28.296 193.677 28.2298 193.923 28.0975C194.169 27.9621 194.358 27.7836 194.491 27.562C194.626 27.3404 194.694 27.0988 194.694 26.8372V26.0016C194.642 26.0447 194.552 26.0847 194.426 26.1216C194.303 26.1586 194.164 26.1909 194.011 26.2186C193.857 26.2463 193.704 26.2709 193.554 26.2924C193.403 26.314 193.272 26.3324 193.161 26.3478C192.912 26.3817 192.689 26.4371 192.492 26.514C192.295 26.591 192.139 26.6987 192.026 26.8372C191.912 26.9726 191.855 27.148 191.855 27.3635C191.855 27.6712 191.967 27.9036 192.192 28.0605C192.416 28.2175 192.703 28.296 193.05 28.296ZM198.041 32.04V22.29H199.684V23.4625H199.781C199.867 23.2902 199.989 23.1071 200.146 22.9132C200.303 22.7162 200.515 22.5485 200.783 22.41C201.051 22.2684 201.392 22.1976 201.808 22.1976C202.356 22.1976 202.85 22.3377 203.29 22.6177C203.733 22.8947 204.084 23.3056 204.342 23.8503C204.604 24.392 204.735 25.0568 204.735 25.8446C204.735 26.6233 204.607 27.285 204.352 27.8297C204.096 28.3745 203.748 28.79 203.308 29.0762C202.868 29.3624 202.37 29.5055 201.812 29.5055C201.406 29.5055 201.069 29.4378 200.801 29.3024C200.534 29.167 200.318 29.0038 200.155 28.813C199.995 28.6191 199.87 28.436 199.781 28.2637H199.712V32.04H198.041ZM199.68 25.8354C199.68 26.294 199.744 26.6956 199.874 27.0403C200.006 27.385 200.195 27.6543 200.441 27.8482C200.691 28.039 200.992 28.1344 201.346 28.1344C201.716 28.1344 202.025 28.0359 202.274 27.839C202.523 27.6389 202.711 27.3665 202.837 27.0218C202.967 26.6741 203.031 26.2786 203.031 25.8354C203.031 25.3953 202.968 25.0044 202.842 24.6628C202.716 24.3212 202.528 24.0534 202.279 23.8596C202.029 23.6657 201.719 23.5687 201.346 23.5687C200.989 23.5687 200.686 23.6626 200.437 23.8503C200.187 24.0381 199.998 24.3012 199.869 24.6397C199.743 24.9783 199.68 25.3768 199.68 25.8354ZM211.431 29.524C210.982 29.524 210.577 29.444 210.217 29.2839C209.86 29.1208 209.577 28.8807 209.367 28.5637C209.161 28.2467 209.058 27.8559 209.058 27.3912C209.058 26.9911 209.132 26.6602 209.28 26.3986C209.427 26.137 209.629 25.9277 209.884 25.7708C210.14 25.6138 210.428 25.4953 210.748 25.4153C211.071 25.3322 211.405 25.2722 211.749 25.2353C212.165 25.1922 212.502 25.1537 212.76 25.1199C213.019 25.0829 213.207 25.0275 213.324 24.9537C213.444 24.8767 213.504 24.7582 213.504 24.5982V24.5705C213.504 24.2227 213.401 23.9534 213.194 23.7626C212.988 23.5718 212.691 23.4764 212.303 23.4764C211.894 23.4764 211.569 23.5656 211.329 23.7441C211.092 23.9226 210.932 24.1335 210.849 24.3766L209.289 24.155C209.412 23.7241 209.615 23.3641 209.898 23.0748C210.181 22.7824 210.528 22.5639 210.937 22.4192C211.346 22.2715 211.799 22.1976 212.294 22.1976C212.636 22.1976 212.976 22.2376 213.314 22.3176C213.653 22.3977 213.962 22.53 214.242 22.7147C214.522 22.8962 214.747 23.144 214.916 23.4579C215.089 23.7718 215.175 24.1642 215.175 24.6351V29.3809H213.568V28.4068H213.513C213.411 28.6038 213.268 28.7884 213.084 28.9608C212.902 29.13 212.673 29.267 212.396 29.3716C212.122 29.4732 211.8 29.524 211.431 29.524ZM211.865 28.296C212.2 28.296 212.491 28.2298 212.737 28.0975C212.984 27.9621 213.173 27.7836 213.305 27.562C213.441 27.3404 213.508 27.0988 213.508 26.8372V26.0016C213.456 26.0447 213.367 26.0847 213.241 26.1216C213.117 26.1586 212.979 26.1909 212.825 26.2186C212.671 26.2463 212.519 26.2709 212.368 26.2924C212.217 26.314 212.086 26.3324 211.976 26.3478C211.726 26.3817 211.503 26.4371 211.306 26.514C211.109 26.591 210.954 26.6987 210.84 26.8372C210.726 26.9726 210.669 27.148 210.669 27.3635C210.669 27.6712 210.782 27.9036 211.006 28.0605C211.231 28.2175 211.517 28.296 211.865 28.296ZM222.46 24.1642L220.936 24.3304C220.893 24.1766 220.818 24.0319 220.71 23.8965C220.605 23.7611 220.464 23.6518 220.285 23.5687C220.107 23.4856 219.888 23.4441 219.63 23.4441C219.282 23.4441 218.99 23.5195 218.753 23.6703C218.519 23.8211 218.403 24.0165 218.406 24.2566C218.403 24.4628 218.479 24.6305 218.633 24.7598C218.79 24.889 219.048 24.9952 219.408 25.0783L220.618 25.3368C221.289 25.4815 221.787 25.7108 222.113 26.0247C222.443 26.3386 222.609 26.7495 222.612 27.2573C222.609 27.7035 222.478 28.0975 222.22 28.4391C221.964 28.7776 221.609 29.0423 221.153 29.2331C220.698 29.4239 220.174 29.5194 219.584 29.5194C218.716 29.5194 218.017 29.3378 217.488 28.9746C216.958 28.6084 216.643 28.099 216.541 27.4466L218.171 27.2896C218.245 27.6097 218.402 27.8513 218.642 28.0144C218.882 28.1775 219.194 28.2591 219.579 28.2591C219.976 28.2591 220.295 28.1775 220.535 28.0144C220.778 27.8513 220.899 27.6497 220.899 27.4096C220.899 27.2065 220.821 27.0388 220.664 26.9064C220.51 26.7741 220.27 26.6725 219.944 26.6017L218.734 26.3478C218.054 26.2063 217.551 25.9677 217.225 25.6323C216.898 25.2937 216.737 24.8659 216.74 24.3489C216.737 23.9119 216.855 23.5333 217.095 23.2132C217.338 22.8901 217.675 22.6408 218.106 22.4654C218.54 22.2869 219.04 22.1976 219.607 22.1976C220.438 22.1976 221.092 22.3746 221.569 22.7285C222.049 23.0824 222.346 23.561 222.46 24.1642ZM229.594 24.1642L228.071 24.3304C228.028 24.1766 227.952 24.0319 227.845 23.8965C227.74 23.7611 227.599 23.6518 227.42 23.5687C227.242 23.4856 227.023 23.4441 226.765 23.4441C226.417 23.4441 226.124 23.5195 225.887 23.6703C225.653 23.8211 225.538 24.0165 225.541 24.2566C225.538 24.4628 225.613 24.6305 225.767 24.7598C225.924 24.889 226.183 24.9952 226.543 25.0783L227.752 25.3368C228.423 25.4815 228.922 25.7108 229.248 26.0247C229.577 26.3386 229.744 26.7495 229.747 27.2573C229.744 27.7035 229.613 28.0975 229.354 28.4391C229.099 28.7776 228.743 29.0423 228.288 29.2331C227.832 29.4239 227.309 29.5194 226.718 29.5194C225.85 29.5194 225.152 29.3378 224.622 28.9746C224.093 28.6084 223.778 28.099 223.676 27.4466L225.306 27.2896C225.38 27.6097 225.537 27.8513 225.777 28.0144C226.017 28.1775 226.329 28.2591 226.714 28.2591C227.111 28.2591 227.429 28.1775 227.669 28.0144C227.912 27.8513 228.034 27.6497 228.034 27.4096C228.034 27.2065 227.956 27.0388 227.799 26.9064C227.645 26.7741 227.405 26.6725 227.078 26.6017L225.869 26.3478C225.189 26.2063 224.686 25.9677 224.359 25.6323C224.033 25.2937 223.872 24.8659 223.875 24.3489C223.872 23.9119 223.99 23.5333 224.23 23.2132C224.473 22.8901 224.81 22.6408 225.241 22.4654C225.675 22.2869 226.175 22.1976 226.741 22.1976C227.572 22.1976 228.226 22.3746 228.703 22.7285C229.184 23.0824 229.481 23.561 229.594 24.1642ZM231.125 29.3809V22.29H232.796V29.3809H231.125ZM231.965 21.2836C231.7 21.2836 231.473 21.1958 231.282 21.0204C231.091 20.8419 230.996 20.628 230.996 20.3787C230.996 20.1264 231.091 19.9125 231.282 19.737C231.473 19.5585 231.7 19.4693 231.965 19.4693C232.233 19.4693 232.46 19.5585 232.648 19.737C232.839 19.9125 232.934 20.1264 232.934 20.3787C232.934 20.628 232.839 20.8419 232.648 21.0204C232.46 21.1958 232.233 21.2836 231.965 21.2836ZM237.598 32.1877C236.998 32.1877 236.483 32.1061 236.052 31.943C235.621 31.783 235.275 31.5675 235.013 31.2967C234.751 31.0259 234.57 30.7258 234.468 30.3965L235.973 30.0318C236.041 30.1703 236.139 30.3072 236.269 30.4426C236.398 30.5811 236.572 30.695 236.79 30.7843C237.012 30.8766 237.29 30.9228 237.626 30.9228C238.1 30.9228 238.492 30.8074 238.803 30.5765C239.114 30.3488 239.269 29.9733 239.269 29.4501V28.1067H239.186C239.1 28.2791 238.974 28.456 238.808 28.6376C238.645 28.8192 238.428 28.9715 238.157 29.0946C237.889 29.2177 237.552 29.2793 237.146 29.2793C236.601 29.2793 236.107 29.1516 235.664 28.8961C235.224 28.6376 234.873 28.2529 234.611 27.742C234.353 27.228 234.224 26.5848 234.224 25.8123C234.224 25.0337 234.353 24.3766 234.611 23.8411C234.873 23.3025 235.225 22.8947 235.669 22.6177C236.112 22.3377 236.606 22.1976 237.15 22.1976C237.566 22.1976 237.908 22.2684 238.175 22.41C238.446 22.5485 238.662 22.7162 238.822 22.9132C238.982 23.1071 239.103 23.2902 239.186 23.4625H239.279V22.29H240.927V29.4963C240.927 30.1026 240.782 30.6042 240.493 31.0012C240.203 31.3983 239.808 31.6953 239.306 31.8922C238.805 32.0892 238.235 32.1877 237.598 32.1877ZM237.612 27.9682C237.966 27.9682 238.268 27.882 238.517 27.7097C238.766 27.5373 238.955 27.2896 239.085 26.9664C239.214 26.6433 239.279 26.2555 239.279 25.8031C239.279 25.3568 239.214 24.966 239.085 24.6305C238.959 24.295 238.771 24.035 238.522 23.8503C238.275 23.6626 237.972 23.5687 237.612 23.5687C237.24 23.5687 236.929 23.6657 236.68 23.8596C236.43 24.0534 236.243 24.3197 236.116 24.6582C235.99 24.9937 235.927 25.3753 235.927 25.8031C235.927 26.237 235.99 26.6171 236.116 26.9434C236.246 27.2665 236.435 27.5189 236.684 27.7005C236.937 27.879 237.246 27.9682 237.612 27.9682ZM244.311 25.226V29.3809H242.639V22.29H244.237V23.4949H244.32C244.483 23.0978 244.743 22.7824 245.1 22.5485C245.46 22.3146 245.905 22.1976 246.434 22.1976C246.924 22.1976 247.35 22.3023 247.713 22.5115C248.079 22.7208 248.362 23.024 248.562 23.421C248.765 23.818 248.866 24.2997 248.862 24.8659V29.3809H247.191V25.1245C247.191 24.6505 247.068 24.2797 246.822 24.0119C246.579 23.7441 246.242 23.6103 245.811 23.6103C245.519 23.6103 245.259 23.6749 245.031 23.8042C244.806 23.9303 244.629 24.1135 244.5 24.3535C244.374 24.5936 244.311 24.8844 244.311 25.226ZM250.561 29.3809V22.29H252.159V23.4949H252.242C252.389 23.0886 252.634 22.7716 252.976 22.5439C253.317 22.313 253.725 22.1976 254.199 22.1976C254.679 22.1976 255.084 22.3146 255.413 22.5485C255.746 22.7793 255.98 23.0948 256.115 23.4949H256.189C256.346 23.1009 256.61 22.787 256.983 22.5531C257.358 22.3161 257.803 22.1976 258.317 22.1976C258.969 22.1976 259.502 22.4038 259.914 22.8162C260.327 23.2286 260.533 23.8303 260.533 24.6213V29.3809H258.857V24.8798C258.857 24.4397 258.74 24.1181 258.506 23.915C258.272 23.7087 257.986 23.6056 257.648 23.6056C257.244 23.6056 256.929 23.7318 256.701 23.9842C256.477 24.2335 256.364 24.5582 256.364 24.9583V29.3809H254.725V24.8105C254.725 24.4443 254.615 24.1519 254.393 23.9334C254.174 23.7149 253.888 23.6056 253.534 23.6056C253.294 23.6056 253.076 23.6672 252.879 23.7903C252.682 23.9103 252.525 24.0811 252.408 24.3027C252.291 24.5212 252.232 24.7767 252.232 25.0691V29.3809H250.561ZM265.367 29.5194C264.657 29.5194 264.043 29.3716 263.526 29.0762C263.012 28.7776 262.616 28.356 262.339 27.8113C262.062 27.2634 261.924 26.6187 261.924 25.877C261.924 25.1475 262.062 24.5074 262.339 23.9565C262.619 23.4025 263.01 22.9716 263.512 22.6639C264.013 22.353 264.603 22.1976 265.28 22.1976C265.717 22.1976 266.129 22.2684 266.517 22.41C266.908 22.5485 267.253 22.7639 267.551 23.0563C267.853 23.3487 268.09 23.7211 268.262 24.1735C268.434 24.6228 268.521 25.1583 268.521 25.78V26.2924H262.708V25.166H266.919C266.916 24.8459 266.846 24.5613 266.711 24.312C266.575 24.0596 266.386 23.8611 266.143 23.7164C265.903 23.5718 265.623 23.4995 265.303 23.4995C264.961 23.4995 264.661 23.5826 264.403 23.7488C264.144 23.9119 263.943 24.1273 263.798 24.3951C263.656 24.6597 263.584 24.9506 263.581 25.2676V26.2509C263.581 26.6633 263.656 27.0172 263.807 27.3127C263.958 27.6051 264.169 27.8297 264.44 27.9867C264.71 28.1406 265.027 28.2175 265.391 28.2175C265.634 28.2175 265.854 28.1837 266.051 28.1159C266.248 28.0452 266.419 27.9421 266.563 27.8066C266.708 27.6712 266.817 27.5035 266.891 27.3034L268.451 27.4789C268.353 27.8913 268.165 28.2514 267.888 28.5591C267.614 28.8638 267.263 29.1008 266.836 29.2701C266.408 29.4363 265.918 29.5194 265.367 29.5194ZM271.606 25.226V29.3809H269.934V22.29H271.532V23.4949H271.615C271.778 23.0978 272.038 22.7824 272.395 22.5485C272.755 22.3146 273.2 22.1976 273.729 22.1976C274.218 22.1976 274.645 22.3023 275.008 22.5115C275.374 22.7208 275.657 23.024 275.857 23.421C276.06 23.818 276.16 24.2997 276.157 24.8659V29.3809H274.486V25.1245C274.486 24.6505 274.363 24.2797 274.117 24.0119C273.874 23.7441 273.537 23.6103 273.106 23.6103C272.813 23.6103 272.553 23.6749 272.326 23.8042C272.101 23.9303 271.924 24.1135 271.795 24.3535C271.669 24.5936 271.606 24.8844 271.606 25.226ZM281.397 22.29V23.5826H277.321V22.29H281.397ZM278.327 20.5911H279.998V27.248C279.998 27.4727 280.032 27.6451 280.1 27.7651C280.171 27.882 280.263 27.9621 280.377 28.0051C280.491 28.0482 280.617 28.0698 280.755 28.0698C280.86 28.0698 280.955 28.0621 281.042 28.0467C281.131 28.0313 281.199 28.0175 281.245 28.0051L281.526 29.3116C281.437 29.3424 281.309 29.3762 281.143 29.4132C280.98 29.4501 280.78 29.4717 280.543 29.4778C280.124 29.4901 279.747 29.427 279.412 29.2885C279.077 29.147 278.81 28.9284 278.613 28.633C278.419 28.3375 278.324 27.9682 278.327 27.525V20.5911Z" fill="white"/>
<path d="M148.507 24.2358L145.727 27.0258C145.537 27.2258 145.537 27.5358 145.727 27.7358L148.507 30.5258C148.817 30.8458 149.357 30.6158 149.357 30.1758V28.3758H155.367C155.917 28.3758 156.367 27.9258 156.367 27.3758C156.367 26.8258 155.917 26.3758 155.367 26.3758H149.357V24.5858C149.357 24.1358 148.817 23.9158 148.507 24.2358ZM163.017 21.0258L160.237 18.2358C159.927 17.9158 159.387 18.1458 159.387 18.5858V20.3758H153.367C152.817 20.3758 152.367 20.8258 152.367 21.3758C152.367 21.9258 152.817 22.3758 153.367 22.3758H159.377V24.1658C159.377 24.6158 159.917 24.8358 160.227 24.5158L163.007 21.7258C163.207 21.5358 163.207 21.2158 163.017 21.0258Z" fill="white"/>
<g filter="url(#filter2_d_0_1)">
<rect x="11.7998" y="28.3809" width="140.492" height="41.1625" rx="10" fill="url(#paint1_linear_0_1)"/>
<rect x="12.2998" y="28.8809" width="139.492" height="40.1625" rx="9.5" stroke="#0A367F" stroke-opacity="0.45"/>
</g>
<path d="M55.5546 52.9619L52.8862 43.5074H54.7282L56.4317 50.4552H56.5194L58.3383 43.5074H60.0141L61.8376 50.4598H61.9207L63.6242 43.5074H65.4661L62.7978 52.9619H61.1082L59.2154 46.328H59.1416L57.2442 52.9619H55.5546ZM66.5799 52.9619V45.871H68.251V52.9619H66.5799ZM67.4201 44.8646C67.1554 44.8646 66.9276 44.7769 66.7368 44.6015C66.546 44.423 66.4506 44.2091 66.4506 43.9598C66.4506 43.7074 66.546 43.4935 66.7368 43.3181C66.9276 43.1396 67.1554 43.0503 67.4201 43.0503C67.6878 43.0503 67.9156 43.1396 68.1033 43.3181C68.2941 43.4935 68.3895 43.7074 68.3895 43.9598C68.3895 44.2091 68.2941 44.423 68.1033 44.6015C67.9156 44.7769 67.6878 44.8646 67.4201 44.8646ZM75.5739 47.7453L74.0505 47.9115C74.0074 47.7576 73.932 47.613 73.8243 47.4775C73.7196 47.3421 73.5781 47.2329 73.3995 47.1498C73.221 47.0667 73.0025 47.0251 72.744 47.0251C72.3962 47.0251 72.1039 47.1005 71.8669 47.2513C71.633 47.4021 71.5176 47.5976 71.5206 47.8376C71.5176 48.0438 71.593 48.2116 71.7468 48.3408C71.9038 48.4701 72.1623 48.5763 72.5224 48.6594L73.7319 48.9179C74.4029 49.0625 74.9014 49.2918 75.2277 49.6057C75.557 49.9197 75.7232 50.3305 75.7263 50.8383C75.7232 51.2846 75.5924 51.6785 75.3339 52.0202C75.0784 52.3587 74.7229 52.6234 74.2674 52.8142C73.812 53.005 73.2888 53.1004 72.6978 53.1004C71.8299 53.1004 71.1313 52.9188 70.602 52.5557C70.0726 52.1894 69.7571 51.6801 69.6556 51.0276L71.2852 50.8706C71.3591 51.1907 71.516 51.4323 71.7561 51.5954C71.9961 51.7586 72.3085 51.8401 72.6932 51.8401C73.0902 51.8401 73.4088 51.7586 73.6488 51.5954C73.892 51.4323 74.0135 51.2307 74.0135 50.9907C74.0135 50.7876 73.9351 50.6198 73.7781 50.4875C73.6242 50.3551 73.3842 50.2536 73.0579 50.1828L71.8484 49.9289C71.1682 49.7873 70.6651 49.5488 70.3388 49.2133C70.0126 48.8748 69.851 48.447 69.8541 47.93C69.851 47.4929 69.9695 47.1144 70.2096 46.7943C70.4527 46.4711 70.7897 46.2219 71.2206 46.0464C71.6545 45.8679 72.1546 45.7787 72.7209 45.7787C73.5519 45.7787 74.2059 45.9556 74.6829 46.3096C75.163 46.6635 75.46 47.1421 75.5739 47.7453ZM78.7754 48.8071V52.9619H77.1043V43.5074H78.7385V47.0759H78.8216C78.9878 46.6758 79.2448 46.3604 79.5926 46.1295C79.9434 45.8956 80.3897 45.7787 80.9313 45.7787C81.4238 45.7787 81.8531 45.8818 82.2193 46.088C82.5856 46.2942 82.8687 46.5958 83.0688 46.9928C83.2719 47.3898 83.3734 47.8746 83.3734 48.447V52.9619H81.7023V48.7055C81.7023 48.2285 81.5792 47.8576 81.333 47.593C81.0898 47.3252 80.7482 47.1913 80.3081 47.1913C80.0127 47.1913 79.748 47.2559 79.5141 47.3852C79.2832 47.5114 79.1017 47.6945 78.9693 47.9346C78.8401 48.1746 78.7754 48.4655 78.7754 48.8071ZM91.8424 45.871V47.1636H87.766V45.871H91.8424ZM88.7724 44.1721H90.4436V50.8291C90.4436 51.0538 90.4774 51.2261 90.5451 51.3461C90.6159 51.4631 90.7083 51.5431 90.8221 51.5862C90.936 51.6293 91.0622 51.6508 91.2007 51.6508C91.3053 51.6508 91.4007 51.6431 91.4869 51.6278C91.5762 51.6124 91.6439 51.5985 91.69 51.5862L91.9716 52.8927C91.8824 52.9234 91.7547 52.9573 91.5885 52.9942C91.4254 53.0312 91.2253 53.0527 90.9883 53.0589C90.5698 53.0712 90.1928 53.0081 89.8573 52.8696C89.5218 52.728 89.2556 52.5095 89.0586 52.214C88.8647 51.9186 88.7693 51.5493 88.7724 51.1061V44.1721ZM96.2569 53.1004C95.5644 53.1004 94.9643 52.9481 94.4565 52.6434C93.9486 52.3387 93.5547 51.9124 93.2746 51.3646C92.9976 50.8168 92.8592 50.1766 92.8592 49.4442C92.8592 48.7117 92.9976 48.07 93.2746 47.5191C93.5547 46.9682 93.9486 46.5404 94.4565 46.2357C94.9643 45.931 95.5644 45.7787 96.2569 45.7787C96.9494 45.7787 97.5495 45.931 98.0573 46.2357C98.5651 46.5404 98.9575 46.9682 99.2345 47.5191C99.5146 48.07 99.6546 48.7117 99.6546 49.4442C99.6546 50.1766 99.5146 50.8168 99.2345 51.3646C98.9575 51.9124 98.5651 52.3387 98.0573 52.6434C97.5495 52.9481 96.9494 53.1004 96.2569 53.1004ZM96.2661 51.7616C96.6416 51.7616 96.9555 51.6585 97.2079 51.4523C97.4602 51.243 97.648 50.963 97.7711 50.6121C97.8973 50.2613 97.9604 49.8704 97.9604 49.4395C97.9604 49.0056 97.8973 48.6132 97.7711 48.2623C97.648 47.9084 97.4602 47.6268 97.2079 47.4175C96.9555 47.2082 96.6416 47.1036 96.2661 47.1036C95.8814 47.1036 95.5613 47.2082 95.3059 47.4175C95.0535 47.6268 94.8642 47.9084 94.7381 48.2623C94.615 48.6132 94.5534 49.0056 94.5534 49.4395C94.5534 49.8704 94.615 50.2613 94.7381 50.6121C94.8642 50.963 95.0535 51.243 95.3059 51.4523C95.5613 51.6585 95.8814 51.7616 96.2661 51.7616ZM105.761 52.9619L103.758 45.871H105.461L106.707 50.8568H106.772L108.046 45.871H109.731L111.005 50.8291H111.075L112.303 45.871H114.011L112.003 52.9619H110.262L108.933 48.17H108.836L107.506 52.9619H105.761ZM118.067 53.1004C117.375 53.1004 116.775 52.9481 116.267 52.6434C115.759 52.3387 115.365 51.9124 115.085 51.3646C114.808 50.8168 114.67 50.1766 114.67 49.4442C114.67 48.7117 114.808 48.07 115.085 47.5191C115.365 46.9682 115.759 46.5404 116.267 46.2357C116.775 45.931 117.375 45.7787 118.067 45.7787C118.76 45.7787 119.36 45.931 119.868 46.2357C120.376 46.5404 120.768 46.9682 121.045 47.5191C121.325 48.07 121.465 48.7117 121.465 49.4442C121.465 50.1766 121.325 50.8168 121.045 51.3646C120.768 51.9124 120.376 52.3387 119.868 52.6434C119.36 52.9481 118.76 53.1004 118.067 53.1004ZM118.077 51.7616C118.452 51.7616 118.766 51.6585 119.018 51.4523C119.271 51.243 119.459 50.963 119.582 50.6121C119.708 50.2613 119.771 49.8704 119.771 49.4395C119.771 49.0056 119.708 48.6132 119.582 48.2623C119.459 47.9084 119.271 47.6268 119.018 47.4175C118.766 47.2082 118.452 47.1036 118.077 47.1036C117.692 47.1036 117.372 47.2082 117.116 47.4175C116.864 47.6268 116.675 47.9084 116.549 48.2623C116.426 48.6132 116.364 49.0056 116.364 49.4395C116.364 49.8704 116.426 50.2613 116.549 50.6121C116.675 50.963 116.864 51.243 117.116 51.4523C117.372 51.6585 117.692 51.7616 118.077 51.7616ZM122.884 52.9619V45.871H124.504V47.0528H124.578C124.707 46.6435 124.929 46.328 125.243 46.1064C125.56 45.8818 125.921 45.7694 126.327 45.7694C126.42 45.7694 126.523 45.7741 126.637 45.7833C126.754 45.7894 126.851 45.8002 126.928 45.8156V47.3529C126.857 47.3283 126.744 47.3067 126.591 47.2883C126.44 47.2667 126.294 47.2559 126.152 47.2559C125.847 47.2559 125.573 47.3221 125.33 47.4545C125.09 47.5837 124.901 47.7638 124.762 47.9946C124.624 48.2254 124.555 48.4916 124.555 48.7932V52.9619H122.884ZM129.561 50.7368L129.557 48.7194H129.824L132.373 45.871H134.326L131.191 49.3611H130.845L129.561 50.7368ZM128.038 52.9619V43.5074H129.709V52.9619H128.038ZM132.488 52.9619L130.18 49.735L131.306 48.5578L134.487 52.9619H132.488Z" fill="white"/>
<path d="M43.1899 43.9894C43.1416 43.243 42.8804 42.561 42.4694 41.9989M30.4831 40.8568C30.8981 40.2345 31.4653 39.7745 32.1023 39.4932M30.155 54.6451L29.6985 54.1257C29.065 53.4048 28.5678 52.5747 28.2311 51.676L27.3239 49.2543C27.0993 48.6547 27.2889 47.9786 27.7926 47.5832C28.5481 46.9902 29.6601 47.2697 30.0455 48.1494L30.8116 49.8982C31.3857 50.052 32.7021 50.6509 33.3746 51.8157M30.8121 49.9002L32.7351 42.7236C32.9475 41.9309 33.7623 41.4605 34.555 41.6729C35.3477 41.8853 35.8181 42.7001 35.6057 43.4928L34.4519 47.7988L36.0672 41.7704C36.2796 40.9777 37.0945 40.5073 37.8872 40.7197C38.6799 40.9321 39.1503 41.7469 38.9379 42.5396L37.1688 49.1421L38.1687 45.4102C38.3811 44.6175 39.1959 44.1471 39.9886 44.3595C40.7813 44.5719 41.2517 45.3867 41.0394 46.1794L38.784 54.5964C38.6028 55.2727 38.1604 55.8492 37.5541 56.1994L37.0451 56.4932" stroke="white" stroke-width="1.25" stroke-linecap="round" stroke-linejoin="round"/>
<defs>
<filter id="filter0_d_0_1" x="67.7294" y="61.1249" width="148.897" height="41.8" filterUnits="userSpaceOnUse" color-interpolation-filters="sRGB">
<feFlood flood-opacity="0" result="BackgroundImageFix"/>
<feColorMatrix in="SourceAlpha" type="matrix" values="0 0 0 0 0 0 0 0 0 0 0 0 0 0 0 0 0 0 127 0" result="hardAlpha"/>
<feMorphology radius="4" operator="erode" in="SourceAlpha" result="effect1_dropShadow_0_1"/>
<feOffset dy="4"/>
<feGaussianBlur stdDeviation="4.95"/>
<feComposite in2="hardAlpha" operator="out"/>
<feColorMatrix type="matrix" values="0 0 0 0 0.141176 0 0 0 0 0.243137 0 0 0 0 0.501961 0 0 0 0.4 0"/>
<feBlend mode="normal" in2="BackgroundImageFix" result="effect1_dropShadow_0_1"/>
<feBlend mode="normal" in="SourceGraphic" in2="effect1_dropShadow_0_1" result="shape"/>
</filter>
<filter id="filter1_d_0_1" x="117.763" y="-0.000195503" width="189.927" height="58.7626" filterUnits="userSpaceOnUse" color-interpolation-filters="sRGB">
<feFlood flood-opacity="0" result="BackgroundImageFix"/>
<feColorMatrix in="SourceAlpha" type="matrix" values="0 0 0 0 0 0 0 0 0 0 0 0 0 0 0 0 0 0 127 0" result="hardAlpha"/>
<feMorphology radius="4" operator="erode" in="SourceAlpha" result="effect1_dropShadow_0_1"/>
<feOffset dy="4"/>
<feGaussianBlur stdDeviation="7.9"/>
<feComposite in2="hardAlpha" operator="out"/>
<feColorMatrix type="matrix" values="0 0 0 0 0.141176 0 0 0 0 0.243137 0 0 0 0 0.501961 0 0 0 0.58 0"/>
<feBlend mode="normal" in2="BackgroundImageFix" result="effect1_dropShadow_0_1"/>
<feBlend mode="normal" in="SourceGraphic" in2="effect1_dropShadow_0_1" result="shape"/>
</filter>
<filter id="filter2_d_0_1" x="-0.000195503" y="20.5809" width="164.092" height="64.7626" filterUnits="userSpaceOnUse" color-interpolation-filters="sRGB">
<feFlood flood-opacity="0" result="BackgroundImageFix"/>
<feColorMatrix in="SourceAlpha" type="matrix" values="0 0 0 0 0 0 0 0 0 0 0 0 0 0 0 0 0 0 127 0" result="hardAlpha"/>
<feMorphology radius="4" operator="erode" in="SourceAlpha" result="effect1_dropShadow_0_1"/>
<feOffset dy="4"/>
<feGaussianBlur stdDeviation="7.9"/>
<feComposite in2="hardAlpha" operator="out"/>
<feColorMatrix type="matrix" values="0 0 0 0 0.141176 0 0 0 0 0.243137 0 0 0 0 0.501961 0 0 0 1 0"/>
<feBlend mode="normal" in2="BackgroundImageFix" result="effect1_dropShadow_0_1"/>
<feBlend mode="normal" in="SourceGraphic" in2="effect1_dropShadow_0_1" result="shape"/>
</filter>
<linearGradient id="paint0_linear_0_1" x1="97.4156" y1="148.328" x2="176.797" y2="-19.1826" gradientUnits="userSpaceOnUse">
<stop stop-color="#37AFCF"/>
<stop offset="1" stop-color="#238080"/>
</linearGradient>
<linearGradient id="paint1_linear_0_1" x1="77.0657" y1="73.0046" x2="119.677" y2="-26.5151" gradientUnits="userSpaceOnUse">
<stop stop-color="#233D80"/>
<stop offset="1" stop-color="#37AFCF"/>
</linearGradient>
</defs>
</svg>
