<svg width="122" height="21" viewBox="0 0 122 21" fill="none" xmlns="http://www.w3.org/2000/svg">
<g clip-path="url(#clip0_1834_1075)">
<path d="M42.2246 11.5512C43.559 10.8402 44.4194 9.59517 44.4194 7.72668C44.4194 4.5858 42.0478 2.77747 39.0527 2.77747H31.5222V20.5637H39.7345C42.6985 20.5637 45.0118 18.8447 45.0118 15.7019C45.0118 13.5381 43.8853 12.2038 42.2246 11.5512ZM40.5056 8.14231C40.5056 9.17955 39.6452 10.0691 38.5788 10.0691H35.436V6.24465H38.5788C39.6452 6.24465 40.5056 7.0759 40.5056 8.14231ZM39.1712 17.0947H35.436V13.2702H39.1712C40.2686 13.2702 41.098 14.1598 41.098 15.1988C41.098 16.2652 40.2686 17.0947 39.1712 17.0947Z" fill="black"/>
<path d="M48.8749 6.71863C50.0015 6.71863 50.9494 5.77071 50.9494 4.64415C50.9494 3.48842 50.0015 2.56967 48.8749 2.56967C47.7484 2.56967 46.7986 3.48842 46.7986 4.64415C46.7986 5.77071 47.7484 6.71863 48.8749 6.71863ZM46.9773 20.5637H50.7416V8.70561H46.9773V20.5637Z" fill="black"/>
<path d="M59.0596 20.8007C63.0317 20.8007 65.6403 18.1921 65.6403 14.6356C65.6403 11.0772 63.0317 8.46863 59.0596 8.46863C55.0856 8.46863 52.4478 11.0772 52.4478 14.6356C52.4478 18.1921 55.0856 20.8007 59.0596 20.8007ZM59.0596 17.4501C57.428 17.421 56.2431 16.2361 56.2431 14.6356C56.2431 13.0332 57.428 11.8483 59.0596 11.8192C60.6601 11.8483 61.876 13.0332 61.876 14.6356C61.876 16.2361 60.6601 17.421 59.0596 17.4501Z" fill="black"/>
<path d="M73.4698 20.8006C76.7894 20.8006 79.6058 18.8447 79.6058 15.5233C79.6058 8.94257 71.4245 10.5741 71.4245 7.48971C71.4245 6.48163 72.1956 6.00768 73.1435 6.00768C74.1516 6.00768 75.1597 6.57096 76.0493 7.54986L78.6579 5.05976C77.3527 3.54674 75.3675 2.53867 73.1727 2.53867C70.3563 2.53867 67.4816 4.22851 67.4816 7.78684C67.4816 13.8335 75.6938 12.3824 75.6938 15.4941C75.6938 16.473 74.8626 17.1256 73.499 17.1256C71.8693 17.1256 70.5951 16.2051 69.9425 14.8124L66.7105 16.8285C67.8662 19.0525 70.3563 20.8006 73.4698 20.8006Z" fill="black"/>
<path d="M94.3791 20.5637L88.7463 14.0723L93.9343 8.7056H89.3989L85.2773 12.9749V0.256378H81.513V20.5637H85.2773V15.1095L89.4573 20.5637H94.3791Z" fill="black"/>
<path d="M106.957 14.6046C106.957 10.8986 104.409 8.43945 100.584 8.43945C96.7599 8.43945 94.062 10.9296 94.062 14.6355C94.062 18.3397 96.7308 20.8007 100.703 20.8007C103.993 20.8007 106.186 19.0525 106.781 16.473H103.133C102.808 17.421 101.948 17.9842 100.643 17.9842C98.9238 17.9842 98.0342 16.947 97.8865 15.2572H106.957V14.6046ZM100.643 11.3434C101.919 11.3434 102.659 11.9376 103.045 12.9749H98.1235C98.5081 11.9668 99.3102 11.3434 100.643 11.3434Z" fill="black"/>
<path d="M117.313 0.256378V9.74284C116.424 8.94258 115.297 8.46862 113.934 8.46862C110.643 8.46862 108.064 11.1957 108.064 14.6355C108.064 18.0736 110.643 20.8006 113.934 20.8006C115.297 20.8006 116.424 20.3267 117.313 19.5264V20.5928L121.078 20.5637V0.256378H117.313ZM114.675 17.4501C113.104 17.4501 111.859 16.2051 111.859 14.6355C111.859 13.0642 113.104 11.8191 114.675 11.8191C116.216 11.8191 117.492 13.0642 117.492 14.6355C117.492 16.2051 116.216 17.4501 114.675 17.4501Z" fill="black"/>
<path d="M-1.52588e-05 1.75H10.8418C10.8888 1.75 10.9345 1.75926 10.9789 1.77546C11.0221 1.79282 11.0617 1.81713 11.095 1.84837C11.1284 1.88078 11.1543 1.91666 11.1728 1.95832C11.1913 1.99883 11.2 2.04165 11.2 2.08679V5.61437C11.2 5.65835 11.1913 5.70117 11.1728 5.74284C11.1543 5.78334 11.1284 5.82038 11.095 5.85163C11.0617 5.88287 11.0221 5.90718 10.9789 5.92454C10.9345 5.9419 10.8888 5.95 10.8418 5.95H-1.52588e-05V1.75Z" fill="#0A367F"/>
<path d="M-1.52588e-05 6.64999H14.3472C14.3935 6.64999 14.4385 6.65925 14.4822 6.67546C14.526 6.69282 14.5637 6.71712 14.5966 6.74837C14.6294 6.78077 14.655 6.81665 14.6732 6.85716C14.6915 6.89882 14.7 6.94164 14.7 6.98678V10.5144C14.7 10.5583 14.6915 10.6012 14.6732 10.6428C14.655 10.6833 14.6294 10.7204 14.5966 10.7516C14.5637 10.7829 14.526 10.8072 14.4822 10.8245C14.4385 10.8407 14.3935 10.85 14.3472 10.85H-1.52588e-05V6.64999Z" fill="#0A367F"/>
<path d="M-1.52588e-05 11.55H18.1938C18.2417 11.55 18.2871 11.5592 18.3301 11.5754C18.3743 11.5928 18.4124 11.6171 18.4456 11.6484C18.48 11.6796 18.5058 11.7166 18.523 11.7572C18.5414 11.7988 18.55 11.8416 18.55 11.8856V15.4132C18.55 15.4583 18.5414 15.5012 18.523 15.5428C18.5058 15.5833 18.48 15.6192 18.4456 15.6516C18.4124 15.6829 18.3743 15.7072 18.3301 15.7245C18.2871 15.7407 18.2417 15.75 18.1938 15.75H-1.52588e-05V11.55Z" fill="#0A367F"/>
<path d="M-1.52588e-05 16.45H21.6958C21.7433 16.45 21.7883 16.4581 21.8309 16.4755C21.8747 16.4928 21.9125 16.5171 21.9465 16.5484C21.9794 16.5796 22.005 16.6167 22.0232 16.6572C22.0403 16.6988 22.05 16.7417 22.05 16.7856V20.3132C22.05 20.3584 22.0403 20.4012 22.0232 20.4417C22.005 20.4834 21.9794 20.5192 21.9465 20.5516C21.9125 20.5829 21.8747 20.6072 21.8309 20.6246C21.7883 20.6408 21.7433 20.65 21.6958 20.65H-1.52588e-05V16.45Z" fill="#0A367F"/>
<path d="M-1.52588e-05 1.75H8.74999V5.95H-1.52588e-05V1.75Z" fill="#37AFCF"/>
<path d="M-1.52588e-05 6.64999H10.5V10.85H-1.52588e-05V6.64999Z" fill="#37AFCF"/>
<path d="M-1.52588e-05 11.55H14.7V15.75H-1.52588e-05V11.55Z" fill="#37AFCF"/>
<path d="M-1.52588e-05 16.45H17.5V20.65H-1.52588e-05V16.45Z" fill="#37AFCF"/>
<path d="M-1.52588e-05 1.75H3.84998V5.95H-1.52588e-05V1.75Z" fill="#6CE5E8"/>
<path d="M-1.52588e-05 6.64999H5.59998V10.85H-1.52588e-05V6.64999Z" fill="#6CE5E8"/>
<path d="M-1.52588e-05 11.55H8.74999V15.75H-1.52588e-05V11.55Z" fill="#6CE5E8"/>
<path d="M-1.52588e-05 16.45H10.15V20.65H-1.52588e-05V16.45Z" fill="#6CE5E8"/>
</g>
<defs>
<clipPath id="clip0_1834_1075">
<rect width="121.1" height="21" fill="white"/>
</clipPath>
</defs>
</svg>
