<svg width="22" height="11" viewBox="0 0 22 11" fill="none" xmlns="http://www.w3.org/2000/svg">
<g>
<path d="M9.04201 5.5H12.958C13.651 5.5 14.168 4.862 14.036 4.18L13.629 2.156C13.376 0.902 12.276 0 11 0C9.72401 0 8.62401 0.902 8.37101 2.156L7.96401 4.18C7.83201 4.862 8.34901 5.5 9.04201 5.5Z" fill="#7B869D"/>
<path d="M1.793 4.939C1.672 5.17 1.639 5.445 1.694 5.72C1.837 6.325 2.365 6.633 3.036 6.6C3.036 6.6 4.345 6.6 4.752 6.6C5.5 6.6 6.094 6.094 6.094 5.467C6.094 5.346 6.072 5.225 6.028 5.115C6.017 5.093 6.017 5.071 6.028 5.049C6.105 4.906 6.149 4.752 6.149 4.587C6.149 4.312 6.028 4.059 5.83 3.861C5.808 3.839 5.808 3.806 5.819 3.773C5.874 3.597 5.885 3.399 5.83 3.201C5.698 2.816 5.346 2.552 4.961 2.53C4.939 2.53 4.917 2.519 4.906 2.497C4.752 2.321 4.488 2.2 4.18 2.2C3.916 2.2 3.674 2.288 3.52 2.431C3.498 2.453 3.465 2.453 3.432 2.442C3.311 2.398 3.179 2.365 3.036 2.365C2.464 2.365 2.002 2.794 1.947 3.355C1.947 3.377 1.936 3.388 1.925 3.41C1.661 3.641 1.518 3.982 1.562 4.334C1.584 4.532 1.661 4.708 1.782 4.862C1.804 4.884 1.804 4.917 1.793 4.939Z" fill="#7B869D"/>
<path d="M18.15 6.6C19.063 6.6 19.8 5.863 19.8 4.95C19.8 4.906 19.789 4.873 19.789 4.829H19.8V4.411C19.8 3.498 19.052 2.75 18.139 2.75H16.368C16.016 2.75 15.829 3.157 16.049 3.421L16.764 4.059C16.599 4.323 16.5 4.62 16.5 4.95C16.5 5.863 17.237 6.6 18.15 6.6Z" fill="#7B869D"/>
<path d="M15.29 7.623C14.157 7.051 12.694 6.6 11 6.6C9.306 6.6 7.843 7.051 6.71 7.623C5.962 7.986 5.5 8.756 5.5 9.592V9.89999C5.5 10.505 5.995 11 6.6 11H15.4C16.005 11 16.5 10.505 16.5 9.89999V9.592C16.5 8.756 16.038 7.986 15.29 7.623Z" fill="#7B869D"/>
<path d="M20.614 7.711C19.91 7.436 19.074 7.26 18.15 7.26C17.666 7.26 17.204 7.315 16.775 7.392C17.303 7.986 17.6 8.756 17.6 9.581V11H20.9C21.505 11 22 10.505 22 9.9V9.757C22 8.855 21.45 8.041 20.614 7.711Z" fill="#7B869D"/>
<path d="M3.85 7.26C2.915 7.26 2.09 7.436 1.386 7.711C0.55 8.041 0 8.855 0 9.757V9.9C0 10.505 0.495 11 1.1 11H4.4V9.592C4.4 8.756 4.708 7.997 5.225 7.403C4.796 7.315 4.334 7.26 3.85 7.26Z" fill="currentColor"/>
</g>
</svg>
