<svg width="50" height="46" viewBox="0 0 50 46" fill="none" xmlns="http://www.w3.org/2000/svg">
<path d="M0 0H24.5847C24.6911 0 24.7947 0.0225345 24.8955 0.0619703C24.9936 0.104223 25.0832 0.163376 25.1588 0.23943C25.2344 0.318301 25.2932 0.405622 25.3352 0.507028C25.3772 0.605616 25.3968 0.709838 25.3968 0.819694V9.40535C25.3968 9.51239 25.3772 9.61661 25.3352 9.71802C25.2932 9.81661 25.2344 9.90674 25.1588 9.9828C25.0832 10.0589 24.9936 10.118 24.8955 10.1603C24.7947 10.2025 24.6911 10.2222 24.5847 10.2222H0V0Z" fill="#0A367F"/>
<path d="M0 11.9259H32.5334C32.6382 11.9259 32.7403 11.9485 32.8396 11.9879C32.9389 12.0301 33.0244 12.0893 33.0989 12.1653C33.1733 12.2442 33.2313 12.3315 33.2726 12.4301C33.314 12.5315 33.3333 12.6358 33.3333 12.7456V21.3313C33.3333 21.4383 33.314 21.5425 33.2726 21.6439C33.2313 21.7425 33.1733 21.8327 33.0989 21.9087C33.0244 21.9848 32.9389 22.0439 32.8396 22.0862C32.7403 22.1256 32.6382 22.1481 32.5334 22.1481H0V11.9259Z" fill="#0A367F"/>
<path d="M0 23.8519H41.2557C41.3643 23.8519 41.4674 23.8744 41.5649 23.9138C41.6652 23.9561 41.7515 24.0152 41.8267 24.0913C41.9047 24.1674 41.9632 24.2575 42.0022 24.3561C42.044 24.4575 42.0635 24.5617 42.0635 24.6687V33.2544C42.0635 33.3643 42.044 33.4685 42.0022 33.5699C41.9632 33.6685 41.9047 33.7558 41.8267 33.8347C41.7515 33.9107 41.6652 33.9699 41.5649 34.0121C41.4674 34.0516 41.3643 34.0741 41.2557 34.0741H0V23.8519Z" fill="#0A367F"/>
<path d="M0 35.7778H49.1969C49.3046 35.7778 49.4067 35.7975 49.5033 35.8398C49.6026 35.882 49.6882 35.9412 49.7654 36.0172C49.8399 36.0933 49.8979 36.1834 49.9393 36.282C49.9779 36.3834 50 36.4876 50 36.5947V45.1803C50 45.2902 49.9779 45.3944 49.9393 45.493C49.8979 45.5944 49.8399 45.6817 49.7654 45.7606C49.6882 45.8366 49.6026 45.8958 49.5033 45.938C49.4067 45.9775 49.3046 46 49.1969 46H0V35.7778Z" fill="#0A367F"/>
<path d="M0 0H19.8413V10.2222H0V0Z" fill="#37AFCF"/>
<path d="M0 11.9259H23.8095V22.1481H0V11.9259Z" fill="#37AFCF"/>
<path d="M0 23.8519H33.3333V34.0741H0V23.8519Z" fill="#37AFCF"/>
<path d="M0 35.7778H39.6825V46H0V35.7778Z" fill="#37AFCF"/>
<path d="M0 0H8.73016V10.2222H0V0Z" fill="#6CE5E8"/>
<path d="M0 11.9259H12.6984V22.1481H0V11.9259Z" fill="#6CE5E8"/>
<path d="M0 23.8519H19.8413V34.0741H0V23.8519Z" fill="#6CE5E8"/>
<path d="M0 35.7778H23.0159V46H0V35.7778Z" fill="#6CE5E8"/>
</svg>
