<svg width="76" height="76" viewBox="0 0 76 76" fill="none" xmlns="http://www.w3.org/2000/svg">
<rect width="75.9512" height="75.9512" rx="12" fill="url(#paint0_linear_2074_1262)"/>
<rect x="1" y="1" width="73.9512" height="73.9512" rx="11" stroke="#0A367F" stroke-opacity="0.45" stroke-width="2"/>
<rect x="1" y="1" width="73.9512" height="73.9512" rx="11" stroke="#6CE5E8" stroke-opacity="0.15" stroke-width="2"/>
<path d="M47.473 26.3756C42.9763 26.3756 40.0437 28.5913 38.2842 31.0678C36.4594 28.5913 33.4617 26.3756 28.8999 26.3756C20.2976 26.3756 17.4302 34.3914 17.4302 37.324C17.4302 40.2565 17.4302 49.5757 17.4302 49.5757H22.0572C22.0572 49.5757 22.0572 38.6273 22.0572 37.324C22.0572 36.0206 23.7515 31.0026 29.0302 31.0026C34.3089 31.0026 36.0033 36.1509 36.0033 37.1936C36.0033 37.2588 36.0033 37.2588 36.0033 37.324C36.0033 39.0183 36.0033 49.5757 36.0033 49.5757H40.6302C40.6302 49.5757 40.6302 40.4521 40.6302 37.324C40.6302 36.0206 42.3246 31.0026 47.6033 31.0026C52.882 31.0026 54.5763 36.1509 54.5763 37.1936C54.5763 38.2363 54.5763 49.5757 54.5763 49.5757H59.2033C59.2033 49.5757 59.2033 39.67 59.2033 36.9981C59.2033 34.3262 56.0752 26.3756 47.473 26.3756Z" fill="white" class="shadow shadow-lg"/>
<defs>
<linearGradient id="paint0_linear_2074_1262" x1="37.9756" y1="3.49153" x2="37.9756" y2="72.097" gradientUnits="userSpaceOnUse">
<stop stop-color="#294899"/>
<stop offset="1" stop-color="#0A367F"/>
</linearGradient>
</defs>
</svg>
