<?xml version="1.0" encoding="UTF-8"?>
<!-- Generated by Pixelmator Pro 3.7.1 -->
<svg width="521" height="372" viewBox="0 0 521 372" xmlns="http://www.w3.org/2000/svg">
    <g id="Ebene-1">
        <path id="Path" fill="#f9c623" stroke="none" d="M 92.670006 8.519165 C 124.983734 8.519165 151.190414 34.713745 151.190414 67.040009 C 151.190414 88.747925 141.127502 107.587494 124.847488 117.800842 C 124.528328 118.002075 124.298332 118.305405 124.298332 118.699997 C 124.298332 119.416245 124.863762 119.597092 124.902481 119.613342 C 146.020844 127.78833 159.273315 149.35376 159.273315 174.398743 C 159.273315 206.730835 133.058746 232.929169 100.742928 232.929169 L 23.459988 232.912918 C 18.974159 232.912918 15.336241 229.273346 15.336241 224.797485 L 15.336241 16.641235 C 15.336241 12.152924 18.974159 8.519165 23.459988 8.519165 L 92.670006 8.519165 Z"/>
        <path id="path1" fill="#356f82" stroke="none" d="M 64.373764 193.18541 C 63.342491 193.18541 62.459579 192.302505 62.459579 191.270828 L 62.459579 144.345001 C 62.459579 143.313324 63.342491 142.430405 64.373764 142.430405 L 67.327927 142.430405 C 68.357513 142.430405 69.240425 143.313324 69.240425 144.345001 L 69.240425 165.133728 L 87.510406 165.133728 L 87.510406 144.345001 C 87.510406 143.313324 88.393318 142.430405 89.425003 142.430405 L 92.368744 142.430405 C 93.400429 142.430405 94.28334 143.313324 94.28334 144.345001 L 94.28334 191.270828 C 94.28334 192.302505 93.400429 193.18541 92.368744 193.18541 L 89.425003 193.18541 C 88.393318 193.18541 87.510406 192.302505 87.510406 191.270828 L 87.510406 171.096664 L 69.240425 171.096664 L 69.240425 191.270828 C 69.240425 192.302505 68.357513 193.18541 67.327927 193.18541 L 64.373764 193.18541 Z"/>
        <path id="path2" fill="#356f82" stroke="none" d="M 64.184586 98.832916 C 63.155411 98.832916 62.262074 97.942078 62.262074 96.910431 L 62.262074 49.976685 C 62.262074 48.944977 63.155411 48.062073 64.184586 48.062073 L 92.409592 48.062073 C 93.440834 48.062073 94.323746 48.944977 94.323746 49.976685 L 94.323746 51.964172 C 94.323746 52.993744 93.440834 53.878754 92.409592 53.878754 L 69.044983 53.878754 L 69.044983 70.191254 L 88.948738 70.191254 C 89.980423 70.191254 90.863335 71.082489 90.863335 72.113739 L 90.863335 74.101685 C 90.863335 75.133331 89.980423 76.016235 88.948738 76.016235 L 69.044983 76.016235 L 69.044983 96.910431 C 69.044983 97.942078 68.162071 98.832916 67.130836 98.832916 L 64.184586 98.832916 Z"/>
        <g id="Group">
            <path id="path3" fill="#f9c623" stroke="none" d="M 16.174583 286.823334 C 15.73707 286.823334 15.360846 286.449158 15.360846 286.009583 L 15.360846 266.08374 C 15.360846 265.648346 15.73707 265.269989 16.174583 265.269989 L 21.710409 265.269989 C 26.247515 265.269989 27.903347 267.650421 27.903347 271.027496 C 27.903347 273.277496 27.342079 274.498352 25.276674 275.373352 C 27.372501 275.967072 28.873743 277.595001 28.873743 280.785004 C 28.873743 285.06958 26.057924 286.823334 22.054176 286.823334 L 16.174583 286.823334 Z M 18.207087 274.404572 L 21.773319 274.404572 C 24.306248 274.404572 24.869995 273.342926 24.869995 271.088318 C 24.869995 268.838318 24.14959 267.678741 21.616663 267.678741 L 18.207087 267.678741 L 18.207087 274.404572 Z M 18.239574 284.414581 L 21.742929 284.414581 C 24.745827 284.414581 25.807903 283.258728 25.807903 280.630432 C 25.807903 278.03418 24.839573 276.846252 21.867098 276.846252 L 18.239574 276.846252 L 18.239574 284.414581 Z"/>
            <path id="path4" fill="#f9c623" stroke="none" d="M 40.124588 287.230408 C 36.027096 287.230408 33.712082 284.854156 33.712082 278.970428 C 33.712082 273.029602 36.151264 270.746674 39.843765 270.746674 C 43.565002 270.746674 45.692902 272.87085 45.692902 278.535004 L 45.692902 279.096252 C 45.692902 279.377075 45.473335 279.59668 45.192509 279.59668 L 36.590843 279.59668 C 36.651657 283.881653 37.591663 284.94751 40.187912 284.94751 C 41.532497 284.94751 42.409592 284.540833 43.221264 283.975006 C 43.597488 283.694153 44.12875 283.787933 44.378738 284.133759 L 44.879166 284.788757 C 45.129601 285.134583 45.066658 285.667908 44.692085 285.915833 C 43.410412 286.823334 42.096249 287.230408 40.124588 287.230408 Z M 39.780823 272.87085 C 37.966267 272.87085 36.840836 273.810852 36.621235 277.566254 L 42.846661 277.566254 C 42.846661 273.965393 42.032925 272.87085 39.780823 272.87085 Z"/>
            <path id="path5" fill="#f9c623" stroke="none" d="M 51.953331 286.823334 C 51.515846 286.823334 51.139591 286.449158 51.139591 286.009583 L 51.139591 271.963318 C 51.139591 271.527924 51.515846 271.153748 51.953331 271.153748 L 52.421265 271.153748 C 52.891235 271.153748 53.297916 271.495422 53.391663 271.963318 L 53.672485 273.371246 C 54.829994 271.934998 56.268326 270.868744 58.083324 270.868744 C 58.176659 270.868744 58.302925 270.868744 58.396671 270.901245 C 58.522907 270.933746 58.64666 271.055847 58.616238 271.182068 L 58.396671 273.371246 C 58.366249 273.590851 58.146236 273.77832 57.896248 273.749573 C 57.73959 273.717102 57.552097 273.717102 57.395409 273.717102 C 55.957077 273.717102 54.986683 274.25 53.829174 275.312073 L 53.829174 286.009583 C 53.829174 286.449158 53.454571 286.823334 53.017502 286.823334 L 51.953331 286.823334 Z"/>
            <path id="path6" fill="#f9c623" stroke="none" d="M 64.253754 286.823334 C 63.816658 286.823334 63.439987 286.449158 63.439987 286.009583 L 63.439987 271.963318 C 63.439987 271.527924 63.816658 271.153748 64.253754 271.153748 L 64.721664 271.153748 C 65.191666 271.153748 65.598755 271.495422 65.692505 271.934998 L 65.94249 273.090424 C 67.320007 271.714996 68.882507 270.746674 70.727905 270.746674 C 72.980003 270.746674 74.513733 271.902496 74.513733 274.563324 L 74.513733 286.009583 C 74.513733 286.449158 74.137512 286.823334 73.699997 286.823334 L 72.636238 286.823334 C 72.198753 286.823334 71.82415 286.449158 71.82415 286.009583 L 71.82415 275.405823 C 71.82415 273.623322 71.323761 273.122925 69.915848 273.122925 C 68.664597 273.122925 67.256653 273.997925 66.12957 274.998749 L 66.12957 286.009583 C 66.12957 286.449158 65.755409 286.823334 65.317932 286.823334 L 64.253754 286.823334 Z"/>
            <path id="path7" fill="#f9c623" stroke="none" d="M 86.370834 287.230408 C 82.273338 287.230408 79.958328 284.854156 79.958328 278.970428 C 79.958328 273.029602 82.399574 270.746674 86.090416 270.746674 C 89.811241 270.746674 91.93959 272.87085 91.93959 278.535004 L 91.93959 279.096252 C 91.93959 279.377075 91.719574 279.59668 91.439163 279.59668 L 82.83709 279.59668 C 82.899994 283.881653 83.837906 284.94751 86.434158 284.94751 C 87.77874 284.94751 88.65374 284.540833 89.467506 283.975006 C 89.843765 283.694153 90.374992 283.787933 90.625015 284.133759 L 91.125816 284.788757 C 91.375839 285.134583 91.312927 285.667908 90.938324 285.915833 C 89.654587 286.823334 88.342491 287.230408 86.370834 287.230408 Z M 86.027092 272.87085 C 84.212509 272.87085 83.087486 273.810852 82.867508 277.566254 L 89.093346 277.566254 C 89.093346 273.965393 88.279579 272.87085 86.027092 272.87085 Z"/>
            <path id="path8" fill="#f9c623" stroke="none" d="M 98.201668 286.823334 C 97.764153 286.823334 97.387932 286.449158 97.387932 286.009583 L 97.387932 271.963318 C 97.387932 271.527924 97.764153 271.153748 98.201668 271.153748 L 98.669571 271.153748 C 99.13958 271.153748 99.546669 271.495422 99.639999 271.963318 L 99.92083 273.371246 C 101.078331 271.934998 102.516663 270.868744 104.331665 270.868744 C 104.425415 270.868744 104.551262 270.868744 104.645012 270.901245 C 104.771248 270.933746 104.895004 271.055847 104.864578 271.182068 L 104.645012 273.371246 C 104.614586 273.590851 104.394577 273.77832 104.144585 273.749573 C 103.98793 273.717102 103.800819 273.717102 103.644165 273.717102 C 102.205414 273.717102 101.234993 274.25 100.077515 275.312073 L 100.077515 286.009583 C 100.077515 286.449158 99.703323 286.823334 99.265846 286.823334 L 98.201668 286.823334 Z"/>
            <path id="path9" fill="#f9c623" stroke="none" d="M 118.51207 286.823334 C 118.074593 286.823334 117.700432 286.449158 117.700432 286.009583 L 117.700432 266.08374 C 117.700432 265.648346 118.074593 265.269989 118.51207 265.269989 L 127.616676 265.269989 C 128.054153 265.269989 128.428345 265.648346 128.428345 266.08374 L 128.428345 266.929993 C 128.428345 267.365417 128.054153 267.743744 127.616676 267.743744 L 120.577095 267.743744 L 120.577095 274.278748 L 126.145409 274.278748 C 126.582924 274.278748 126.959595 274.657074 126.959595 275.092499 L 126.959595 275.938751 C 126.959595 276.374176 126.582924 276.752502 126.145409 276.752502 L 120.577095 276.752502 L 120.577095 286.009583 C 120.577095 286.449158 120.202904 286.823334 119.765419 286.823334 L 118.51207 286.823334 Z"/>
            <path id="path10" fill="#f9c623" stroke="none" d="M 136.484985 287.230408 C 133.482086 287.230408 131.762924 285.574158 131.762924 282.351685 C 131.762924 278.782898 133.858337 277.127075 138.987488 277.127075 L 140.271271 277.127075 L 140.271271 275.90625 C 140.271271 274.156677 140.051254 273.090424 138.019165 273.090424 C 136.674164 273.090424 135.360001 273.5625 134.171661 274.156677 C 133.765015 274.34375 133.264175 274.184998 133.077087 273.77832 L 132.763748 273.184143 C 132.576675 272.7771 132.733322 272.276672 133.138321 272.057068 C 134.546265 271.30835 136.173737 270.746674 138.299576 270.746674 C 141.365829 270.746674 142.960846 272.12207 142.960846 275.466675 L 142.960846 286.009583 C 142.960846 286.449158 142.586243 286.823334 142.147079 286.823334 L 141.679169 286.823334 C 141.209167 286.823334 140.771652 286.51001 140.645416 286.042084 L 140.427917 285.260834 C 139.520401 286.262085 138.206238 287.230408 136.484985 287.230408 Z M 136.830826 285.102081 C 138.36293 285.102081 139.520401 284.068756 140.271271 283.226257 L 140.271271 279.063751 L 139.333328 279.063751 C 135.390427 279.063751 134.639587 280.064575 134.639587 282.351685 C 134.639587 284.414581 135.296677 285.102081 136.830826 285.102081 Z"/>
            <path id="path11" fill="#f9c623" stroke="none" d="M 154.632935 287.230408 C 150.628738 287.230408 148.407089 284.601654 148.407089 278.970428 C 148.407089 272.99707 150.785431 270.746674 154.663315 270.746674 C 156.164597 270.746674 157.355011 271.088318 158.479996 271.99585 C 158.856247 272.276672 158.887085 272.7771 158.604156 273.122925 L 158.10376 273.749573 C 157.79248 274.091675 157.291687 274.124176 156.947906 273.843323 C 156.258347 273.310425 155.601257 273.029602 154.56958 273.029602 C 152.193344 273.029602 151.285828 274.058746 151.285828 278.970428 C 151.285828 283.787933 152.287079 284.94751 154.789581 284.94751 C 155.757919 284.94751 156.414993 284.573334 157.072083 284.039978 C 157.415848 283.759583 157.949173 283.787933 158.229584 284.133759 L 158.793335 284.727905 C 159.104584 285.04126 159.074158 285.574158 158.730423 285.85498 C 157.698746 286.762512 156.414993 287.230408 154.632935 287.230408 Z"/>
            <path id="path12" fill="#f9c623" stroke="none" d="M 164.96373 286.823334 C 164.524567 286.823334 164.149994 286.449158 164.149994 286.009583 L 164.149994 264.989166 C 164.149994 264.553741 164.524567 264.175415 164.96373 264.175415 L 166.025848 264.175415 C 166.465424 264.175415 166.839584 264.553741 166.839584 264.989166 L 166.839584 272.90332 C 168.217072 271.621643 169.625015 270.746674 171.437912 270.746674 C 173.690018 270.746674 175.224152 271.902496 175.224152 274.563324 L 175.224152 286.009583 C 175.224152 286.449158 174.847488 286.823334 174.410004 286.823334 L 173.346252 286.823334 C 172.908768 286.823334 172.532501 286.449158 172.532501 286.009583 L 172.532501 275.405823 C 172.532501 273.623322 172.031677 273.122925 170.625824 273.122925 C 169.374573 273.122925 167.967072 273.997925 166.839584 274.998749 L 166.839584 286.009583 C 166.839584 286.449158 166.465424 286.823334 166.025848 286.823334 L 164.96373 286.823334 Z"/>
            <path id="path13" fill="#f9c623" stroke="none" d="M 182.297913 286.823334 C 181.858337 286.823334 181.484177 286.449158 181.484177 286.009583 L 181.484177 264.989166 C 181.484177 264.553741 181.858337 264.175415 182.297913 264.175415 L 183.359985 264.175415 C 183.799591 264.175415 184.173752 264.553741 184.173752 264.989166 L 184.173752 272.90332 C 185.551239 271.621643 186.959152 270.746674 188.771667 270.746674 C 191.023743 270.746674 192.557922 271.902496 192.557922 274.563324 L 192.557922 286.009583 C 192.557922 286.449158 192.181671 286.823334 191.744186 286.823334 L 190.680008 286.823334 C 190.242493 286.823334 189.866241 286.449158 189.866241 286.009583 L 189.866241 275.405823 C 189.866241 273.623322 189.365845 273.122925 187.960007 273.122925 C 186.708755 273.122925 185.300842 273.997925 184.173752 274.998749 L 184.173752 286.009583 C 184.173752 286.449158 183.799591 286.823334 183.359985 286.823334 L 182.297913 286.823334 Z"/>
            <path id="path14" fill="#f9c623" stroke="none" d="M 204.433334 287.230408 C 200.616653 287.230408 198.020401 284.854156 198.020401 278.970428 C 198.020401 273.090424 200.555405 270.746674 204.370422 270.746674 C 208.187088 270.746674 210.815414 273.090424 210.815414 278.970428 C 210.815414 284.854156 208.25 287.230408 204.433334 287.230408 Z M 204.433334 285.102081 C 206.811661 285.102081 207.936661 283.820404 207.936661 279.002899 C 207.936661 274.156677 206.77916 272.87085 204.402924 272.87085 C 202.024582 272.87085 200.899582 274.124176 200.899582 278.970428 C 200.899582 283.787933 202.057083 285.102081 204.433334 285.102081 Z"/>
            <path id="path15" fill="#f9c623" stroke="none" d="M 221.769592 287.230408 C 217.765427 287.230408 215.543747 284.601654 215.543747 278.970428 C 215.543747 272.99707 217.922089 270.746674 221.800003 270.746674 C 223.301254 270.746674 224.489594 271.088318 225.616653 271.99585 C 225.990829 272.276672 226.023331 272.7771 225.742905 273.122925 L 225.242081 273.749573 C 224.929169 274.091675 224.428329 274.124176 224.084579 273.843323 C 223.394989 273.310425 222.73999 273.029602 221.706238 273.029602 C 219.330002 273.029602 218.422501 274.058746 218.422501 278.970428 C 218.422501 283.787933 219.423752 284.94751 221.925827 284.94751 C 222.894592 284.94751 223.551666 284.573334 224.208755 284.039978 C 224.552505 283.759583 225.085419 283.787933 225.366257 284.133759 L 225.930008 284.727905 C 226.243332 285.04126 226.210831 285.574158 225.866669 285.85498 C 224.835403 286.762512 223.551666 287.230408 221.769592 287.230408 Z"/>
            <path id="path16" fill="#f9c623" stroke="none" d="M 232.100418 286.823334 C 231.66333 286.823334 231.286667 286.449158 231.286667 286.009583 L 231.286667 264.989166 C 231.286667 264.553741 231.66333 264.175415 232.100418 264.175415 L 233.164581 264.175415 C 233.602081 264.175415 233.976257 264.553741 233.976257 264.989166 L 233.976257 272.90332 C 235.35376 271.621643 236.761658 270.746674 238.574585 270.746674 C 240.826675 270.746674 242.360413 271.902496 242.360413 274.563324 L 242.360413 286.009583 C 242.360413 286.449158 241.984177 286.823334 241.546661 286.823334 L 240.48291 286.823334 C 240.045425 286.823334 239.670837 286.449158 239.670837 286.009583 L 239.670837 275.405823 C 239.670837 273.623322 239.170425 273.122925 237.762497 273.122925 C 236.511246 273.122925 235.103333 273.997925 233.976257 274.998749 L 233.976257 286.009583 C 233.976257 286.449158 233.602081 286.823334 233.164581 286.823334 L 232.100418 286.823334 Z"/>
            <path id="path17" fill="#f9c623" stroke="none" d="M 252.333755 287.230408 C 250.612488 287.230408 248.956665 286.668762 247.798737 286.009583 C 247.422501 285.761261 247.29834 285.260834 247.515839 284.882507 L 247.862076 284.28833 C 248.07959 283.881653 248.579987 283.759583 248.956665 283.975006 C 250.050827 284.601654 251.176239 284.976257 252.460007 284.976257 C 254.585831 284.976257 255.24292 284.133759 255.24292 282.665009 C 255.24292 280.911255 254.429169 280.569153 251.926682 279.877502 C 249.737915 279.283325 247.922913 278.12793 247.922913 275.03125 C 247.922913 272.748749 249.393753 270.746674 252.834152 270.746674 C 254.335831 270.746674 255.462921 270.994995 256.463745 271.401672 C 256.87085 271.589172 257.057922 272.0896 256.87085 272.496246 L 256.587921 273.122925 C 256.400848 273.529999 255.930832 273.749573 255.493332 273.5625 C 254.585831 273.155426 253.867905 273.029602 252.927917 273.029602 C 251.239166 273.029602 250.457916 273.623322 250.457916 274.966248 C 250.457916 276.439148 251.112915 276.813751 253.271667 277.407928 C 255.68042 278.062927 257.871674 279.002899 257.871674 282.538757 C 257.871674 285.790009 256.02417 287.230408 252.333755 287.230408 Z"/>
            <path id="path18" fill="#f9c623" stroke="none" d="M 268.672913 287.230408 C 264.668762 287.230408 262.447083 284.601654 262.447083 278.970428 C 262.447083 272.99707 264.825409 270.746674 268.703339 270.746674 C 270.205017 270.746674 271.392914 271.088318 272.519989 271.99585 C 272.894592 272.276672 272.927094 272.7771 272.64624 273.122925 L 272.145844 273.749573 C 271.832489 274.091675 271.332092 274.124176 270.988342 273.843323 C 270.29834 273.310425 269.643341 273.029602 268.609589 273.029602 C 266.233337 273.029602 265.326233 274.058746 265.326233 278.970428 C 265.326233 283.787933 266.327087 284.94751 268.82959 284.94751 C 269.797913 284.94751 270.454987 284.573334 271.112091 284.039978 C 271.456268 283.759583 271.989166 283.787933 272.269989 284.133759 L 272.833344 284.727905 C 273.146667 285.04126 273.114166 285.574158 272.770416 285.85498 C 271.738739 286.762512 270.454987 287.230408 268.672913 287.230408 Z"/>
            <path id="path19" fill="#f9c623" stroke="none" d="M 279.004181 286.823334 C 278.56665 286.823334 278.19043 286.449158 278.19043 286.009583 L 278.19043 264.989166 C 278.19043 264.553741 278.56665 264.175415 279.004181 264.175415 L 280.067932 264.175415 C 280.505402 264.175415 280.880005 264.553741 280.880005 264.989166 L 280.880005 272.90332 C 282.25708 271.621643 283.665009 270.746674 285.477936 270.746674 C 287.72998 270.746674 289.26416 271.902496 289.26416 274.563324 L 289.26416 286.009583 C 289.26416 286.449158 288.887512 286.823334 288.450409 286.823334 L 287.386261 286.823334 C 286.94873 286.823334 286.574585 286.449158 286.574585 286.009583 L 286.574585 275.405823 C 286.574585 273.623322 286.074158 273.122925 284.66626 273.122925 C 283.415009 273.122925 282.00708 273.997925 280.880005 274.998749 L 280.880005 286.009583 C 280.880005 286.449158 280.505402 286.823334 280.067932 286.823334 L 279.004181 286.823334 Z"/>
            <path id="path20" fill="#f9c623" stroke="none" d="M 299.457092 287.230408 C 297.202911 287.230408 295.452911 285.94873 295.452911 283.226257 L 295.452911 271.963318 C 295.452911 271.527924 295.827484 271.153748 296.264984 271.153748 L 297.328766 271.153748 C 297.766266 271.153748 298.142487 271.527924 298.142487 271.963318 L 298.142487 282.380005 C 298.142487 284.227509 298.76709 284.854156 300.174988 284.854156 C 301.426239 284.854156 302.77124 284.007507 303.928741 282.974182 L 303.928741 271.963318 C 303.928741 271.527924 304.304993 271.153748 304.742493 271.153748 L 305.806671 271.153748 C 306.244171 271.153748 306.618347 271.527924 306.618347 271.963318 L 306.618347 286.009583 C 306.618347 286.449158 306.244171 286.823334 305.806671 286.823334 L 305.33667 286.823334 C 304.866669 286.823334 304.46167 286.477509 304.366241 286.042084 L 304.115845 284.882507 C 302.803741 286.229187 301.302094 287.230408 299.457092 287.230408 Z"/>
            <path id="path21" fill="#f9c623" stroke="none" d="M 315.84082 287.136658 C 313.838745 287.136658 312.994598 286.070831 312.994598 283.320007 L 312.994598 264.989166 C 312.994598 264.553741 313.368744 264.175415 313.808319 264.175415 L 314.870422 264.175415 C 315.309998 264.175415 315.684174 264.553741 315.684174 264.989166 L 315.684174 283.820404 C 315.684174 284.601654 316.027924 284.915009 316.778748 284.915009 C 316.904999 284.915009 317.029175 284.915009 317.122498 284.882507 C 317.279175 284.882507 317.435822 284.976257 317.466248 285.134583 L 317.622925 286.042084 C 317.716675 286.477509 317.435822 286.917084 316.998322 287.010437 C 316.62207 287.071655 316.214996 287.136658 315.84082 287.136658 Z"/>
            <path id="path22" fill="#f9c623" stroke="none" d="M 327.870819 287.230408 C 323.773346 287.230408 321.457916 284.854156 321.457916 278.970428 C 321.457916 273.029602 323.899597 270.746674 327.589996 270.746674 C 331.311249 270.746674 333.439178 272.87085 333.439178 278.535004 L 333.439178 279.096252 C 333.439178 279.377075 333.219604 279.59668 332.938751 279.59668 L 324.337097 279.59668 C 324.399994 283.881653 325.337921 284.94751 327.933746 284.94751 C 329.278748 284.94751 330.153748 284.540833 330.967499 283.975006 C 331.34375 283.694153 331.874603 283.787933 332.125 284.133759 L 332.625427 284.788757 C 332.875824 285.134583 332.8125 285.667908 332.438354 285.915833 C 331.154572 286.823334 329.842499 287.230408 327.870819 287.230408 Z M 327.527069 272.87085 C 325.712097 272.87085 324.587097 273.810852 324.367493 277.566254 L 330.592926 277.566254 C 330.592926 273.965393 329.779175 272.87085 327.527069 272.87085 Z"/>
            <path id="path23" fill="#f9c623" stroke="none" d="M 16.485832 324.323334 C 16.048317 324.323334 15.67416 323.949158 15.67416 323.509583 L 15.67416 303.58374 C 15.67416 303.148315 16.048317 302.769989 16.485832 302.769989 L 17.739182 302.769989 C 18.17625 302.769989 18.550823 303.148315 18.550823 303.58374 L 18.550823 311.591675 L 26.308327 311.591675 L 26.308327 303.58374 C 26.308327 303.148315 26.684584 302.769989 27.122097 302.769989 L 28.373318 302.769989 C 28.810833 302.769989 29.187088 303.148315 29.187088 303.58374 L 29.187088 323.509583 C 29.187088 323.949158 28.810833 324.323334 28.373318 324.323334 L 27.122097 324.323334 C 26.684584 324.323334 26.308327 323.949158 26.308327 323.509583 L 26.308327 314.126648 L 18.550823 314.126648 L 18.550823 323.509583 C 18.550823 323.949158 18.17625 324.323334 17.739182 324.323334 L 16.485832 324.323334 Z"/>
            <path id="path24" fill="#f9c623" stroke="none" d="M 39.662914 324.730408 C 36.659985 324.730408 34.94083 323.074158 34.94083 319.851654 C 34.94083 316.282898 37.036243 314.627075 42.165421 314.627075 L 43.449162 314.627075 L 43.449162 313.40625 C 43.449162 311.656677 43.229179 310.590424 41.196678 310.590424 C 39.852093 310.590424 38.53793 311.0625 37.349586 311.656677 C 36.942909 311.84375 36.44207 311.684998 36.254993 311.27832 L 35.941677 310.684174 C 35.754601 310.2771 35.911255 309.776672 36.31625 309.557098 C 37.724159 308.808319 39.351669 308.246674 41.477505 308.246674 C 44.543758 308.246674 46.138744 309.62207 46.138744 312.966675 L 46.138744 323.509583 C 46.138744 323.949158 45.764175 324.323334 45.325008 324.323334 L 44.857071 324.323334 C 44.38707 324.323334 43.949585 324.01001 43.823318 323.542084 L 43.60582 322.760834 C 42.698334 323.762085 41.384171 324.730408 39.662914 324.730408 Z M 40.008751 322.602081 C 41.540829 322.602081 42.698334 321.568756 43.449162 320.726257 L 43.449162 316.563751 L 42.511253 316.563751 C 38.568321 316.563751 37.817493 317.564575 37.817493 319.851654 C 37.817493 321.914581 38.474575 322.602081 40.008751 322.602081 Z"/>
            <path id="path25" fill="#f9c623" stroke="none" d="M 56.300846 324.730408 C 54.046677 324.730408 52.297096 323.448761 52.297096 320.726257 L 52.297096 309.463318 C 52.297096 309.027924 52.671669 308.653748 53.108738 308.653748 L 54.172913 308.653748 C 54.610424 308.653748 54.986683 309.027924 54.986683 309.463318 L 54.986683 319.880005 C 54.986683 321.727509 55.611244 322.354156 57.019154 322.354156 C 58.270405 322.354156 59.615402 321.507507 60.772911 320.474182 L 60.772911 309.463318 C 60.772911 309.027924 61.149166 308.653748 61.586681 308.653748 L 62.650822 308.653748 C 63.088337 308.653748 63.462494 309.027924 63.462494 309.463318 L 63.462494 323.509583 C 63.462494 323.949158 63.088337 324.323334 62.650822 324.323334 L 62.18082 324.323334 C 61.71085 324.323334 61.305824 323.977509 61.210423 323.542084 L 60.959988 322.382507 C 59.647923 323.729187 58.146236 324.730408 56.300846 324.730408 Z"/>
            <path id="path26" fill="#f9c623" stroke="none" d="M 69.277077 310.842926 C 68.839592 310.842926 68.465408 310.464172 68.465408 310.029175 L 68.465408 309.463318 C 68.465408 309.027924 68.839592 308.653748 69.277077 308.653748 L 70.247505 308.653748 L 70.247505 305.430847 C 70.247505 304.959167 70.59124 304.552094 71.028755 304.429993 L 72.155838 304.210419 C 72.562927 304.116669 72.937088 304.429993 72.937088 304.837097 L 72.937088 308.653748 L 75.345848 308.653748 C 75.783333 308.653748 76.159996 309.027924 76.159996 309.463318 L 76.159996 310.029175 C 76.159996 310.464172 75.783333 310.842926 75.345848 310.842926 L 72.937088 310.842926 L 72.937088 321.133331 C 72.937088 322.134155 73.344177 322.56958 74.220833 322.56958 C 74.595398 322.56958 74.908745 322.508759 75.189575 322.415009 C 75.596252 322.288757 76.033768 322.54126 76.159996 322.947937 L 76.283752 323.415833 C 76.377502 323.855408 76.159996 324.290833 75.722488 324.449585 C 75.222092 324.604156 74.65834 324.730408 74.001259 324.730408 C 71.873329 324.730408 70.247505 323.883759 70.247505 321.381653 L 70.247505 310.842926 L 69.277077 310.842926 Z"/>
            <path id="path27" fill="#f9c623" stroke="none" d="M 86.542076 324.730408 C 82.444588 324.730408 80.129158 322.354156 80.129158 316.470398 C 80.129158 310.529602 82.570404 308.246674 86.261253 308.246674 C 89.982079 308.246674 92.110428 310.370819 92.110428 316.035004 L 92.110428 316.596252 C 92.110428 316.877075 91.890823 317.09668 91.610001 317.09668 L 83.007919 317.09668 C 83.071243 321.381653 84.009155 322.44751 86.604988 322.44751 C 87.949989 322.44751 88.82457 322.040833 89.638344 321.475006 C 90.015015 321.194153 90.54583 321.287903 90.796265 321.633759 L 91.296654 322.288757 C 91.546677 322.634583 91.483765 323.167908 91.109573 323.415833 C 89.825424 324.323334 88.513321 324.730408 86.542076 324.730408 Z M 86.197929 310.370819 C 84.383339 310.370819 83.258324 311.310852 83.038345 315.066254 L 89.264153 315.066254 C 89.264153 311.465424 88.450417 310.370819 86.197929 310.370819 Z"/>
            <path id="path28" fill="#f9c623" stroke="none" d="M 110.727928 324.730408 C 106.630402 324.730408 104.315422 322.354156 104.315422 316.470398 C 104.315422 310.529602 106.756668 308.246674 110.447517 308.246674 C 114.168343 308.246674 116.296654 310.370819 116.296654 316.035004 L 116.296654 316.596252 C 116.296654 316.877075 116.076675 317.09668 115.796265 317.09668 L 107.194153 317.09668 C 107.257095 321.381653 108.195 322.44751 110.791252 322.44751 C 112.135834 322.44751 113.010834 322.040833 113.82457 321.475006 C 114.200829 321.194153 114.732086 321.287903 114.982079 321.633759 L 115.482918 322.288757 C 115.732903 322.634583 115.669998 323.167908 115.295425 323.415833 C 114.01165 324.323334 112.699585 324.730408 110.727928 324.730408 Z M 110.384163 310.370819 C 108.569572 310.370819 107.444588 311.310852 107.224571 315.066254 L 113.450417 315.066254 C 113.450417 311.465424 112.636673 310.370819 110.384163 310.370819 Z M 108.758751 306.305847 C 108.351654 306.525421 107.851265 306.366669 107.631668 305.992493 L 107.475006 305.71167 C 107.257095 305.337494 107.350838 304.804169 107.724998 304.552094 L 112.386238 301.333344 C 112.730011 301.081238 113.2304 301.207489 113.417923 301.581665 L 114.107498 302.769989 C 114.294571 303.148315 114.137917 303.648743 113.763756 303.864563 L 108.758751 306.305847 Z"/>
            <path id="path29" fill="#f9c623" stroke="none" d="M 127.201668 324.730408 C 123.197502 324.730408 120.975822 322.101685 120.975822 316.470398 C 120.975822 310.49707 123.354164 308.246674 127.232086 308.246674 C 128.733337 308.246674 129.921677 308.588318 131.048752 309.49585 C 131.422913 309.776672 131.455841 310.2771 131.174988 310.622925 L 130.674591 311.249573 C 130.361252 311.591675 129.860413 311.624176 129.516678 311.343323 C 128.827072 310.810425 128.172089 310.529602 127.138344 310.529602 C 124.76207 310.529602 123.854584 311.558746 123.854584 316.470398 C 123.854584 321.287903 124.85582 322.44751 127.358322 322.44751 C 128.326645 322.44751 128.983765 322.073334 129.640854 321.540009 C 129.984589 321.259583 130.517914 321.287903 130.798325 321.633759 L 131.362076 322.227905 C 131.675415 322.54126 131.642929 323.074158 131.299164 323.35498 C 130.267502 324.262512 128.983765 324.730408 127.201668 324.730408 Z"/>
            <path id="path30" fill="#f9c623" stroke="none" d="M 142.006668 324.730408 C 138.190002 324.730408 135.59375 322.354156 135.59375 316.470398 C 135.59375 310.590424 138.128738 308.246674 141.943344 308.246674 C 145.760422 308.246674 148.388748 310.590424 148.388748 316.470398 C 148.388748 322.354156 145.823334 324.730408 142.006668 324.730408 Z M 142.006668 322.602081 C 144.384995 322.602081 145.509995 321.320435 145.509995 316.50293 C 145.509995 311.656677 144.352509 310.370819 141.976242 310.370819 C 139.5979 310.370819 138.472504 311.624176 138.472504 316.470398 C 138.472504 321.287903 139.630432 322.602081 142.006668 322.602081 Z"/>
            <path id="path31" fill="#f9c623" stroke="none" d="M 156.756668 324.636658 C 154.755005 324.636658 153.910431 323.570831 153.910431 320.820007 L 153.910431 302.489166 C 153.910431 302.053741 154.285004 301.675415 154.722061 301.675415 L 155.78624 301.675415 C 156.223755 301.675415 156.600006 302.053741 156.600006 302.489166 L 156.600006 321.320435 C 156.600006 322.101685 156.943741 322.415009 157.69458 322.415009 C 157.820847 322.415009 157.945007 322.415009 158.038345 322.382507 C 158.195007 322.382507 158.351654 322.476257 158.382492 322.634583 L 158.539185 323.542084 C 158.632507 323.977509 158.351654 324.417084 157.914581 324.510437 C 157.537918 324.571655 157.131241 324.636658 156.756668 324.636658 Z"/>
            <path id="path32" fill="#f9c623" stroke="none" d="M 168.786667 324.730408 C 164.689178 324.730408 162.374161 322.354156 162.374161 316.470398 C 162.374161 310.529602 164.813339 308.246674 168.505844 308.246674 C 172.227081 308.246674 174.355423 310.370819 174.355423 316.035004 L 174.355423 316.596252 C 174.355423 316.877075 174.135406 317.09668 173.854584 317.09668 L 165.252914 317.09668 C 165.313736 321.381653 166.253738 322.44751 168.849991 322.44751 C 170.19458 322.44751 171.071671 322.040833 171.883347 321.475006 C 172.259598 321.194153 172.790833 321.287903 173.040848 321.633759 L 173.541245 322.288757 C 173.791672 322.634583 173.72876 323.167908 173.354156 323.415833 C 172.072495 324.323334 170.758331 324.730408 168.786667 324.730408 Z M 168.442932 310.370819 C 166.628342 310.370819 165.502914 311.310852 165.28334 315.066254 L 171.509155 315.066254 C 171.509155 311.465424 170.695007 310.370819 168.442932 310.370819 Z"/>
            <path id="path33" fill="#f9c623" stroke="none" d="M 191.221252 324.730408 C 189.5 324.730408 187.844162 324.168762 186.686249 323.509583 C 186.309982 323.261261 186.185822 322.760834 186.403763 322.382507 L 186.749603 321.78833 C 186.967072 321.381653 187.467499 321.259583 187.844162 321.475006 C 188.938751 322.101685 190.063751 322.476257 191.347488 322.476257 C 193.473328 322.476257 194.130402 321.633759 194.130402 320.165009 C 194.130402 318.411255 193.316666 318.069153 190.814575 317.377502 C 188.625412 316.783325 186.81041 315.62793 186.81041 312.53125 C 186.81041 310.248749 188.281265 308.246674 191.72168 308.246674 C 193.223328 308.246674 194.350418 308.494995 195.351257 308.901672 C 195.758331 309.089172 195.945404 309.589569 195.758331 309.996246 L 195.475403 310.622925 C 195.288315 311.029999 194.818314 311.249573 194.380844 311.0625 C 193.473328 310.655426 192.755432 310.529602 191.815414 310.529602 C 190.126648 310.529602 189.345398 311.123352 189.345398 312.466248 C 189.345398 313.939148 190.000427 314.313751 192.159164 314.907898 C 194.567917 315.562927 196.759171 316.50293 196.759171 320.038757 C 196.759171 323.290009 194.911652 324.730408 191.221252 324.730408 Z"/>
            <path id="path34" fill="#f9c623" stroke="none" d="M 202.848343 330.609985 C 202.411255 330.609985 202.034576 330.23584 202.034576 329.796265 L 202.034576 309.463318 C 202.034576 309.027924 202.411255 308.653748 202.848343 308.653748 L 203.316254 308.653748 C 203.78624 308.653748 204.223755 308.995422 204.317505 309.434998 L 204.56749 310.435822 C 205.757919 309.121674 207.259155 308.246674 208.917511 308.246674 C 211.920425 308.246674 214.266251 309.935425 214.266251 316.376678 C 214.266251 322.260406 212.544998 324.730408 208.884995 324.730408 C 207.163742 324.730408 205.725418 323.949158 204.724167 322.976654 L 204.724167 329.796265 C 204.724167 330.23584 204.349991 330.609985 203.912491 330.609985 L 202.848343 330.609985 Z M 208.197083 322.415009 C 210.418747 322.415009 211.387512 321.601257 211.387512 316.563751 C 211.387512 311.530426 210.573334 310.557922 208.447495 310.557922 C 206.915421 310.557922 205.851257 311.343323 204.724167 312.405426 L 204.724167 320.880829 C 205.631668 321.76001 206.882919 322.415009 208.197083 322.415009 Z"/>
            <path id="path35" fill="#f9c623" stroke="none" d="M 225.559586 324.730408 C 221.462082 324.730408 219.147079 322.354156 219.147079 316.470398 C 219.147079 310.529602 221.588333 308.246674 225.278763 308.246674 C 229 308.246674 231.127914 310.370819 231.127914 316.035004 L 231.127914 316.596252 C 231.127914 316.877075 230.908325 317.09668 230.627502 317.09668 L 222.025833 317.09668 C 222.088745 321.381653 223.026672 322.44751 225.622925 322.44751 C 226.967514 322.44751 227.842499 322.040833 228.656265 321.475006 C 229.032501 321.194153 229.563736 321.287903 229.813751 321.633759 L 230.314178 322.288757 C 230.564575 322.634583 230.501663 323.167908 230.127075 323.415833 C 228.843338 324.323334 227.53125 324.730408 225.559586 324.730408 Z M 225.215836 310.370819 C 223.401245 310.370819 222.275833 311.310852 222.056244 315.066254 L 228.281677 315.066254 C 228.281677 311.465424 227.467911 310.370819 225.215836 310.370819 Z M 223.590424 306.305847 C 223.183334 306.525421 222.682922 306.366669 222.463333 305.992493 L 222.306656 305.71167 C 222.088745 305.337494 222.182495 304.804169 222.556671 304.552094 L 227.217911 301.333344 C 227.561661 301.081238 228.062088 301.207489 228.249161 301.581665 L 228.939163 302.769989 C 229.126251 303.148315 228.969589 303.648743 228.595001 303.864563 L 223.590424 306.305847 Z"/>
            <path id="path36" fill="#f9c623" stroke="none" d="M 242.051254 324.730408 C 238.047501 324.730408 235.825836 322.101685 235.825836 316.470398 C 235.825836 310.49707 238.204163 308.246674 242.082092 308.246674 C 243.583328 308.246674 244.773331 308.588318 245.898758 309.49585 C 246.274994 309.776672 246.30542 310.2771 246.022919 310.622925 L 245.522079 311.249573 C 245.210831 311.591675 244.710419 311.624176 244.366653 311.343323 C 243.677094 310.810425 243.019577 310.529602 241.988342 310.529602 C 239.612091 310.529602 238.70459 311.558746 238.70459 316.470398 C 238.70459 321.287903 239.705414 322.44751 242.207916 322.44751 C 243.176254 322.44751 243.83374 322.073334 244.490829 321.540009 C 244.834579 321.259583 245.367493 321.287903 245.648331 321.633759 L 246.212082 322.227905 C 246.523331 322.54126 246.492493 323.074158 246.148743 323.35498 C 245.117508 324.262512 243.83374 324.730408 242.051254 324.730408 Z"/>
            <path id="path37" fill="#f9c623" stroke="none" d="M 253.820831 324.323334 C 253.383743 324.323334 253.009171 323.949158 253.009171 323.509583 L 253.009171 310.749176 L 251.507919 310.49707 C 251.037918 310.435822 250.693741 310.029175 250.693741 309.557098 L 250.693741 309.463318 C 250.693741 309.027924 251.068329 308.653748 251.507919 308.653748 L 254.88501 308.653748 C 255.322495 308.653748 255.698746 309.027924 255.698746 309.463318 L 255.698746 323.509583 C 255.698746 323.949158 255.322495 324.323334 254.88501 324.323334 L 253.820831 324.323334 Z M 254.290833 305.744171 C 253.227081 305.744171 252.445831 304.897919 252.445831 303.835815 C 252.445831 302.741241 253.257492 301.89502 254.321671 301.89502 C 255.415833 301.89502 256.230011 302.70874 256.230011 303.835815 C 256.230011 304.897919 255.415833 305.744171 254.290833 305.744171 Z"/>
            <path id="path38" fill="#f9c623" stroke="none" d="M 265.688324 324.730408 C 262.685425 324.730408 260.964172 323.074158 260.964172 319.851654 C 260.964172 316.282898 263.05957 314.627075 268.190826 314.627075 L 269.472504 314.627075 L 269.472504 313.40625 C 269.472504 311.656677 269.252502 310.590424 267.220428 310.590424 C 265.875427 310.590424 264.561249 311.0625 263.372925 311.656677 C 262.966248 311.84375 262.465424 311.684998 262.27832 311.27832 L 261.964996 310.684174 C 261.777924 310.2771 261.932495 309.776672 262.3396 309.557098 C 263.747498 308.808319 265.375 308.246674 267.500824 308.246674 C 270.567078 308.246674 272.162079 309.62207 272.162079 312.966675 L 272.162079 323.509583 C 272.162079 323.949158 271.787506 324.323334 271.348328 324.323334 L 270.880402 324.323334 C 270.410431 324.323334 269.9729 324.01001 269.846649 323.542084 L 269.629181 322.760834 C 268.72168 323.762085 267.407501 324.730408 265.688324 324.730408 Z M 266.032104 322.602081 C 267.564178 322.602081 268.72168 321.568756 269.472504 320.726257 L 269.472504 316.563751 L 268.534576 316.563751 C 264.591675 316.563751 263.84082 317.564575 263.84082 319.851654 C 263.84082 321.914581 264.497925 322.602081 266.032104 322.602081 Z"/>
            <path id="path39" fill="#f9c623" stroke="none" d="M 281.284576 324.636658 C 279.282928 324.636658 278.438324 323.570831 278.438324 320.820007 L 278.438324 302.489166 C 278.438324 302.053741 278.812927 301.675415 279.250427 301.675415 L 280.314178 301.675415 C 280.751678 301.675415 281.127899 302.053741 281.127899 302.489166 L 281.127899 321.320435 C 281.127899 322.101685 281.472076 322.415009 282.222504 322.415009 C 282.348755 322.415009 282.4729 322.415009 282.566681 322.382507 C 282.723328 322.382507 282.880005 322.476257 282.910431 322.634583 L 283.067078 323.542084 C 283.1604 323.977509 282.880005 324.417084 282.442505 324.510437 C 282.065826 324.571655 281.65918 324.636658 281.284576 324.636658 Z"/>
            <path id="path40" fill="#f9c623" stroke="none" d="M 289.502075 324.323334 C 289.064575 324.323334 288.69043 323.949158 288.69043 323.509583 L 288.69043 310.749176 L 287.188751 310.49707 C 286.71875 310.435822 286.375 310.029175 286.375 309.557098 L 286.375 309.463318 C 286.375 309.027924 286.749573 308.653748 287.188751 308.653748 L 290.566254 308.653748 C 291.003754 308.653748 291.380005 309.027924 291.380005 309.463318 L 291.380005 323.509583 C 291.380005 323.949158 291.003754 324.323334 290.566254 324.323334 L 289.502075 324.323334 Z M 289.972076 305.744171 C 288.907928 305.744171 288.126678 304.897919 288.126678 303.835815 C 288.126678 302.741241 288.938751 301.89502 290.002502 301.89502 C 291.097076 301.89502 291.910828 302.70874 291.910828 303.835815 C 291.910828 304.897919 291.097076 305.744171 289.972076 305.744171 Z"/>
            <path id="path41" fill="#f9c623" stroke="none" d="M 301.450836 324.730408 C 299.729584 324.730408 298.073334 324.168762 296.915833 323.509583 C 296.539581 323.261261 296.415436 322.760834 296.632935 322.382507 L 296.97876 321.78833 C 297.196686 321.381653 297.697083 321.259583 298.073334 321.475006 C 299.167908 322.101685 300.293335 322.476257 301.577087 322.476257 C 303.702911 322.476257 304.360016 321.633759 304.360016 320.165009 C 304.360016 318.411255 303.546265 318.069153 301.043732 317.377502 C 298.854584 316.783325 297.040009 315.62793 297.040009 312.53125 C 297.040009 310.248749 298.510834 308.246674 301.951233 308.246674 C 303.452911 308.246674 304.580017 308.494995 305.580841 308.901672 C 305.987915 309.089172 306.175018 309.589569 305.987915 309.996246 L 305.705017 310.622925 C 305.517914 311.029999 305.047913 311.249573 304.610413 311.0625 C 303.702911 310.655426 302.984589 310.529602 302.044983 310.529602 C 300.356232 310.529602 299.574982 311.123352 299.574982 312.466248 C 299.574982 313.939148 300.22998 314.313751 302.388733 314.907898 C 304.797516 315.562927 306.988739 316.50293 306.988739 320.038757 C 306.988739 323.290009 305.141266 324.730408 301.450836 324.730408 Z"/>
            <path id="path42" fill="#f9c623" stroke="none" d="M 317.977081 324.730408 C 313.879578 324.730408 311.564178 322.354156 311.564178 316.470398 C 311.564178 310.529602 314.003754 308.246674 317.696259 308.246674 C 321.417511 308.246674 323.54541 310.370819 323.54541 316.035004 L 323.54541 316.596252 C 323.54541 316.877075 323.325836 317.09668 323.044983 317.09668 L 314.442932 317.09668 C 314.50415 321.381653 315.444153 322.44751 318.040009 322.44751 C 319.38501 322.44751 320.261658 322.040833 321.073761 321.475006 C 321.449982 321.194153 321.980835 321.287903 322.231232 321.633759 L 322.731659 322.288757 C 322.982086 322.634583 322.918732 323.167908 322.544586 323.415833 C 321.262909 324.323334 319.948334 324.730408 317.977081 324.730408 Z M 317.633331 310.370819 C 315.818329 310.370819 314.693329 311.310852 314.473755 315.066254 L 320.699158 315.066254 C 320.699158 311.465424 319.885406 310.370819 317.633331 310.370819 Z M 316.005432 306.305847 C 315.60083 306.525421 315.100403 306.366669 314.880402 305.992493 L 314.723755 305.71167 C 314.50415 305.337494 314.599579 304.804169 314.974152 304.552094 L 319.63501 301.333344 C 319.979187 301.081238 320.479584 301.207489 320.666656 301.581665 L 321.356232 302.769989 C 321.543762 303.148315 321.387085 303.648743 321.010406 303.864563 L 316.005432 306.305847 Z"/>
            <path id="path43" fill="#f9c623" stroke="none" d="M 334.635406 324.730408 C 330.537933 324.730408 328.222931 322.354156 328.222931 316.470398 C 328.222931 310.529602 330.662079 308.246674 334.355011 308.246674 C 338.075836 308.246674 340.204163 310.370819 340.204163 316.035004 L 340.204163 316.596252 C 340.204163 316.877075 339.984161 317.09668 339.703339 317.09668 L 331.101685 317.09668 C 331.162506 321.381653 332.102509 322.44751 334.698761 322.44751 C 336.043335 322.44751 336.92041 322.040833 337.732086 321.475006 C 338.108337 321.194153 338.639587 321.287903 338.889587 321.633759 L 339.390411 322.288757 C 339.640411 322.634583 339.577484 323.167908 339.202911 323.415833 C 337.921265 324.323334 336.607086 324.730408 334.635406 324.730408 Z M 334.291656 310.370819 C 332.477081 310.370819 331.352081 311.310852 331.13208 315.066254 L 337.35791 315.066254 C 337.35791 311.465424 336.543762 310.370819 334.291656 310.370819 Z"/>
            <path id="path44" fill="#f9c623" stroke="none" d="M 360.325409 324.730408 C 358.604156 324.730408 356.915405 323.855408 356.007904 322.822083 L 355.790405 323.542084 C 355.664154 324.01001 355.226654 324.323334 354.756653 324.323334 L 354.288757 324.323334 C 353.851654 324.323334 353.475006 323.949158 353.475006 323.509583 L 353.475006 302.489166 C 353.475006 302.053741 353.851654 301.675415 354.288757 301.675415 L 355.352905 301.675415 C 355.790405 301.675415 356.164581 302.053741 356.164581 302.489166 L 356.164581 310.2771 C 357.291656 309.089172 358.699585 308.246674 360.35791 308.246674 C 363.36084 308.246674 365.706665 309.935425 365.706665 316.376678 C 365.706665 322.260406 363.985413 324.730408 360.325409 324.730408 Z M 359.637482 322.415009 C 361.859161 322.415009 362.827911 321.601257 362.827911 316.563751 C 362.827911 311.530426 362.013763 310.557922 359.887909 310.557922 C 358.355835 310.557922 357.291656 311.343323 356.164581 312.405426 L 356.164581 320.880829 C 357.072083 321.76001 358.323334 322.415009 359.637482 322.415009 Z"/>
            <path id="path45" fill="#f9c623" stroke="none" d="M 377 324.730408 C 372.902496 324.730408 370.587494 322.354156 370.587494 316.470398 C 370.587494 310.529602 373.028748 308.246674 376.719177 308.246674 C 380.44043 308.246674 382.568329 310.370819 382.568329 316.035004 L 382.568329 316.596252 C 382.568329 316.877075 382.348755 317.09668 382.067902 317.09668 L 373.466248 317.09668 C 373.529175 321.381653 374.467072 322.44751 377.063324 322.44751 C 378.407898 322.44751 379.282928 322.040833 380.096649 321.475006 C 380.472931 321.194153 381.00415 321.287903 381.254181 321.633759 L 381.754578 322.288757 C 382.005005 322.634583 381.942078 323.167908 381.567505 323.415833 C 380.283752 324.323334 378.97168 324.730408 377 324.730408 Z M 376.65625 310.370819 C 374.841675 310.370819 373.716248 311.310852 373.496674 315.066254 L 379.722076 315.066254 C 379.722076 311.465424 378.908325 310.370819 376.65625 310.370819 Z"/>
            <path id="path46" fill="#f9c623" stroke="none" d="M 388.830841 324.323334 C 388.393341 324.323334 388.01709 323.949158 388.01709 323.509583 L 388.01709 309.463318 C 388.01709 309.027924 388.393341 308.653748 388.830841 308.653748 L 389.298737 308.653748 C 389.768738 308.653748 390.175415 308.995422 390.269165 309.463318 L 390.549988 310.871246 C 391.707489 309.434998 393.145844 308.368744 394.960815 308.368744 C 395.054169 308.368744 395.18042 308.368744 395.27417 308.401245 C 395.399994 308.433746 395.52417 308.555847 395.493744 308.682068 L 395.27417 310.871246 C 395.243347 311.09082 395.023743 311.27832 394.773315 311.249573 C 394.616669 311.217072 394.429596 311.217072 394.272919 311.217072 C 392.834595 311.217072 391.864166 311.75 390.706665 312.812073 L 390.706665 323.509583 C 390.706665 323.949158 390.332092 324.323334 389.894592 324.323334 L 388.830841 324.323334 Z"/>
            <path id="path47" fill="#f9c623" stroke="none" d="M 401.131256 324.323334 C 400.693756 324.323334 400.317505 323.949158 400.317505 323.509583 L 400.317505 309.463318 C 400.317505 309.027924 400.693756 308.653748 401.131256 308.653748 L 401.599152 308.653748 C 402.069153 308.653748 402.476257 308.995422 402.56958 309.434998 L 402.820007 310.590424 C 404.19751 309.214996 405.76001 308.246674 407.605011 308.246674 C 409.857513 308.246674 411.391266 309.402496 411.391266 312.063324 L 411.391266 323.509583 C 411.391266 323.949158 411.015015 324.323334 410.577515 324.323334 L 409.513336 324.323334 C 409.076263 324.323334 408.70166 323.949158 408.70166 323.509583 L 408.70166 312.905823 C 408.70166 311.123352 408.201263 310.622925 406.793335 310.622925 C 405.542084 310.622925 404.134155 311.497925 403.00708 312.498749 L 403.00708 323.509583 C 403.00708 323.949158 402.632904 324.323334 402.195404 324.323334 L 401.131256 324.323334 Z"/>
            <path id="path48" fill="#f9c623" stroke="none" d="M 423.248322 324.730408 C 419.431671 324.730408 416.835846 322.354156 416.835846 316.470398 C 416.835846 310.590424 419.370819 308.246674 423.185425 308.246674 C 427.002136 308.246674 429.630707 310.590424 429.630707 316.470398 C 429.630707 322.354156 427.065216 324.730408 423.248322 324.730408 Z M 423.248322 322.602081 C 425.626678 322.602081 426.751862 321.320435 426.751862 316.50293 C 426.751862 311.656677 425.594177 310.370819 423.217926 310.370819 C 420.839569 310.370819 419.714569 311.624176 419.714569 316.470398 C 419.714569 321.287903 420.87207 322.602081 423.248322 322.602081 Z"/>
            <path id="path49" fill="#f9c623" stroke="none" d="M 436.511414 324.323334 C 436.074005 324.323334 435.699615 323.949158 435.699615 323.509583 L 435.699615 310.749176 L 434.198181 310.49707 C 433.72821 310.435822 433.384369 310.029175 433.384369 309.557098 L 433.384369 309.463318 C 433.384369 309.027924 433.758698 308.653748 434.198181 308.653748 L 437.57547 308.653748 C 438.012878 308.653748 438.389252 309.027924 438.389252 309.463318 L 438.389252 323.509583 C 438.389252 323.949158 438.012878 324.323334 437.57547 324.323334 L 436.511414 324.323334 Z M 436.981384 305.744171 C 435.917328 305.744171 435.136078 304.897919 435.136078 303.835815 C 435.136078 302.741241 435.947845 301.89502 437.011871 301.89502 C 438.106445 301.89502 438.920258 302.70874 438.920258 303.835815 C 438.920258 304.897919 438.106445 305.744171 436.981384 305.744171 Z"/>
            <path id="path50" fill="#f9c623" stroke="none" d="M 448.462097 324.730408 C 446.74292 324.730408 445.084778 324.168762 443.927155 323.509583 C 443.550781 323.261261 443.426666 322.760834 443.644379 322.382507 L 443.98822 321.78833 C 444.207916 321.381653 444.708405 321.259583 445.084778 321.475006 C 446.179382 322.101685 447.304474 322.476257 448.588196 322.476257 C 450.714294 322.476257 451.371429 321.633759 451.371429 320.165009 C 451.371429 318.411255 450.557617 318.069153 448.055176 317.377502 C 445.866028 316.783325 444.0513 315.62793 444.0513 312.53125 C 444.0513 310.248749 445.522217 308.246674 448.962585 308.246674 C 450.46405 308.246674 451.591156 308.494995 452.592133 308.901672 C 452.997009 309.089172 453.186218 309.589569 452.997009 309.996246 L 452.716248 310.622925 C 452.529053 311.029999 452.059082 311.249573 451.621674 311.0625 C 450.714294 310.655426 449.99408 310.529602 449.056152 310.529602 C 447.367554 310.529602 446.586304 311.123352 446.586304 312.466248 C 446.586304 313.939148 447.243408 314.313751 449.399994 314.907898 C 451.808838 315.562927 453.997955 316.50293 453.997955 320.038757 C 453.997955 323.290009 452.152679 324.730408 448.462097 324.730408 Z"/>
            <path id="path51" fill="#f9c623" stroke="none" d="M 464.986328 324.730408 C 460.888824 324.730408 458.573578 322.354156 458.573578 316.470398 C 458.573578 310.529602 461.01297 308.246674 464.705566 308.246674 C 468.426697 308.246674 470.554779 310.370819 470.554779 316.035004 L 470.554779 316.596252 C 470.554779 316.877075 470.335052 317.09668 470.054291 317.09668 L 461.452423 317.09668 C 461.513428 321.381653 462.453369 322.44751 465.049408 322.44751 C 466.394226 322.44751 467.271088 322.040833 468.082855 321.475006 C 468.459229 321.194153 468.990234 321.287903 469.240479 321.633759 L 469.740967 322.288757 C 469.991211 322.634583 469.928162 323.167908 469.553802 323.415833 C 468.272064 324.323334 466.957764 324.730408 464.986328 324.730408 Z M 464.642517 310.370819 C 462.827698 310.370819 461.702667 311.310852 461.48291 315.066254 L 467.708496 315.066254 C 467.708496 311.465424 466.894714 310.370819 464.642517 310.370819 Z"/>
            <path id="path52" fill="#f9c623" stroke="none" d="M 16.174583 361.823334 C 15.73707 361.823334 15.360846 361.449158 15.360846 361.009583 L 15.360846 341.08374 C 15.360846 340.648315 15.73707 340.269989 16.174583 340.269989 L 21.710409 340.269989 C 26.247515 340.269989 27.903347 342.650421 27.903347 346.027496 C 27.903347 348.277496 27.342079 349.498322 25.276674 350.373352 C 27.372501 350.967102 28.873743 352.595001 28.873743 355.785004 C 28.873743 360.06958 26.057924 361.823334 22.054176 361.823334 L 16.174583 361.823334 Z M 18.207087 349.404602 L 21.773319 349.404602 C 24.306248 349.404602 24.869995 348.342926 24.869995 346.088348 C 24.869995 343.838318 24.14959 342.678741 21.616663 342.678741 L 18.207087 342.678741 L 18.207087 349.404602 Z M 18.239574 359.414581 L 21.742929 359.414581 C 24.745827 359.414581 25.807903 358.258759 25.807903 355.630432 C 25.807903 353.03418 24.839573 351.846252 21.867098 351.846252 L 18.239574 351.846252 L 18.239574 359.414581 Z"/>
            <path id="path53" fill="#f9c623" stroke="none" d="M 40.124588 362.230408 C 36.027096 362.230408 33.712082 359.854156 33.712082 353.970398 C 33.712082 348.029602 36.151264 345.746674 39.843765 345.746674 C 43.565002 345.746674 45.692902 347.870819 45.692902 353.535004 L 45.692902 354.096252 C 45.692902 354.377075 45.473335 354.59668 45.192509 354.59668 L 36.590843 354.59668 C 36.651657 358.881683 37.591663 359.94751 40.187912 359.94751 C 41.532497 359.94751 42.409592 359.540833 43.221264 358.975006 C 43.597488 358.694183 44.12875 358.787903 44.378738 359.133759 L 44.879166 359.788757 C 45.129601 360.134583 45.066658 360.667908 44.692085 360.915833 C 43.410412 361.823334 42.096249 362.230408 40.124588 362.230408 Z M 39.780823 347.870819 C 37.966267 347.870819 36.840836 348.810852 36.621235 352.566254 L 42.846661 352.566254 C 42.846661 348.965424 42.032925 347.870819 39.780823 347.870819 Z"/>
            <path id="path54" fill="#f9c623" stroke="none" d="M 51.953331 361.823334 C 51.515846 361.823334 51.139591 361.449158 51.139591 361.009583 L 51.139591 346.963318 C 51.139591 346.527924 51.515846 346.153748 51.953331 346.153748 L 52.421265 346.153748 C 52.891235 346.153748 53.297916 346.495422 53.391663 346.963318 L 53.672485 348.371246 C 54.829994 346.934998 56.268326 345.868744 58.083324 345.868744 C 58.176659 345.868744 58.302925 345.868744 58.396671 345.901245 C 58.522907 345.933746 58.64666 346.055817 58.616238 346.182068 L 58.396671 348.371246 C 58.366249 348.59082 58.146236 348.77832 57.896248 348.749573 C 57.73959 348.717072 57.552097 348.717072 57.395409 348.717072 C 55.957077 348.717072 54.986683 349.25 53.829174 350.312073 L 53.829174 361.009583 C 53.829174 361.449158 53.454571 361.823334 53.017502 361.823334 L 51.953331 361.823334 Z"/>
            <path id="path55" fill="#f9c623" stroke="none" d="M 64.253754 361.823334 C 63.816658 361.823334 63.439987 361.449158 63.439987 361.009583 L 63.439987 346.963318 C 63.439987 346.527924 63.816658 346.153748 64.253754 346.153748 L 64.721664 346.153748 C 65.191666 346.153748 65.598755 346.495422 65.692505 346.934998 L 65.94249 348.090424 C 67.320007 346.714996 68.882507 345.746674 70.727905 345.746674 C 72.980003 345.746674 74.513733 346.902496 74.513733 349.563324 L 74.513733 361.009583 C 74.513733 361.449158 74.137512 361.823334 73.699997 361.823334 L 72.636238 361.823334 C 72.198753 361.823334 71.82415 361.449158 71.82415 361.009583 L 71.82415 350.405823 C 71.82415 348.623352 71.323761 348.122925 69.915848 348.122925 C 68.664597 348.122925 67.256653 348.997925 66.12957 349.998749 L 66.12957 361.009583 C 66.12957 361.449158 65.755409 361.823334 65.317932 361.823334 L 64.253754 361.823334 Z"/>
            <path id="path56" fill="#f9c623" stroke="none" d="M 94.791679 362.230408 C 91.78875 362.230408 88.909988 360.635406 88.909988 355.630432 L 88.909988 341.08374 C 88.909988 340.648315 89.286659 340.269989 89.723763 340.269989 L 90.975014 340.269989 C 91.412491 340.269989 91.78875 340.648315 91.78875 341.08374 L 91.78875 355.130005 C 91.78875 358.287506 92.382919 359.727905 95.102928 359.727905 C 97.357506 359.727905 98.920006 358.60083 99.82708 357.72583 L 99.82708 341.08374 C 99.82708 340.648315 100.203751 340.269989 100.640816 340.269989 L 101.892075 340.269989 C 102.329582 340.269989 102.706253 340.648315 102.706253 341.08374 L 102.706253 361.009583 C 102.706253 361.449158 102.329582 361.823334 101.892075 361.823334 L 101.391678 361.823334 C 100.921677 361.823334 100.484573 361.477509 100.390831 361.042084 L 100.077515 359.821259 C 98.858749 361.042084 97.105011 362.230408 94.791679 362.230408 Z"/>
            <path id="path57" fill="#f9c623" stroke="none" d="M 110.294579 361.823334 C 109.857506 361.823334 109.480843 361.449158 109.480843 361.009583 L 109.480843 346.963318 C 109.480843 346.527924 109.857506 346.153748 110.294579 346.153748 L 110.762512 346.153748 C 111.232483 346.153748 111.63958 346.495422 111.733322 346.934998 L 111.983345 348.090424 C 113.360832 346.714996 114.923332 345.746674 116.768753 345.746674 C 119.020828 345.746674 120.554588 346.902496 120.554588 349.563324 L 120.554588 361.009583 C 120.554588 361.449158 120.178329 361.823334 119.740814 361.823334 L 118.677086 361.823334 C 118.239578 361.823334 117.865005 361.449158 117.865005 361.009583 L 117.865005 350.405823 C 117.865005 348.623352 117.364578 348.122925 115.956673 348.122925 C 114.705414 348.122925 113.297508 348.997925 112.170425 349.998749 L 112.170425 361.009583 C 112.170425 361.449158 111.796265 361.823334 111.358749 361.823334 L 110.294579 361.823334 Z"/>
            <path id="path58" fill="#f9c623" stroke="none" d="M 128.532074 361.823334 C 128.094589 361.823334 127.720398 361.449158 127.720398 361.009583 L 127.720398 348.249176 L 126.218742 347.99707 C 125.748741 347.935822 125.405006 347.529175 125.405006 347.057098 L 125.405006 346.963318 C 125.405006 346.527924 125.779579 346.153748 126.218742 346.153748 L 129.596252 346.153748 C 130.03334 346.153748 130.409988 346.527924 130.409988 346.963318 L 130.409988 361.009583 C 130.409988 361.449158 130.03334 361.823334 129.596252 361.823334 L 128.532074 361.823334 Z M 129.002075 343.244171 C 127.937904 343.244171 127.156654 342.397919 127.156654 341.335846 C 127.156654 340.241241 127.968323 339.39502 129.032501 339.39502 C 130.12709 339.39502 130.940826 340.20874 130.940826 341.335846 C 130.940826 342.397919 130.12709 343.244171 129.002075 343.244171 Z"/>
            <path id="path59" fill="#f9c623" stroke="none" d="M 141.162094 361.823334 C 140.692505 361.823334 140.25499 361.51001 140.098328 361.042084 L 135.437088 346.934998 C 135.312927 346.527924 135.59375 346.153748 136.000839 346.153748 L 137.315002 346.153748 C 137.782898 346.153748 138.222488 346.462921 138.346649 346.934998 L 140.785828 355.130005 C 141.131668 356.25708 141.506241 358.132904 141.756256 359.195007 L 141.786652 359.195007 C 141.976242 358.258759 142.380829 356.285431 142.757492 355.064575 L 145.196671 346.934998 C 145.322906 346.462921 145.760422 346.153748 146.230423 346.153748 L 147.385834 346.153748 C 147.792923 346.153748 148.075409 346.527924 147.949585 346.934998 L 143.194595 361.042084 C 143.037903 361.51001 142.60083 361.823334 142.132935 361.823334 L 141.162094 361.823334 Z"/>
            <path id="path60" fill="#f9c623" stroke="none" d="M 158.148331 362.230408 C 154.050842 362.230408 151.735413 359.854156 151.735413 353.970398 C 151.735413 348.029602 154.177078 345.746674 157.867508 345.746674 C 161.588745 345.746674 163.716675 347.870819 163.716675 353.535004 L 163.716675 354.096252 C 163.716675 354.377075 163.497086 354.59668 163.216248 354.59668 L 154.614594 354.59668 C 154.677505 358.881683 155.615402 359.94751 158.211243 359.94751 C 159.556244 359.94751 160.431244 359.540833 161.24501 358.975006 C 161.621231 358.694183 162.152084 358.787903 162.402481 359.133759 L 162.902908 359.788757 C 163.153351 360.134583 163.089981 360.667908 162.715836 360.915833 C 161.432083 361.823334 160.119995 362.230408 158.148331 362.230408 Z M 157.804596 347.870819 C 155.989594 347.870819 154.864578 348.810852 154.645004 352.566254 L 160.870407 352.566254 C 160.870407 348.965424 160.056671 347.870819 157.804596 347.870819 Z"/>
            <path id="path61" fill="#f9c623" stroke="none" d="M 169.979172 361.823334 C 169.541656 361.823334 169.165405 361.449158 169.165405 361.009583 L 169.165405 346.963318 C 169.165405 346.527924 169.541656 346.153748 169.979172 346.153748 L 170.447083 346.153748 C 170.917084 346.153748 171.323761 346.495422 171.417511 346.963318 L 171.698334 348.371246 C 172.855835 346.934998 174.294174 345.868744 176.109161 345.868744 C 176.202499 345.868744 176.328735 345.868744 176.422073 345.901245 C 176.54834 345.933746 176.672501 346.055817 176.642075 346.182068 L 176.422073 348.371246 C 176.391678 348.59082 176.172073 348.77832 175.921677 348.749573 C 175.764984 348.717072 175.577911 348.717072 175.421249 348.717072 C 173.982925 348.717072 173.012497 349.25 171.85498 350.312073 L 171.85498 361.009583 C 171.85498 361.449158 171.480408 361.823334 171.042908 361.823334 L 169.979172 361.823334 Z"/>
            <path id="path62" fill="#f9c623" stroke="none" d="M 185.294571 362.230408 C 183.575424 362.230408 181.917496 361.668762 180.76001 361.009583 C 180.383347 360.761261 180.259171 360.260834 180.477097 359.882507 L 180.820831 359.28833 C 181.040421 358.881683 181.54126 358.759583 181.917496 358.975006 C 183.012085 359.601685 184.13707 359.976257 185.420837 359.976257 C 187.547089 359.976257 188.204178 359.133759 188.204178 357.665009 C 188.204178 355.911255 187.390411 355.569153 184.887924 354.877502 C 182.698746 354.283325 180.884155 353.12793 180.884155 350.03125 C 180.884155 347.748749 182.355011 345.746674 185.79541 345.746674 C 187.296661 345.746674 188.423737 345.994995 189.425003 346.401672 C 189.82959 346.589172 190.018768 347.089569 189.82959 347.496246 L 189.548767 348.122925 C 189.361679 348.529999 188.891678 348.749573 188.454163 348.5625 C 187.547089 348.155426 186.82666 348.029602 185.888748 348.029602 C 184.200012 348.029602 183.418762 348.623352 183.418762 349.966248 C 183.418762 351.439148 184.076263 351.813751 186.232483 352.407898 C 188.641663 353.062927 190.830841 354.00293 190.830841 357.538757 C 190.830841 360.790009 188.985428 362.230408 185.294571 362.230408 Z"/>
            <path id="path63" fill="#f9c623" stroke="none" d="M 197.97168 361.823334 C 197.534164 361.823334 197.157898 361.449158 197.157898 361.009583 L 197.157898 348.249176 L 195.656662 347.99707 C 195.188751 347.935822 194.844574 347.529175 194.844574 347.057098 L 194.844574 346.963318 C 194.844574 346.527924 195.219177 346.153748 195.656662 346.153748 L 199.035843 346.153748 C 199.473328 346.153748 199.849594 346.527924 199.849594 346.963318 L 199.849594 361.009583 C 199.849594 361.449158 199.473328 361.823334 199.035843 361.823334 L 197.97168 361.823334 Z M 198.441681 343.244171 C 197.377502 343.244171 196.596252 342.397919 196.596252 341.335846 C 196.596252 340.241241 197.4104 339.39502 198.472061 339.39502 C 199.566666 339.39502 200.380402 340.20874 200.380402 341.335846 C 200.380402 342.397919 199.566666 343.244171 198.441681 343.244171 Z"/>
            <path id="path64" fill="#f9c623" stroke="none" d="M 205.688751 348.342926 C 205.251251 348.342926 204.87709 347.964172 204.87709 347.529175 L 204.87709 346.963318 C 204.87709 346.527924 205.251251 346.153748 205.688751 346.153748 L 206.659164 346.153748 L 206.659164 342.930817 C 206.659164 342.459167 207.00293 342.052094 207.440414 341.929993 L 208.567505 341.710419 C 208.974167 341.616669 209.348755 341.929993 209.348755 342.337097 L 209.348755 346.153748 L 211.757492 346.153748 C 212.194992 346.153748 212.571259 346.527924 212.571259 346.963318 L 212.571259 347.529175 C 212.571259 347.964172 212.194992 348.342926 211.757492 348.342926 L 209.348755 348.342926 L 209.348755 358.633331 C 209.348755 359.634155 209.755417 360.06958 210.632492 360.06958 C 211.006668 360.06958 211.320007 360.008759 211.60083 359.915009 C 212.007919 359.788757 212.445419 360.04126 212.571259 360.447906 L 212.695419 360.915833 C 212.791245 361.355408 212.571259 361.790833 212.134171 361.949585 C 211.633331 362.104156 211.069992 362.230408 210.412918 362.230408 C 208.286667 362.230408 206.659164 361.383759 206.659164 358.881683 L 206.659164 348.342926 L 205.688751 348.342926 Z"/>
            <path id="path65" fill="#f9c623" stroke="none" d="M 219.200012 368.109985 C 218.762512 368.236237 218.324997 367.955414 218.198746 367.515839 L 218.044174 366.921661 C 217.917923 366.482513 218.168335 366.014587 218.605835 365.888336 C 220.546677 365.265839 221.358322 364.419586 222.141663 361.823334 L 222.109177 361.823334 C 221.734589 361.823334 221.421661 361.575012 221.295425 361.229156 L 216.854172 346.934998 C 216.730011 346.527924 217.010834 346.153748 217.417496 346.153748 L 218.731674 346.153748 C 219.200012 346.153748 219.639175 346.462921 219.763336 346.934998 L 222.172089 355.37793 C 222.515839 356.631256 222.892502 358.474579 223.110001 359.666656 L 223.142502 359.666656 C 223.360413 358.539581 223.643326 356.912079 224.111252 355.37793 L 226.64624 346.934998 C 226.800842 346.462921 227.240005 346.153748 227.707932 346.153748 L 228.865829 346.153748 C 229.272507 346.153748 229.55542 346.527924 229.429169 346.934998 L 224.487488 362.323761 C 223.07959 366.547516 221.858749 367.483337 219.200012 368.109985 Z"/>
            <path id="path66" fill="#f9c623" stroke="none" d="M 247.515839 362.230408 C 243.699173 362.230408 241.103333 359.854156 241.103333 353.970398 C 241.103333 348.090424 243.638336 345.746674 247.452927 345.746674 C 251.269577 345.746674 253.898331 348.090424 253.898331 353.970398 C 253.898331 359.854156 251.332916 362.230408 247.515839 362.230408 Z M 247.515839 360.102081 C 249.894592 360.102081 251.019592 358.820435 251.019592 354.00293 C 251.019592 349.156677 249.861664 347.870819 247.485413 347.870819 C 245.107071 347.870819 243.982086 349.124176 243.982086 353.970398 C 243.982086 358.787903 245.139587 360.102081 247.515839 360.102081 Z"/>
            <path id="path67" fill="#f9c623" stroke="none" d="M 258.535004 348.342926 C 258.097504 348.342926 257.721252 347.964172 257.721252 347.529175 L 257.721252 346.963318 C 257.721252 346.527924 258.097504 346.153748 258.535004 346.153748 L 259.442505 346.153748 L 259.442505 343.651245 C 259.442505 340.049988 261.287506 338.987915 263.602936 338.987915 C 264.508331 338.987915 265.38501 339.146667 266.135834 339.456238 C 266.542908 339.614594 266.730011 340.115417 266.542908 340.522095 L 266.292511 341.051239 C 266.105408 341.457916 265.605011 341.677917 265.165436 341.555847 C 264.790833 341.429565 264.384186 341.364594 263.977081 341.364594 C 262.662903 341.364594 262.13208 342.023743 262.13208 343.618744 L 262.13208 346.153748 L 264.26001 346.153748 C 264.69751 346.153748 265.071655 346.527924 265.071655 346.963318 L 265.071655 347.529175 C 265.071655 347.964172 264.69751 348.342926 264.26001 348.342926 L 262.13208 348.342926 L 262.13208 361.009583 C 262.13208 361.449158 261.757507 361.823334 261.317932 361.823334 L 260.256256 361.823334 C 259.81665 361.823334 259.442505 361.449158 259.442505 361.009583 L 259.442505 348.342926 L 258.535004 348.342926 Z"/>
            <path id="path68" fill="#f9c623" stroke="none" d="M 276.658325 361.823334 C 276.251251 361.823334 275.970825 361.449158 276.096649 361.042084 L 282.25708 341.022491 C 282.413757 340.554596 282.851257 340.241241 283.321259 340.241241 L 284.885834 340.241241 C 285.35376 340.241241 285.793335 340.554596 285.917511 341.022491 L 291.955841 361.042084 C 292.049164 361.449158 291.766663 361.823334 291.359589 361.823334 L 289.827515 361.823334 C 289.357513 361.823334 288.92041 361.51001 288.796234 361.042084 L 287.262085 355.569153 L 280.601257 355.569153 L 279.004181 361.042084 C 278.880005 361.51001 278.442505 361.823334 277.972504 361.823334 L 276.658325 361.823334 Z M 282.413757 349.404602 L 281.319183 353.12793 L 286.574585 353.12793 L 285.542908 349.404602 C 284.60498 346.055817 284.352905 344.839172 284.041687 343.179169 L 283.978333 343.179169 C 283.665009 344.900421 283.384155 346.121246 282.413757 349.404602 Z"/>
            <path id="path69" fill="#f9c623" stroke="none" d="M 297.892517 368.109985 C 297.455017 368.109985 297.078735 367.73584 297.078735 367.296234 L 297.078735 346.963318 C 297.078735 346.527924 297.455017 346.153748 297.892517 346.153748 L 298.360413 346.153748 C 298.830414 346.153748 299.267914 346.495422 299.361237 346.934998 L 299.611664 347.935822 C 300.801666 346.621674 302.303314 345.746674 303.961243 345.746674 C 306.964172 345.746674 309.309998 347.435425 309.309998 353.876678 C 309.309998 359.760406 307.588745 362.230408 303.928741 362.230408 C 302.207489 362.230408 300.769165 361.449158 299.768341 360.476654 L 299.768341 367.296234 C 299.768341 367.73584 299.393738 368.109985 298.956665 368.109985 L 297.892517 368.109985 Z M 303.241241 359.915009 C 305.462921 359.915009 306.431244 359.101257 306.431244 354.063751 C 306.431244 349.030426 305.617493 348.057922 303.491241 348.057922 C 301.959564 348.057922 300.895416 348.843323 299.768341 349.905426 L 299.768341 358.380829 C 300.675842 359.26001 301.926666 359.915009 303.241241 359.915009 Z"/>
            <path id="path70" fill="#f9c623" stroke="none" d="M 315.818329 368.109985 C 315.379181 368.109985 315.004578 367.73584 315.004578 367.296234 L 315.004578 346.963318 C 315.004578 346.527924 315.379181 346.153748 315.818329 346.153748 L 316.286255 346.153748 C 316.756256 346.153748 317.193756 346.495422 317.287506 346.934998 L 317.537506 347.935822 C 318.727905 346.621674 320.229156 345.746674 321.885437 345.746674 C 324.888336 345.746674 327.236267 347.435425 327.236267 353.876678 C 327.236267 359.760406 325.514984 362.230408 321.855011 362.230408 C 320.135834 362.230408 318.695404 361.449158 317.694183 360.476654 L 317.694183 367.296234 C 317.694183 367.73584 317.320007 368.109985 316.880402 368.109985 L 315.818329 368.109985 Z M 321.167084 359.915009 C 323.386658 359.915009 324.357086 359.101257 324.357086 354.063751 C 324.357086 349.030426 323.543335 348.057922 321.417511 348.057922 C 319.883331 348.057922 318.821259 348.843323 317.694183 349.905426 L 317.694183 358.380829 C 318.601685 359.26001 319.852936 359.915009 321.167084 359.915009 Z"/>
            <path id="path71" fill="#f9c623" stroke="none" d="M 335.779175 362.136658 C 333.777069 362.136658 332.932495 361.070831 332.932495 358.320007 L 332.932495 339.989166 C 332.932495 339.553741 333.307098 339.175415 333.746674 339.175415 L 334.808319 339.175415 C 335.247925 339.175415 335.622498 339.553741 335.622498 339.989166 L 335.622498 358.820435 C 335.622498 359.601685 335.966248 359.915009 336.717072 359.915009 C 336.842926 359.915009 336.967072 359.915009 337.060822 359.882507 C 337.217499 359.882507 337.374176 359.976257 337.404572 360.134583 L 337.561249 361.042084 C 337.654999 361.477509 337.374176 361.917084 336.936676 362.010406 C 336.560425 362.071655 336.15332 362.136658 335.779175 362.136658 Z"/>
            <path id="path72" fill="#f9c623" stroke="none" d="M 343.996246 361.823334 C 343.558746 361.823334 343.182495 361.449158 343.182495 361.009583 L 343.182495 348.249176 L 341.681244 347.99707 C 341.213348 347.935822 340.869171 347.529175 340.869171 347.057098 L 340.869171 346.963318 C 340.869171 346.527924 341.243744 346.153748 341.681244 346.153748 L 345.060425 346.153748 C 345.497925 346.153748 345.874176 346.527924 345.874176 346.963318 L 345.874176 361.009583 C 345.874176 361.449158 345.497925 361.823334 345.060425 361.823334 L 343.996246 361.823334 Z M 344.466248 343.244171 C 343.402069 343.244171 342.620819 342.397919 342.620819 341.335846 C 342.620819 340.241241 343.434998 339.39502 344.496674 339.39502 C 345.591248 339.39502 346.404999 340.20874 346.404999 341.335846 C 346.404999 342.397919 345.591248 343.244171 344.466248 343.244171 Z"/>
            <path id="path73" fill="#f9c623" stroke="none" d="M 357.8125 362.230408 C 353.714996 362.230408 351.399994 359.854156 351.399994 353.970398 C 351.399994 348.029602 353.839172 345.746674 357.532074 345.746674 C 361.25293 345.746674 363.381256 347.870819 363.381256 353.535004 L 363.381256 354.096252 C 363.381256 354.377075 363.161255 354.59668 362.880432 354.59668 L 354.278748 354.59668 C 354.339569 358.881683 355.279572 359.94751 357.875824 359.94751 C 359.220428 359.94751 360.097504 359.540833 360.90918 358.975006 C 361.2854 358.694183 361.816681 358.787903 362.06665 359.133759 L 362.567505 359.788757 C 362.817505 360.134583 362.754578 360.667908 362.380005 360.915833 C 361.098328 361.823334 359.784149 362.230408 357.8125 362.230408 Z M 357.46875 347.870819 C 355.654175 347.870819 354.529175 348.810852 354.309174 352.566254 L 360.535004 352.566254 C 360.535004 348.965424 359.720825 347.870819 357.46875 347.870819 Z"/>
            <path id="path74" fill="#f9c623" stroke="none" d="M 373.527069 362.230408 C 370.52417 362.230408 368.178345 360.541656 368.178345 354.096252 C 368.178345 348.216675 369.899567 345.746674 373.557495 345.746674 C 375.278748 345.746674 376.717499 346.682495 377.718323 347.654999 L 377.718323 339.989166 C 377.718323 339.553741 378.094574 339.175415 378.532074 339.175415 L 379.596252 339.175415 C 380.033325 339.175415 380.410004 339.553741 380.410004 339.989166 L 380.410004 361.009583 C 380.410004 361.449158 380.033325 361.823334 379.596252 361.823334 L 379.126251 361.823334 C 378.65625 361.823334 378.21875 361.51001 378.094574 361.042084 L 377.875 360.195831 C 376.686676 361.51001 375.185425 362.230408 373.527069 362.230408 Z M 373.99707 359.915009 C 375.529175 359.915009 376.593323 359.28833 377.718323 358.226257 L 377.718323 349.750824 C 376.810822 348.871674 375.55957 348.057922 374.247498 348.057922 C 372.025848 348.057922 371.05542 348.871674 371.05542 353.90918 C 371.05542 358.946655 371.869171 359.915009 373.99707 359.915009 Z"/>
            <path id="path75" fill="#f9c623" stroke="none" d="M 399.872101 362.230408 C 397.652496 362.230408 395.556671 361.575012 394.05542 360.541656 C 393.679169 360.289581 393.554993 359.760406 393.804993 359.38208 L 394.212097 358.665833 C 394.462097 358.287506 394.962921 358.165405 395.306671 358.413757 C 396.714569 359.353333 397.839569 359.760406 399.654175 359.760406 C 402.53125 359.760406 403.595001 358.446259 403.595001 356.224579 C 403.595001 353.595825 402.126251 352.847076 399.497498 351.846252 C 395.931244 350.466675 394.30542 349.030426 394.30542 345.43335 C 394.30542 341.74292 396.62085 339.862915 400.372498 339.862915 C 402.34375 339.862915 403.688751 340.241241 404.877075 340.929169 C 405.253326 341.148743 405.410004 341.64917 405.190002 342.052094 L 404.783325 342.865845 C 404.56543 343.244171 404.065002 343.398743 403.688751 343.179169 C 402.720428 342.617493 401.780426 342.337097 400.529175 342.337097 C 398.466248 342.337097 397.151672 343.179169 397.151672 345.339996 C 397.151672 347.529175 397.996246 348.155426 400.592072 349.156677 C 403.939178 350.438324 406.567505 351.752502 406.567505 356.065826 C 406.567505 359.26001 404.972504 362.230408 399.872101 362.230408 Z"/>
            <path id="path76" fill="#f9c623" stroke="none" d="M 417.785828 362.230408 C 413.782074 362.230408 411.560425 359.601685 411.560425 353.970398 C 411.560425 347.99707 413.938751 345.746674 417.816254 345.746674 C 419.317902 345.746674 420.505829 346.088348 421.632904 346.99585 C 422.007507 347.276672 422.040009 347.7771 421.759155 348.122925 L 421.258759 348.749573 C 420.945404 349.091675 420.445007 349.124176 420.101257 348.843323 C 419.411255 348.310425 418.756256 348.029602 417.722931 348.029602 C 415.346252 348.029602 414.439178 349.058746 414.439178 353.970398 C 414.439178 358.787903 415.440002 359.94751 417.942505 359.94751 C 418.910828 359.94751 419.567902 359.573334 420.225006 359.040009 C 420.569153 358.759583 421.102081 358.787903 421.382904 359.133759 L 421.946259 359.727905 C 422.259583 360.04126 422.227081 360.574158 421.883331 360.855011 C 420.851654 361.762512 419.567902 362.230408 417.785828 362.230408 Z"/>
            <path id="path77" fill="#f9c623" stroke="none" d="M 429.55542 361.823334 C 429.118011 361.823334 428.741638 361.449158 428.741638 361.009583 L 428.741638 348.249176 L 427.240173 347.99707 C 426.772217 347.935822 426.428375 347.529175 426.428375 347.057098 L 426.428375 346.963318 C 426.428375 346.527924 426.802734 346.153748 427.240173 346.153748 L 430.619446 346.153748 C 431.056885 346.153748 431.433289 346.527924 431.433289 346.963318 L 431.433289 361.009583 C 431.433289 361.449158 431.056885 361.823334 430.619446 361.823334 L 429.55542 361.823334 Z M 430.025421 343.244171 C 428.961334 343.244171 428.180084 342.397919 428.180084 341.335846 C 428.180084 340.241241 428.993927 339.39502 430.055908 339.39502 C 431.150513 339.39502 431.964294 340.20874 431.964294 341.335846 C 431.964294 342.397919 431.150513 343.244171 430.025421 343.244171 Z"/>
            <path id="path78" fill="#f9c623" stroke="none" d="M 443.371765 362.230408 C 439.274261 362.230408 436.959015 359.854156 436.959015 353.970398 C 436.959015 348.029602 439.398376 345.746674 443.091003 345.746674 C 446.812073 345.746674 448.940216 347.870819 448.940216 353.535004 L 448.940216 354.096252 C 448.940216 354.377075 448.720459 354.59668 448.439697 354.59668 L 439.83783 354.59668 C 439.898834 358.881683 440.838806 359.94751 443.434845 359.94751 C 444.779633 359.94751 445.656494 359.540833 446.468292 358.975006 C 446.844666 358.694183 447.375671 358.787903 447.625916 359.133759 L 448.126373 359.788757 C 448.376617 360.134583 448.313599 360.667908 447.939209 360.915833 C 446.657501 361.823334 445.343201 362.230408 443.371765 362.230408 Z M 443.027924 347.870819 C 441.213135 347.870819 440.088074 348.810852 439.868347 352.566254 L 446.093903 352.566254 C 446.093903 348.965424 445.280121 347.870819 443.027924 347.870819 Z"/>
            <path id="path79" fill="#f9c623" stroke="none" d="M 455.202423 361.823334 C 454.76297 361.823334 454.38858 361.449158 454.38858 361.009583 L 454.38858 346.963318 C 454.38858 346.527924 454.76297 346.153748 455.202423 346.153748 L 455.670319 346.153748 C 456.140289 346.153748 456.547211 346.495422 456.640778 346.934998 L 456.891052 348.090424 C 458.266388 346.714996 459.830902 345.746674 461.676208 345.746674 C 463.928406 345.746674 465.462402 346.902496 465.462402 349.563324 L 465.462402 361.009583 C 465.462402 361.449158 465.086029 361.823334 464.648621 361.823334 L 463.584595 361.823334 C 463.147125 361.823334 462.770752 361.449158 462.770752 361.009583 L 462.770752 350.405823 C 462.770752 348.623352 462.270294 348.122925 460.86441 348.122925 C 459.61322 348.122925 458.205322 348.997925 457.078217 349.998749 L 457.078217 361.009583 C 457.078217 361.449158 456.703888 361.823334 456.264404 361.823334 L 455.202423 361.823334 Z"/>
            <path id="path80" fill="#f9c623" stroke="none" d="M 477.150635 362.230408 C 473.146759 362.230408 470.925049 359.601685 470.925049 353.970398 C 470.925049 347.99707 473.303375 345.746674 477.181152 345.746674 C 478.682617 345.746674 479.872833 346.088348 480.997864 346.99585 C 481.374298 347.276672 481.404785 347.7771 481.122009 348.122925 L 480.62149 348.749573 C 480.310242 349.091675 479.809753 349.124176 479.465912 348.843323 C 478.776215 348.310425 478.11908 348.029602 477.087585 348.029602 C 474.711304 348.029602 473.803864 349.058746 473.803864 353.970398 C 473.803864 358.787903 474.804871 359.94751 477.307281 359.94751 C 478.275696 359.94751 478.932861 359.573334 479.589996 359.040009 C 479.933838 358.759583 480.466888 358.787903 480.747681 359.133759 L 481.311218 359.727905 C 481.622498 360.04126 481.591949 360.574158 481.248138 360.855011 C 480.216614 361.762512 478.932861 362.230408 477.150635 362.230408 Z"/>
            <path id="path81" fill="#f9c623" stroke="none" d="M 492.000488 362.230408 C 487.903015 362.230408 485.587738 359.854156 485.587738 353.970398 C 485.587738 348.029602 488.02713 345.746674 491.719757 345.746674 C 495.440826 345.746674 497.56897 347.870819 497.56897 353.535004 L 497.56897 354.096252 C 497.56897 354.377075 497.349213 354.59668 497.068451 354.59668 L 488.466583 354.59668 C 488.527588 358.881683 489.467529 359.94751 492.063599 359.94751 C 493.408386 359.94751 494.285248 359.540833 495.096985 358.975006 C 495.473419 358.694183 496.004425 358.787903 496.254669 359.133759 L 496.755127 359.788757 C 497.005371 360.134583 496.942291 360.667908 496.567963 360.915833 C 495.286194 361.823334 493.971924 362.230408 492.000488 362.230408 Z M 491.656677 347.870819 C 489.841888 347.870819 488.716797 348.810852 488.49707 352.566254 L 494.722656 352.566254 C 494.722656 348.965424 493.908875 347.870819 491.656677 347.870819 Z"/>
            <path id="path82" fill="#f9c623" stroke="none" d="M 506.720123 362.230408 C 504.998962 362.230408 503.342865 361.668762 502.185242 361.009583 C 501.808838 360.761261 501.684753 360.260834 501.902405 359.882507 L 502.248291 359.28833 C 502.466003 358.881683 502.966492 358.759583 503.342865 358.975006 C 504.437408 359.601685 505.5625 359.976257 506.846283 359.976257 C 508.972321 359.976257 509.629578 359.133759 509.629578 357.665009 C 509.629578 355.911255 508.815674 355.569153 506.313263 354.877502 C 504.124115 354.283325 502.309326 353.12793 502.309326 350.03125 C 502.309326 347.748749 503.780304 345.746674 507.220612 345.746674 C 508.722076 345.746674 509.849182 345.994995 510.850006 346.401672 C 511.25708 346.589172 511.444153 347.089569 511.25708 347.496246 L 510.974152 348.122925 C 510.787079 348.529999 510.317078 348.749573 509.879578 348.5625 C 508.972321 348.155426 508.254181 348.029602 507.314209 348.029602 C 505.62558 348.029602 504.84433 348.623352 504.84433 349.966248 C 504.84433 351.439148 505.499451 351.813751 507.658051 352.407898 C 510.067078 353.062927 512.257935 354.00293 512.257935 357.538757 C 512.257935 360.790009 510.410828 362.230408 506.720123 362.230408 Z"/>
        </g>
    </g>
</svg>
