<svg width="91" height="12" viewBox="0 0 91 12" fill="none" xmlns="http://www.w3.org/2000/svg">
<path d="M72.4858 7.56976C72.4858 8.02853 71.8894 9.79481 70.0313 9.79481C68.1733 9.79481 67.5769 7.98266 67.5769 7.61564C67.5769 7.24862 67.5769 3.25729 67.5769 3.25729H65.9482C65.9482 3.25729 65.9482 6.74397 65.9482 7.68445C65.9482 8.62494 67.0493 11.4235 70.0772 11.4235C73.1051 11.4235 74.1144 8.602 74.1144 7.56976C74.1144 6.53752 74.1144 3.25729 74.1144 3.25729H72.4858C72.4858 3.25729 72.4858 7.11099 72.4858 7.56976Z" fill="#0A367F"/>
<path d="M51.9333 7.11099C51.9333 6.65221 52.5297 4.88594 54.3878 4.88594C56.2458 4.88594 56.8422 6.69809 56.8422 7.06511C56.8422 7.43213 56.8422 11.4235 56.8422 11.4235H58.4708C58.4708 11.4235 58.4708 7.93678 58.4708 6.99629C58.4708 6.05581 57.3698 3.25729 54.3419 3.25729C51.314 3.25729 50.3047 6.07875 50.3047 7.11099C50.3047 8.14323 50.3047 11.4235 50.3047 11.4235H51.9333C51.9333 11.4235 51.9333 7.5927 51.9333 7.11099Z" fill="#0A367F"/>
<path d="M85.9507 3.25729C84.3679 3.25729 83.3357 4.03721 82.7163 4.90888C82.0741 4.03721 81.0189 3.25729 79.4132 3.25729C76.3853 3.25729 75.376 6.07875 75.376 7.11099C75.376 8.14323 75.376 11.4235 75.376 11.4235H77.0046C77.0046 11.4235 77.0046 7.56976 77.0046 7.11099C77.0046 6.65221 77.601 4.88594 79.4591 4.88594C81.3171 4.88594 81.9135 6.69809 81.9135 7.06511C81.9135 7.08805 81.9135 7.08805 81.9135 7.11099C81.9135 7.70739 81.9135 11.4235 81.9135 11.4235H83.5421C83.5421 11.4235 83.5421 8.21204 83.5421 7.11099C83.5421 6.65221 84.1385 4.88594 85.9966 4.88594C87.8546 4.88594 88.451 6.69809 88.451 7.06511C88.451 7.43213 88.451 11.4235 88.451 11.4235H90.0797C90.0797 11.4235 90.0797 7.93678 90.0797 6.99629C90.0797 6.05581 88.9557 3.25729 85.9507 3.25729Z" fill="#0A367F"/>
<path d="M36.0142 3.25729C34.4314 3.25729 33.3992 4.03721 32.7798 4.90888C32.1375 4.03721 31.0824 3.25729 29.4767 3.25729C26.4488 3.25729 25.4395 6.07875 25.4395 7.11099C25.4395 8.14323 25.4395 11.4235 25.4395 11.4235H27.0681C27.0681 11.4235 27.0681 7.56976 27.0681 7.11099C27.0681 6.65221 27.6645 4.88594 29.5225 4.88594C31.3806 4.88594 31.977 6.69809 31.977 7.06511C31.977 7.08805 31.977 7.08805 31.977 7.11099C31.977 7.70739 31.977 11.4235 31.977 11.4235H33.6056C33.6056 11.4235 33.6056 8.21204 33.6056 7.11099C33.6056 6.65221 34.202 4.88594 36.0601 4.88594C37.9181 4.88594 38.5145 6.69809 38.5145 7.06511C38.5145 7.43213 38.5145 11.4235 38.5145 11.4235H40.1431C40.1431 11.4235 40.1431 7.93678 40.1431 6.99629C40.1431 6.05581 39.0421 3.25729 36.0142 3.25729Z" fill="#0A367F"/>
<path d="M10.5747 3.25729C8.99195 3.25729 7.95971 4.03721 7.34037 4.90888C6.69809 4.03721 5.64291 3.25729 4.0372 3.25729C1.0093 3.25729 0 6.07875 0 7.11099C0 8.14323 0 11.4235 0 11.4235H1.62864C1.62864 11.4235 1.62864 7.56976 1.62864 7.11099C1.62864 6.65221 2.22505 4.88594 4.08308 4.88594C5.94111 4.88594 6.53752 6.69809 6.53752 7.06511C6.53752 7.08805 6.53752 7.08805 6.53752 7.11099C6.53752 7.70739 6.53752 11.4235 6.53752 11.4235H8.16616C8.16616 11.4235 8.16616 8.21204 8.16616 7.11099C8.16616 6.65221 8.76256 4.88594 10.6206 4.88594C12.4786 4.88594 13.075 6.69809 13.075 7.06511C13.075 7.43213 13.075 11.4235 13.075 11.4235H14.7037C14.7037 11.4235 14.7037 7.93678 14.7037 6.99629C14.7037 6.05581 13.6026 3.25729 10.5747 3.25729Z" fill="#0A367F"/>
<path d="M20.0714 3.32602C17.8463 3.32602 16.0342 5.13817 16.0342 7.36322C16.0342 9.58827 17.8463 11.4004 20.0714 11.4004C22.2964 11.4004 24.1086 9.58827 24.1086 7.36322C24.1086 5.13817 22.2964 3.32602 20.0714 3.32602ZM20.0714 9.88647C18.6951 9.88647 17.5711 8.76248 17.5711 7.38616C17.5711 6.00984 18.6951 4.88585 20.0714 4.88585C21.4477 4.88585 22.5717 6.00984 22.5717 7.38616C22.5488 8.76248 21.4477 9.88647 20.0714 9.88647Z" fill="#0A367F"/>
<path d="M43.3537 8.44134C43.2161 8.1202 43.1243 7.77612 43.1243 7.38616C43.1243 6.00984 44.2483 4.88585 45.6246 4.88585C45.9916 4.88585 46.3357 4.95466 46.6569 5.11523L43.3537 8.44134ZM47.8497 8.53309C47.4368 9.33595 46.4275 9.88647 45.6246 9.88647C45.2117 9.88647 44.8447 9.79472 44.5006 9.61121L48.9966 5.11523C48.2626 4.03712 47.0468 3.32602 45.6476 3.32602C43.4225 3.32602 41.6104 5.13817 41.6104 7.36322C41.6104 9.58827 43.4225 11.4004 45.6476 11.4004C47.0239 11.4004 48.2626 10.7123 48.9966 9.63415L47.8497 8.53309Z" fill="#0A367F"/>
<path d="M61.4294 3.05176e-05H59.8008V7.52391C59.8008 10.2995 62.2552 11.4694 63.838 11.4694C64.4803 11.4694 64.7097 11.4694 64.7097 11.4694V9.86365H63.8609C62.1635 9.86365 61.4294 8.51027 61.4294 7.54685C61.4294 6.81281 61.4294 6.58342 61.4294 6.58342H64.7097V4.95478H61.4524V3.05176e-05H61.4294Z" fill="#0A367F"/>
</svg>
