<svg width="50" height="46" viewBox="0 0 50 46" fill="none" xmlns="http://www.w3.org/2000/svg">
<path d="M0 0H13C13.5523 0 14 0.447715 14 1V9C14 9.55228 13.5523 10 13 10H0V0Z" fill="url(#paint0_linear_1903_1127)"/>
<path d="M0 12H21C21.5523 12 22 12.4477 22 13V21C22 21.5523 21.5523 22 21 22H0V12Z" fill="url(#paint1_linear_1903_1127)"/>
<path d="M0 24H29C29.5523 24 30 24.4477 30 25V33C30 33.5523 29.5523 34 29 34H0V24Z" fill="url(#paint2_linear_1903_1127)"/>
<path d="M0 36H43C43.5523 36 44 36.4477 44 37V45C44 45.5523 43.5523 46 43 46H0V36Z" fill="url(#paint3_linear_1903_1127)"/>
<defs>
<linearGradient id="paint0_linear_1903_1127" x1="0" y1="5" x2="14" y2="5" gradientUnits="userSpaceOnUse">
<stop stop-color="#0A367F"/>
<stop offset="0.990385" stop-color="#66D870"/>
</linearGradient>
<linearGradient id="paint1_linear_1903_1127" x1="0" y1="17" x2="22" y2="17" gradientUnits="userSpaceOnUse">
<stop stop-color="#0A367F"/>
<stop offset="0.990385" stop-color="#66D870"/>
</linearGradient>
<linearGradient id="paint2_linear_1903_1127" x1="0" y1="29" x2="30" y2="29" gradientUnits="userSpaceOnUse">
<stop stop-color="#0A367F"/>
<stop offset="0.990385" stop-color="#66D870"/>
</linearGradient>
<linearGradient id="paint3_linear_1903_1127" x1="0" y1="41" x2="44" y2="41" gradientUnits="userSpaceOnUse">
<stop stop-color="#0A367F"/>
<stop offset="0.990385" stop-color="#66D870"/>
</linearGradient>
</defs>
</svg>
