<svg width="23" height="23" viewBox="0 0 23 23" fill="none" xmlns="http://www.w3.org/2000/svg">
<path d="M13.776 7.51416H8.76652C8.07772 7.51416 7.51416 8.07772 7.51416 8.76652V13.776C7.51416 14.4648 8.07772 15.0283 8.76652 15.0283H13.776C14.4648 15.0283 15.0283 14.4648 15.0283 13.776V8.76652C15.0283 8.07772 14.4648 7.51416 13.776 7.51416ZM12.5236 12.5236H10.0189V10.0189H12.5236V12.5236ZM22.5425 8.76652C22.5425 8.07772 21.9789 7.51416 21.2901 7.51416H20.0378V5.00944C20.0378 3.63184 18.9106 2.50472 17.533 2.50472H15.0283V1.25236C15.0283 0.563562 14.4648 0 13.776 0C13.0872 0 12.5236 0.563562 12.5236 1.25236V2.50472H10.0189V1.25236C10.0189 0.563562 9.45532 0 8.76652 0C8.07772 0 7.51416 0.563562 7.51416 1.25236V2.50472H5.00944C3.63184 2.50472 2.50472 3.63184 2.50472 5.00944V7.51416H1.25236C0.563562 7.51416 0 8.07772 0 8.76652C0 9.45532 0.563562 10.0189 1.25236 10.0189H2.50472V12.5236H1.25236C0.563562 12.5236 0 13.0872 0 13.776C0 14.4648 0.563562 15.0283 1.25236 15.0283H2.50472V17.533C2.50472 18.9106 3.63184 20.0378 5.00944 20.0378H7.51416V21.2901C7.51416 21.9789 8.07772 22.5425 8.76652 22.5425C9.45532 22.5425 10.0189 21.9789 10.0189 21.2901V20.0378H12.5236V21.2901C12.5236 21.9789 13.0872 22.5425 13.776 22.5425C14.4648 22.5425 15.0283 21.9789 15.0283 21.2901V20.0378H17.533C18.9106 20.0378 20.0378 18.9106 20.0378 17.533V15.0283H21.2901C21.9789 15.0283 22.5425 14.4648 22.5425 13.776C22.5425 13.0872 21.9789 12.5236 21.2901 12.5236H20.0378V10.0189H21.2901C21.9789 10.0189 22.5425 9.45532 22.5425 8.76652ZM16.2807 17.533H6.2618C5.573 17.533 5.00944 16.9695 5.00944 16.2807V6.2618C5.00944 5.573 5.573 5.00944 6.2618 5.00944H16.2807C16.9695 5.00944 17.533 5.573 17.533 6.2618V16.2807C17.533 16.9695 16.9695 17.533 16.2807 17.533Z" fill="#6CE5E8"/>
</svg>
