<svg width="315" height="310" viewBox="0 0 315 310" fill="none" xmlns="http://www.w3.org/2000/svg">
<g clip-path="url(#clip0_1903_1087)">
<path fill-rule="evenodd" clip-rule="evenodd" d="M171.388 257.699C177.896 257.451 184.393 258.441 190.526 260.618C191.105 260.822 191.893 261.551 191.893 262.054C192.018 265.38 191.935 268.723 191.963 272.066C191.991 273.244 191.302 273.328 190.459 273.065C190.006 272.872 189.582 272.614 189.203 272.299C184.082 268.678 177.837 266.967 171.569 267.468C169.342 267.681 167.195 268.4 165.291 269.564C164.762 269.903 164.338 270.38 164.064 270.94C163.791 271.503 163.68 272.131 163.743 272.751C163.807 273.373 164.042 273.963 164.424 274.459C164.805 274.955 165.318 275.34 165.904 275.563C167.045 276.108 168.243 276.527 169.476 276.81C173.627 277.834 177.849 278.67 181.976 279.809C185.441 280.597 188.584 282.407 190.992 285.001C193.317 287.967 194.403 291.71 194.025 295.45C193.648 299.19 191.835 302.642 188.964 305.092C186.518 306.868 183.949 308.467 181.277 309.886H210.02V258.828H247.668C247.668 261.732 247.601 264.51 247.696 267.292C247.751 268.646 247.212 268.921 245.971 268.921C239.237 268.867 232.525 268.894 225.785 268.894H223.748V277.428H245.821V287.615H223.788V300.05H247.684V309.945C251.355 309.945 254.832 309.876 258.292 309.973C258.791 310.057 259.304 309.943 259.718 309.655C260.133 309.367 260.421 308.931 260.515 308.44C266.473 292.347 272.505 276.282 278.465 260.174C278.567 259.679 278.857 259.242 279.276 258.957C279.695 258.669 280.211 258.555 280.712 258.639C284.792 258.723 288.865 258.736 292.947 258.639C293.481 258.562 294.019 258.696 294.456 259.006C294.89 259.319 295.184 259.787 295.279 260.311C300.85 275.267 306.428 290.224 312.016 305.181C312.456 306.347 312.887 307.517 313.425 308.944V310H18.3889V309.926H29.3685V258.867H66.7996V268.963H44.4197C43.7733 268.963 42.8209 268.646 42.8209 269.812V277.522H65.0625V287.685H42.8085C42.8085 291.435 42.8512 294.969 42.7807 298.52C42.7653 299.775 43.2067 300.077 44.4077 300.077C51.1965 300.023 57.9703 300.05 64.7591 300.05H66.8854V309.916H85.0128V258.746C90.0614 258.746 94.9051 258.785 99.7486 258.718C100.204 258.681 100.66 258.781 101.058 259.004C101.456 259.224 101.779 259.559 101.985 259.963C107.5 268.539 113.014 277.115 118.528 285.688C118.832 286.152 119.187 286.619 119.494 287.082C119.619 287.043 119.742 287.015 119.867 286.973V258.867H132.394V309.896H157.504C155.145 309.088 152.841 308.348 150.577 307.512C150.151 307.359 149.557 306.843 149.557 306.486C149.486 302.553 149.514 298.622 149.514 294.279C150.359 294.503 151.174 294.825 151.943 295.239C156.572 298.649 162.046 300.749 167.782 301.317C171.071 301.826 174.437 301.404 177.497 300.102C178.253 299.824 178.905 299.321 179.362 298.662C179.819 298.002 180.059 297.218 180.049 296.419C180.069 295.613 179.83 294.825 179.366 294.163C178.902 293.503 178.237 293.007 177.469 292.746C175.58 292.015 173.633 291.437 171.648 291.021C166.968 290.311 162.401 289.002 158.058 287.132C154.743 285.671 152.141 282.975 150.816 279.628C149.5 276.389 149.411 272.788 150.568 269.489C151.726 266.193 154.049 263.423 157.108 261.697C161.412 259.098 166.35 257.717 171.388 257.699ZM295.911 300.105C295.569 299.852 295.14 299.745 294.716 299.807C289.376 299.862 284.023 299.874 278.686 299.807C278.46 299.775 278.232 299.787 278.011 299.842C277.79 299.897 277.584 299.996 277.401 300.13C277.22 300.264 277.066 300.432 276.949 300.626C276.833 300.819 276.756 301.035 276.724 301.258C275.94 303.688 275.054 306.121 274.214 308.552C274.085 309.003 273.983 309.459 273.909 309.923H299.585C298.548 306.922 297.501 304.06 296.576 301.169L296.554 301.149C296.487 300.73 296.256 300.355 295.911 300.105ZM97.5976 309.886H119.123C111.933 298.408 104.883 287.122 97.5976 275.478V309.886ZM286.662 272.552C284.564 278.579 282.617 284.206 280.59 290.038H292.717C290.703 284.233 288.756 278.591 286.662 272.552Z" fill="white"/>
<path fill-rule="evenodd" clip-rule="evenodd" d="M195.582 0.395913C194.088 0.660444 192.622 1.08403 191.212 1.66253C183.469 4.94321 175.927 8.67453 168.627 12.8374C160.538 17.7434 152.762 23.1415 145.344 29.0003C139.012 33.957 133.286 39.7102 127.434 45.2567C125.67 46.9282 124.496 49.2075 122.839 51.031C119.413 54.3669 116.573 58.2466 114.435 62.5102C111.068 69.1452 108.768 76.2617 107.619 83.6022C107.292 85.1287 107.45 86.7184 108.073 88.1514C108.696 89.5845 109.752 90.7901 111.096 91.6013C114.502 93.837 118.318 95.3858 122.327 96.1601C123.903 96.4076 125.462 96.7603 126.99 97.2149C127.955 97.5189 129.227 97.8592 128.522 99.4759C128.467 99.6125 129.211 100.351 129.625 100.388C133.24 100.649 136.867 100.853 140.482 100.978C142.994 101.075 145.519 101.032 148.043 101.02C153.175 100.977 158.322 100.95 163.456 100.801C164.982 100.671 166.499 100.447 167.996 100.129C168.052 100.376 168.107 100.637 168.177 100.883C166.673 101.348 165.169 101.828 163.665 102.293C166.34 102.949 169.165 102.603 171.599 101.321C175.582 98.8011 179.353 95.9231 183.382 93.4734C186.942 91.2945 190.762 89.544 194.411 87.5169C197.624 85.736 200.743 83.7785 203.945 81.9973C211.544 77.568 219.458 73.6929 227.623 70.4029C228.037 70.251 228.478 70.1688 228.892 70.0472C228.947 70.1841 229.002 70.3086 229.057 70.4455C225.926 72.1991 222.792 73.9373 219.661 75.6909C219.799 75.9523 219.937 76.1988 220.063 76.4572C223.739 74.5122 227.404 72.5668 231.058 70.6218C231.14 70.7587 231.238 70.8954 231.321 71.0475C231.235 71.2207 231.132 71.3857 231.015 71.5397C230.822 71.7188 230.402 71.8131 230.365 72.0044C230.059 73.3751 230.059 73.3479 229.446 73.7856C227.458 75.2503 225.464 76.7033 223.527 78.223C221.361 79.9218 219.389 81.8698 217.094 83.359C212.333 86.3983 207.394 89.1945 202.566 92.1395C199.723 93.8777 196.938 95.7135 194.218 97.4549C196.069 97.104 197.964 97.0434 199.834 97.2756C203.158 98.3134 206.721 98.3326 210.057 97.3305C212.14 96.7013 214.14 95.7559 216.239 95.151C218.972 94.3579 221.772 93.8231 224.511 93.0419C226.466 92.506 228.384 91.843 230.252 91.0573C232.127 90.2488 233.867 89.1 235.742 88.3037C239.054 86.9058 242.421 85.6598 245.677 84.3863C245.479 84.1118 245.307 83.8185 245.166 83.511C245.462 83.1671 245.841 82.9035 246.268 82.7451C247.53 82.6355 248.783 82.4478 250.021 82.1829C254.106 80.8274 258.121 79.2927 262.189 77.8948C263.124 77.5674 264.114 77.428 265.103 77.4845C265.485 77.4602 265.867 77.5454 266.202 77.7301C266.537 77.9145 266.812 78.1906 266.993 78.5254C267.174 78.8604 267.254 79.2399 267.224 79.6188C267.194 79.9977 267.055 80.3602 266.825 80.663C265.076 83.5979 262.454 85.9232 259.319 87.319C253.634 90.4432 247.828 93.3976 242.445 96.9898C231.891 104.056 219.872 107.688 208.133 112.329C207.924 111.575 207.759 110.958 207.539 110.177C206.898 110.37 206.295 110.671 205.758 111.068C204.071 112.631 201.996 113.723 199.745 114.231C197.604 114.731 195.602 115.694 193.881 117.051C193.237 117.699 192.46 118.2 191.603 118.521C190.746 118.843 189.829 118.977 188.915 118.915C188.212 118.962 187.525 119.139 186.887 119.434C185.308 120.383 183.639 121.177 181.905 121.805C174.966 123.449 167.957 124.844 160.987 126.406C160.26 126.557 159.605 126.943 159.124 127.503C156.86 130.667 154.749 133.928 152.501 137.104C147.201 144.845 144.533 154.064 144.885 163.415C144.9 167.659 145.762 171.859 147.422 175.771C149.082 179.684 151.507 183.231 154.557 186.209C156.156 187.784 158.012 189.081 160.047 190.044C166.579 193.47 173.66 195.746 180.977 196.77C187.943 197.618 194.788 199.535 201.923 198.934C204.723 198.699 207.523 198.63 210.339 198.481C210.65 198.497 210.958 198.548 211.258 198.633C202.948 200.915 194.251 201.456 185.72 200.222C186.19 200.555 186.725 200.788 187.291 200.906C189.889 201.343 192.52 201.572 195.155 201.59C203.957 201.137 212.774 200.754 221.502 199.727C227.155 198.908 232.738 197.671 238.205 196.028C242.647 194.812 246.967 193.18 251.298 191.603C256.705 189.631 262.117 187.619 267.457 185.467C272.396 183.482 277.259 181.288 282.138 179.167C282.991 178.796 284.055 177.851 284.648 178.097C285.377 178.331 286.152 178.392 286.911 178.275C287.667 178.158 288.386 177.867 289.009 177.425C297.166 173.533 305.304 169.654 313.425 165.79V167.619C313.404 167.596 313.381 167.572 313.358 167.545C313.021 167.679 312.688 167.83 312.366 167.998C308.722 170.189 304.873 171.927 301.259 174.271C294.679 178.225 287.892 181.835 280.93 185.087C277.135 187.017 273.216 188.734 269.337 190.539C269.367 190.621 269.407 190.704 269.437 190.786L269.432 190.81C269.848 190.723 270.257 190.608 270.657 190.466C276.041 188.15 281.449 185.908 286.776 183.476C294.914 179.75 302.946 175.793 311.143 172.164C311.594 172.05 312.019 171.845 312.391 171.564C312.76 171.282 313.068 170.929 313.298 170.526C313.344 170.444 313.386 170.361 313.425 170.276V172.326C308.766 174.829 304.298 177.203 299.83 179.592C299.885 179.702 299.942 179.823 299.999 179.948L302.206 179.264C302.008 179.793 301.611 180.228 301.1 180.48C299.431 181.44 297.734 182.343 296.08 183.315C295.706 183.605 295.373 183.942 295.084 184.315C295.94 183.87 296.784 183.426 297.64 182.987C297.722 183.546 297.61 183.847 297.387 183.999C292.516 187.26 287.716 190.615 282.751 193.724C274.556 198.535 265.999 202.711 257.156 206.215C247.131 210.856 236.629 214.406 225.834 216.804C217.207 218.461 208.451 219.406 199.745 220.707C197.998 220.968 196.273 221.418 194.536 221.788L194.484 221.803H195.851V222.338C194.291 222.5 192.747 222.652 191.188 222.804C183.18 223.961 175.053 224.071 167.016 223.132C158.582 221.873 150.337 219.581 142.47 216.312C139.35 215.037 136.532 213.129 134.199 210.71C132.033 208.383 129.894 206.027 127.894 203.547C124.287 199.226 121.877 194.047 120.9 188.522C120.367 185.248 120.272 181.893 119.981 178.577C119.038 169.931 120.705 161.202 124.769 153.498C125.416 152.237 125.93 150.913 126.301 149.547C126.425 148.762 126.438 147.964 126.341 147.176C126.243 146.571 126.077 145.918 126.341 145.614C129.983 141.505 133.66 137.463 137.336 133.396C138.745 131.837 140.124 130.263 141.738 128.439H139.946C134.327 128.766 128.689 128.418 123.155 127.4C114.711 125.394 106.752 122.656 100.79 115.547C96.9033 111.327 94.1691 106.191 92.8474 100.627C91.5256 95.0624 91.6602 89.2552 93.2384 83.7573C96.8468 70.4466 103.596 58.1791 112.928 47.9677C124.827 35.007 138.428 23.6928 153.368 14.3298C157.534 11.6584 161.894 9.24819 166.198 6.86546C170.32 4.58385 174.497 2.42674 178.341 0.395913H195.582ZM132.039 203.322C131.846 203.502 131.653 203.678 131.46 203.869C133.2 205.65 134.949 207.431 136.689 209.197L137.223 208.76L132.039 203.322ZM124.046 180.124C123.912 186.622 126.015 192.97 130.008 198.122C127.937 191.861 125.991 185.987 124.046 180.124ZM294.835 184.463C293.284 185.11 291.746 185.767 290.192 186.424L290.482 186.999L294.835 184.463ZM294.835 184.463C294.892 184.44 294.95 184.415 295.007 184.392L295.023 184.385C295.018 184.387 295.012 184.389 295.007 184.392C295.009 184.384 294.997 184.371 294.996 184.37L294.835 184.463ZM295.004 184.358L295.031 184.385C295.049 184.362 295.067 184.338 295.084 184.315C295.057 184.329 295.031 184.344 295.004 184.358Z" fill="white"/>
<path d="M194.536 221.803C190.672 221.899 186.809 222 182.947 222.108C182.947 222.314 182.947 222.506 182.975 222.715C186.822 222.411 190.689 222.108 194.536 221.825V221.803Z" fill="white"/>
</g>
<defs>
<clipPath id="clip0_1903_1087">
<rect width="315" height="310" fill="white"/>
</clipPath>
</defs>
</svg>
