<svg width="148" height="57" viewBox="0 0 148 57" fill="none" xmlns="http://www.w3.org/2000/svg">
<path d="M29.4227 6.48565C29.7351 6.48565 30.0002 6.40044 30.218 6.23949C30.4262 6.07854 30.5304 5.82291 30.5399 5.47261C30.5399 5.23592 30.4168 5.02763 30.1801 4.85721C30.0759 4.772 29.9529 4.69626 29.8203 4.62052C29.6878 4.54477 29.5457 4.46903 29.4037 4.39329C29.2617 4.31755 29.1292 4.22287 28.9966 4.13766C28.8546 4.05245 28.7315 3.95778 28.6274 3.85363C28.3907 3.65481 28.2771 3.38971 28.2676 3.07728C28.2676 2.67964 28.4286 2.35774 28.7315 2.13051C29.025 1.90329 29.3943 1.79914 29.8392 1.78967C29.9718 1.78967 30.1233 1.79914 30.2937 1.81808C30.4736 1.84648 30.644 1.89382 30.8144 1.95062L30.7387 2.39561C30.502 2.27253 30.199 2.21572 29.8392 2.21572C29.7162 2.21572 29.5836 2.22519 29.4605 2.25359C29.3375 2.28199 29.2238 2.32933 29.1102 2.40507C29.0156 2.47135 28.9303 2.55656 28.8641 2.6607C28.7978 2.77431 28.7694 2.91633 28.7694 3.07728C28.7694 3.19089 28.7978 3.30451 28.8641 3.40865C28.9303 3.50333 29.0156 3.598 29.1197 3.67375C29.2238 3.74949 29.3469 3.8347 29.4889 3.90097C29.6215 3.97671 29.7635 4.05245 29.9055 4.13766C30.199 4.27968 30.4641 4.45957 30.6913 4.67732C30.7955 4.78147 30.8902 4.90455 30.9564 5.04656C31.0132 5.18858 31.0511 5.34953 31.0511 5.53888C31.0416 6.0312 30.8712 6.39098 30.5304 6.60873C30.199 6.82649 29.8298 6.93064 29.4227 6.93064C28.9398 6.92117 28.5706 6.85489 28.3055 6.72235L28.3244 6.19215C28.6084 6.38151 28.9682 6.48565 29.4227 6.48565Z" fill="white"/>
<path d="M34.8762 3.68337C34.6205 3.56976 34.3649 3.50349 34.0998 3.50349C33.6643 3.50349 33.3329 3.6455 33.0962 3.92006C32.8595 4.19463 32.7365 4.56387 32.7365 5.00885C32.7365 5.4349 32.8501 5.7852 33.0962 6.06923C33.3235 6.36273 33.6454 6.52368 34.0525 6.52368C34.327 6.52368 34.6016 6.46688 34.8667 6.36273L34.9046 6.77931C34.6111 6.86452 34.2986 6.91186 33.9767 6.90239C33.3897 6.89292 32.9637 6.70357 32.6797 6.32486C32.3862 5.96509 32.2441 5.52011 32.2441 4.99938C32.2441 4.43132 32.4146 3.9674 32.7365 3.62657C33.0584 3.27626 33.4844 3.10584 34.0241 3.09637C34.2513 3.09637 34.4312 3.11531 34.5827 3.14371C34.6584 3.15318 34.7247 3.17212 34.7815 3.18158C34.8288 3.20052 34.8762 3.21945 34.9046 3.22892L34.8762 3.68337Z" fill="white"/>
<path d="M36.2207 1.49622H36.6657V3.80634H36.6846C36.7793 3.60751 36.9308 3.43709 37.1201 3.30455C37.3189 3.18147 37.5462 3.11519 37.8112 3.11519C38.2941 3.11519 38.6255 3.26668 38.7959 3.54124C38.9663 3.82527 39.0515 4.19451 39.042 4.65843V6.82653H38.5971V4.6679C38.5971 4.50695 38.5876 4.35546 38.5687 4.21345C38.5497 4.07143 38.5119 3.95782 38.4456 3.85367C38.332 3.62645 38.0953 3.51284 37.7355 3.50337C37.3473 3.51284 37.0728 3.66432 36.9023 3.94835C36.7414 4.24185 36.6562 4.55428 36.6657 4.88565V6.82653H36.2207V1.49622Z" fill="white"/>
<path d="M44.448 6.82694H43.9083L42.9237 3.69313H42.9047L41.9201 6.82694H41.3804L40.2159 3.20081H40.7082L41.6645 6.33461H41.6739L42.6775 3.20081H43.2172L44.1734 6.33461H44.1923L45.1959 3.20081H45.6409L44.448 6.82694Z" fill="white"/>
<path d="M49.2293 6.71291C48.8885 6.84546 48.5382 6.91173 48.1784 6.91173C47.5914 6.90226 47.1654 6.72238 46.9097 6.3626C46.6541 6.0123 46.531 5.56732 46.531 5.00872C46.531 4.45013 46.6731 3.98621 46.9571 3.6359C47.2316 3.2856 47.5914 3.11518 48.0553 3.10571C48.5666 3.11518 48.9264 3.29507 49.1631 3.6359C49.3903 3.97674 49.4944 4.40279 49.4944 4.89511V5.12233H47.0139C47.0139 5.51998 47.118 5.84188 47.3169 6.09751C47.5157 6.37207 47.8092 6.50462 48.2068 6.51409C48.3867 6.51409 48.5666 6.48568 48.7559 6.41941C48.9548 6.37207 49.1063 6.3058 49.2199 6.23952V6.71291H49.2293ZM49.0116 4.75309C49.0116 4.42172 48.9453 4.13769 48.8033 3.88206C48.6518 3.6359 48.4151 3.50336 48.0837 3.49389C47.7524 3.50336 47.4967 3.6359 47.3074 3.89153C47.1086 4.14716 47.0139 4.43119 47.0139 4.75309H49.0116Z" fill="white"/>
<path d="M51.35 2.23495H50.9051V1.63849H51.35V2.23495ZM50.9051 3.20066H51.35V6.82679H50.9051V3.20066Z" fill="white"/>
<path d="M52.7039 6.44823L54.8815 3.58898H52.7891V3.20081H55.4022V3.58898L53.2246 6.44823H55.4022V6.82694H52.7039V6.44823Z" fill="white"/>
<path d="M59.1703 6.71291C58.8294 6.84546 58.4791 6.91173 58.1193 6.91173C57.5229 6.90226 57.1063 6.72238 56.8507 6.3626C56.595 6.0123 56.472 5.56732 56.472 5.00872C56.472 4.45013 56.614 3.98621 56.898 3.6359C57.1726 3.2856 57.5323 3.11518 57.9963 3.10571C58.5075 3.11518 58.8673 3.29507 59.104 3.6359C59.3312 3.97674 59.4353 4.40279 59.4353 4.89511V5.12233H56.9548C56.9548 5.51998 57.059 5.84188 57.2578 6.09751C57.4566 6.37207 57.7501 6.50462 58.1477 6.51409C58.3276 6.51409 58.5075 6.48568 58.6969 6.41941C58.8957 6.37207 59.0472 6.3058 59.1608 6.23952V6.71291H59.1703ZM58.9525 4.75309C58.9525 4.42172 58.8862 4.13769 58.7442 3.88206C58.5927 3.6359 58.356 3.50336 58.0247 3.49389C57.6933 3.50336 57.4377 3.6359 57.2483 3.89153C57.0495 4.14716 56.9548 4.43119 56.9548 4.75309H58.9525Z" fill="white"/>
<path d="M60.8463 4.01478C60.8463 3.68341 60.8369 3.40885 60.8179 3.21003H61.2629V3.91064H61.2724C61.3576 3.69288 61.4807 3.51299 61.6322 3.36151C61.7836 3.21003 61.973 3.13428 62.2002 3.12482C62.3138 3.12482 62.418 3.14375 62.5127 3.16269V3.63607C62.418 3.60767 62.3044 3.5982 62.1908 3.5982C62.0109 3.5982 61.8688 3.64554 61.7552 3.72128C61.6416 3.80649 61.5469 3.9201 61.4807 4.07159C61.4144 4.2136 61.3671 4.36509 61.3387 4.5355C61.3008 4.71539 61.2913 4.88581 61.2913 5.04676V6.83616H60.8463V4.01478Z" fill="white"/>
<path d="M64.217 2.23495H63.772V1.63849H64.217V2.23495ZM63.7625 3.20066H64.2075V6.82679H63.7625V3.20066Z" fill="white"/>
<path d="M66.5644 6.52342C66.7822 6.52342 66.981 6.46662 67.1325 6.34354C67.2839 6.22993 67.3597 6.07844 67.3691 5.87015C67.3691 5.6524 67.2745 5.49144 67.1041 5.36836C66.9336 5.25475 66.7348 5.14114 66.4981 5.04646C66.3845 4.99912 66.2804 4.94232 66.1857 4.88551C66.091 4.82871 65.9869 4.76243 65.9017 4.69616C65.8259 4.62042 65.7502 4.53521 65.7028 4.43106C65.646 4.33638 65.6271 4.22277 65.6271 4.09969C65.6271 3.73992 65.7502 3.48429 65.9963 3.33281C66.233 3.19079 66.4981 3.11505 66.8106 3.11505C66.9147 3.11505 67.0473 3.12452 67.2177 3.14345C67.3786 3.17186 67.549 3.2192 67.71 3.276L67.6721 3.66418C67.407 3.56003 67.1419 3.50323 66.8674 3.49376C66.6307 3.49376 66.4508 3.53163 66.3182 3.61684C66.2425 3.65471 66.1952 3.72098 66.1573 3.79673C66.1194 3.87247 66.091 3.97661 66.091 4.09022C66.091 4.16597 66.1194 4.24171 66.1668 4.30798C66.2236 4.36479 66.2898 4.42159 66.375 4.4784C66.4603 4.52574 66.5549 4.57308 66.6685 4.62988C66.7727 4.67722 66.8863 4.72456 66.9904 4.79083C67.2271 4.88551 67.4354 5.02753 67.6058 5.18848C67.7857 5.3589 67.8709 5.58612 67.8804 5.87962C67.8804 6.06897 67.8425 6.22993 67.7668 6.35301C67.6911 6.48555 67.5869 6.5897 67.4638 6.67491C67.1987 6.83586 66.9147 6.9116 66.6212 6.9116C66.2709 6.9116 65.9301 6.85479 65.6082 6.74118L65.646 6.2962C65.8922 6.44768 66.2046 6.52342 66.5644 6.52342Z" fill="white"/>
<path d="M71.5729 3.68337C71.3173 3.56976 71.0522 3.50349 70.7966 3.50349C70.361 3.50349 70.0297 3.6455 69.793 3.92006C69.5563 4.19463 69.4332 4.56387 69.4332 5.00885C69.4332 5.4349 69.5468 5.7852 69.793 6.06923C70.0202 6.36273 70.3421 6.52368 70.7492 6.52368C71.0238 6.52368 71.2983 6.46688 71.5634 6.36273L71.6013 6.77931C71.3078 6.86452 70.9954 6.91186 70.6735 6.90239C70.0865 6.89292 69.6604 6.70357 69.3764 6.32486C69.0829 5.96509 68.9409 5.52011 68.9409 4.99938C68.9409 4.43132 69.1113 3.9674 69.4332 3.62657C69.7551 3.27626 70.1812 3.10584 70.7208 3.09637C70.948 3.09637 71.1279 3.11531 71.2794 3.14371C71.3552 3.15318 71.4214 3.17212 71.4782 3.18158C71.5256 3.20052 71.5729 3.21945 71.6013 3.22892L71.5729 3.68337Z" fill="white"/>
<path d="M72.9178 1.49622H73.3628V3.80634H73.3817C73.4764 3.60751 73.6279 3.43709 73.8173 3.30455C74.0161 3.18147 74.2433 3.11519 74.5084 3.11519C74.9912 3.11519 75.3226 3.26668 75.493 3.54124C75.6635 3.82527 75.7487 4.19451 75.7392 4.65843V6.82653H75.2942V4.6679C75.2942 4.50695 75.2847 4.35546 75.2658 4.21345C75.2469 4.07143 75.209 3.95782 75.1427 3.85367C75.0291 3.62645 74.7924 3.51284 74.4326 3.50337C74.0445 3.51284 73.7699 3.66432 73.5995 3.94835C73.4385 4.24185 73.3533 4.55428 73.3628 4.88565V6.82653H72.9178V1.49622Z" fill="white"/>
<path d="M79.8483 6.71291C79.5075 6.84546 79.1571 6.91173 78.7974 6.91173C78.2104 6.90226 77.7843 6.72238 77.5287 6.3626C77.2731 6.0123 77.15 5.56732 77.15 5.00872C77.15 4.45013 77.292 3.98621 77.576 3.6359C77.8506 3.2856 78.2104 3.11518 78.6743 3.10571C79.1856 3.11518 79.5453 3.29507 79.782 3.6359C80.0092 3.97674 80.1134 4.40279 80.1134 4.89511V5.12233H77.6328C77.6328 5.51998 77.737 5.84188 77.9358 6.09751C78.1346 6.37207 78.4281 6.50462 78.8258 6.51409C79.0057 6.51409 79.1855 6.48568 79.3749 6.41941C79.5737 6.37207 79.7252 6.3058 79.8388 6.23952V6.71291H79.8483ZM79.6305 4.75309C79.6305 4.42172 79.5643 4.13769 79.4222 3.88206C79.2708 3.6359 79.0341 3.50336 78.7027 3.49389C78.3713 3.50336 78.1157 3.6359 77.9263 3.89153C77.7275 4.14716 77.6328 4.43119 77.6328 4.75309H79.6305Z" fill="white"/>
<path d="M83.8903 1.86566H86.314V2.29171H84.3731V4.06217H86.2098V4.48822H84.3731V6.40069H86.3992V6.82674H83.8903V1.86566Z" fill="white"/>
<path d="M88.3878 2.23495H87.9428V1.63849H88.3878V2.23495ZM87.9428 3.20066H88.3878V6.82679H87.9428V3.20066Z" fill="white"/>
<path d="M92.9416 6.82653H92.4966V6.249H92.4777C92.241 6.69398 91.8623 6.91174 91.3511 6.91174C90.8587 6.90227 90.48 6.72239 90.2339 6.36261C89.9782 6.00284 89.8552 5.55786 89.8552 5.00873C89.8457 4.45014 89.9688 3.99569 90.2055 3.64538C90.4422 3.29508 90.8209 3.11519 91.3511 3.11519C91.5309 3.11519 91.6824 3.1436 91.8244 3.19093C91.9665 3.24774 92.0801 3.30455 92.1653 3.38976C92.3546 3.56017 92.4588 3.69272 92.4872 3.80634H92.5061V1.49622H92.9511V6.82653H92.9416ZM90.4043 5.52946C90.4422 5.70934 90.499 5.87976 90.5747 6.03125C90.6599 6.17326 90.7735 6.28687 90.9061 6.38155C91.0386 6.47623 91.209 6.53303 91.4268 6.53303C91.6256 6.53303 91.796 6.48569 91.9381 6.38155C92.0706 6.29634 92.1747 6.17326 92.26 6.02178C92.4209 5.69988 92.4966 5.36851 92.4966 5.0182C92.4966 4.84778 92.4777 4.67736 92.4493 4.49748C92.4114 4.32706 92.3546 4.16611 92.26 4.01462C92.1747 3.86314 92.0611 3.74006 91.9381 3.64538C91.796 3.56017 91.6256 3.51284 91.4268 3.51284C91.209 3.51284 91.0386 3.56017 90.9061 3.64538C90.7641 3.73059 90.6599 3.85367 90.5747 4.00516C90.499 4.14717 90.4422 4.30812 90.4043 4.48801C90.3664 4.6679 90.3569 4.84778 90.3569 5.02767C90.3475 5.17915 90.3664 5.35904 90.4043 5.52946Z" fill="white"/>
<path d="M97.4487 6.52342C97.4487 7.03468 97.3256 7.47019 97.07 7.81103C96.8143 8.16134 96.3694 8.34122 95.7445 8.35069C95.5078 8.34122 95.2901 8.32229 95.0912 8.27495C94.8924 8.22761 94.7504 8.18974 94.6462 8.16134L94.6841 7.71635C94.9776 7.87731 95.3374 7.96252 95.7445 7.97198C96.038 7.97198 96.2558 7.91518 96.4262 7.81103C96.5966 7.71636 96.7197 7.58381 96.8049 7.41339C96.8901 7.24297 96.9469 7.04415 96.9658 6.82639C96.9848 6.60863 96.9942 6.36247 96.9942 6.10685H96.9753C96.7197 6.5897 96.3504 6.82639 95.877 6.81692C95.309 6.79799 94.9113 6.59917 94.6841 6.20152C94.561 6.02164 94.4853 5.82281 94.438 5.62399C94.3811 5.4157 94.3527 5.20741 94.3527 5.00859C94.3433 4.45 94.4664 3.99555 94.703 3.64524C94.9397 3.29494 95.3184 3.11505 95.8486 3.11505C96.0853 3.11505 96.2936 3.14345 96.4735 3.19079C96.6534 3.25707 96.8143 3.39908 96.9753 3.60737H96.9942V3.20026H97.4392V6.52342H97.4487ZM95.0912 5.98377C95.2522 6.27726 95.5173 6.42875 95.896 6.43822C96.3031 6.42875 96.5871 6.2678 96.7575 5.96483C96.9185 5.67133 96.9942 5.34943 96.9942 5.00859C96.9942 4.55414 96.9185 4.19437 96.767 3.91981C96.6061 3.64524 96.3315 3.50323 95.9244 3.49376C95.7066 3.49376 95.5362 3.5411 95.4037 3.62631C95.2616 3.71152 95.1575 3.8346 95.0723 3.98608C94.9965 4.1281 94.9397 4.28905 94.9019 4.46893C94.864 4.64882 94.8545 4.82871 94.8545 5.00859C94.8451 5.37783 94.9303 5.7092 95.0912 5.98377Z" fill="white"/>
<path d="M101.51 6.71291C101.169 6.84546 100.819 6.91173 100.459 6.91173C99.872 6.90226 99.4459 6.72238 99.1903 6.3626C98.9347 6.0123 98.8116 5.56732 98.8116 5.00872C98.8116 4.45013 98.9536 3.98621 99.2376 3.6359C99.5122 3.2856 99.872 3.11518 100.336 3.10571C100.847 3.11518 101.207 3.29507 101.444 3.6359C101.671 3.97674 101.775 4.40279 101.775 4.89511V5.12233H99.2944C99.2944 5.51998 99.3986 5.84188 99.5974 6.09751C99.7962 6.37207 100.09 6.50462 100.487 6.51409C100.667 6.51409 100.847 6.48568 101.037 6.41941C101.235 6.37207 101.387 6.3058 101.5 6.23952V6.71291H101.51ZM101.283 4.75309C101.283 4.42172 101.216 4.13769 101.074 3.88206C100.923 3.6359 100.686 3.50336 100.355 3.49389C100.023 3.50336 99.7678 3.6359 99.5785 3.89153C99.3797 4.14716 99.285 4.43119 99.285 4.75309H101.283Z" fill="white"/>
<path d="M103.186 4.05248C103.186 3.77792 103.176 3.48442 103.158 3.20039H103.593V3.84419H103.612C103.65 3.75898 103.707 3.67378 103.763 3.58857C103.82 3.50336 103.896 3.42762 103.981 3.35187C104.066 3.27613 104.18 3.21933 104.313 3.17199C104.445 3.12465 104.606 3.10571 104.786 3.10571C105.231 3.10571 105.553 3.24773 105.742 3.50336C105.922 3.75898 106.017 4.09035 106.017 4.49747V6.80758H105.572V4.62055C105.572 4.27971 105.506 4.00514 105.382 3.79686C105.24 3.59803 105.023 3.50336 104.71 3.50336C104.313 3.51282 104.038 3.65484 103.877 3.9294C103.792 4.06195 103.735 4.1945 103.697 4.34598C103.659 4.50693 103.64 4.65842 103.64 4.81937V6.82652H103.195V4.05248H103.186Z" fill="white"/>
<path d="M107.816 3.69258C108.09 3.31387 108.516 3.12452 109.094 3.11505C109.681 3.12452 110.116 3.31387 110.391 3.69258C110.656 4.06182 110.789 4.49734 110.789 5.01806C110.789 5.52932 110.656 5.96483 110.391 6.33407C110.116 6.71278 109.681 6.90213 109.094 6.9116C108.516 6.90213 108.09 6.71278 107.816 6.33407C107.541 5.96483 107.399 5.52932 107.399 5.01806C107.409 4.49734 107.541 4.05235 107.816 3.69258ZM108.213 6.07844C108.412 6.37194 108.706 6.52342 109.103 6.52342C109.501 6.52342 109.794 6.37194 110.003 6.07844C110.202 5.80388 110.296 5.44411 110.296 5.01806C110.296 4.59201 110.202 4.23224 110.003 3.93874C109.794 3.65471 109.491 3.51269 109.103 3.50323C108.706 3.50323 108.412 3.65471 108.213 3.93874C108.005 4.23224 107.901 4.59201 107.901 5.01806C107.901 5.44411 108.005 5.79441 108.213 6.07844Z" fill="white"/>
<path d="M112.852 6.52342C113.07 6.52342 113.269 6.46662 113.421 6.34354C113.572 6.22993 113.648 6.07844 113.657 5.87015C113.657 5.6524 113.563 5.49144 113.392 5.36836C113.222 5.25475 113.023 5.14114 112.786 5.04646C112.673 4.99912 112.568 4.94232 112.474 4.88551C112.379 4.82871 112.275 4.76243 112.19 4.69616C112.114 4.62042 112.038 4.53521 111.991 4.43106C111.934 4.33638 111.915 4.22277 111.915 4.09969C111.915 3.73992 112.038 3.48429 112.284 3.33281C112.521 3.19079 112.786 3.11505 113.099 3.11505C113.203 3.11505 113.335 3.12452 113.506 3.14345C113.667 3.17186 113.837 3.2192 113.998 3.276L113.96 3.66418C113.695 3.56003 113.43 3.50323 113.155 3.49376C112.919 3.49376 112.739 3.53163 112.606 3.61684C112.531 3.65471 112.483 3.72098 112.445 3.79673C112.407 3.87247 112.379 3.97661 112.379 4.09022C112.379 4.16597 112.407 4.24171 112.455 4.30798C112.512 4.36479 112.578 4.42159 112.663 4.4784C112.748 4.52574 112.843 4.57308 112.957 4.62988C113.061 4.67722 113.174 4.72456 113.279 4.79083C113.515 4.88551 113.724 5.02753 113.894 5.18848C114.074 5.3589 114.159 5.58612 114.168 5.87962C114.168 6.06897 114.131 6.22993 114.055 6.35301C113.979 6.48555 113.875 6.5897 113.752 6.67491C113.487 6.83586 113.203 6.9116 112.909 6.9116C112.559 6.9116 112.218 6.85479 111.896 6.74118L111.934 6.2962C112.18 6.44768 112.502 6.52342 112.852 6.52342Z" fill="white"/>
<path d="M116.166 6.52342C116.384 6.52342 116.583 6.46662 116.734 6.34354C116.886 6.22993 116.961 6.07844 116.971 5.87015C116.971 5.6524 116.876 5.49144 116.706 5.36836C116.535 5.25475 116.337 5.14114 116.1 5.04646C115.986 4.99912 115.882 4.94232 115.787 4.88551C115.693 4.82871 115.589 4.76243 115.503 4.69616C115.428 4.62042 115.352 4.53521 115.305 4.43106C115.248 4.33638 115.229 4.22277 115.229 4.09969C115.229 3.73992 115.352 3.48429 115.598 3.33281C115.835 3.19079 116.1 3.11505 116.412 3.11505C116.516 3.11505 116.649 3.12452 116.819 3.14345C116.98 3.17186 117.151 3.2192 117.312 3.276L117.274 3.66418C117.009 3.56003 116.744 3.50323 116.469 3.49376C116.232 3.49376 116.053 3.53163 115.92 3.61684C115.844 3.65471 115.797 3.72098 115.759 3.79673C115.721 3.87247 115.693 3.97661 115.693 4.09022C115.693 4.16597 115.721 4.24171 115.768 4.30798C115.825 4.36479 115.892 4.42159 115.977 4.4784C116.062 4.52574 116.157 4.57308 116.27 4.62988C116.374 4.67722 116.488 4.72456 116.592 4.79083C116.829 4.88551 117.037 5.02753 117.208 5.18848C117.387 5.3589 117.473 5.58612 117.482 5.87962C117.482 6.06897 117.444 6.22993 117.369 6.35301C117.293 6.48555 117.189 6.5897 117.066 6.67491C116.8 6.83586 116.516 6.9116 116.223 6.9116C115.873 6.9116 115.532 6.85479 115.21 6.74118L115.248 6.2962C115.503 6.44768 115.816 6.52342 116.166 6.52342Z" fill="white"/>
<path d="M121.25 6.71291C120.909 6.84546 120.559 6.91173 120.199 6.91173C119.612 6.90226 119.186 6.72238 118.931 6.3626C118.675 6.0123 118.552 5.56732 118.552 5.00872C118.552 4.45013 118.694 3.98621 118.978 3.6359C119.253 3.2856 119.612 3.11518 120.076 3.10571C120.588 3.11518 120.947 3.29507 121.184 3.6359C121.411 3.97674 121.515 4.40279 121.515 4.89511V5.12233H119.035C119.035 5.51998 119.139 5.84188 119.338 6.09751C119.537 6.37207 119.83 6.50462 120.228 6.51409C120.408 6.51409 120.588 6.48568 120.777 6.41941C120.976 6.37207 121.127 6.3058 121.241 6.23952V6.71291H121.25ZM121.023 4.75309C121.023 4.42172 120.957 4.13769 120.815 3.88206C120.663 3.6359 120.427 3.50336 120.095 3.49389C119.764 3.50336 119.508 3.6359 119.319 3.89153C119.12 4.14716 119.025 4.43119 119.025 4.75309H121.023Z" fill="white"/>
<path d="M122.926 4.05248C122.926 3.77792 122.917 3.48442 122.898 3.20039H123.333V3.84419H123.352C123.39 3.75898 123.447 3.67378 123.504 3.58857C123.56 3.50336 123.636 3.42762 123.721 3.35187C123.806 3.27613 123.92 3.21933 124.053 3.17199C124.185 3.12465 124.346 3.10571 124.526 3.10571C124.971 3.10571 125.293 3.24773 125.482 3.50336C125.662 3.75898 125.757 4.09035 125.757 4.49747V6.80758H125.312V4.62055C125.312 4.27971 125.246 4.00514 125.123 3.79686C124.98 3.59803 124.763 3.50336 124.45 3.50336C124.053 3.51282 123.778 3.65484 123.617 3.9294C123.532 4.06195 123.475 4.1945 123.437 4.34598C123.399 4.50693 123.38 4.65842 123.38 4.81937V6.82652H122.935V4.05248H122.926Z" fill="white"/>
<path d="M128.095 6.52342C128.313 6.52342 128.512 6.46662 128.663 6.34354C128.815 6.22993 128.89 6.07844 128.9 5.87015C128.9 5.6524 128.805 5.49144 128.635 5.36836C128.464 5.25475 128.266 5.14114 128.029 5.04646C127.915 4.99912 127.811 4.94232 127.716 4.88551C127.622 4.82871 127.518 4.76243 127.432 4.69616C127.357 4.62042 127.281 4.53521 127.234 4.43106C127.177 4.33638 127.158 4.22277 127.158 4.09969C127.158 3.73992 127.281 3.48429 127.527 3.33281C127.764 3.19079 128.029 3.11505 128.341 3.11505C128.445 3.11505 128.578 3.12452 128.748 3.14345C128.909 3.17186 129.08 3.2192 129.241 3.276L129.203 3.66418C128.938 3.56003 128.673 3.50323 128.398 3.49376C128.161 3.49376 127.982 3.53163 127.849 3.61684C127.773 3.65471 127.726 3.72098 127.688 3.79673C127.622 3.88194 127.603 3.97661 127.603 4.09969C127.603 4.17543 127.631 4.25118 127.679 4.31745C127.735 4.37426 127.802 4.43106 127.887 4.48787C127.972 4.53521 128.067 4.58255 128.18 4.63935C128.285 4.68669 128.398 4.73403 128.502 4.8003C128.739 4.89498 128.947 5.03699 129.118 5.19795C129.298 5.36836 129.383 5.59559 129.392 5.88909C129.392 6.07844 129.354 6.23939 129.279 6.36247C129.203 6.49502 129.099 6.59917 128.976 6.68438C128.711 6.84533 128.427 6.92107 128.133 6.92107C127.783 6.92107 127.442 6.86426 127.12 6.75065L127.158 6.30567C127.423 6.44768 127.735 6.52342 128.095 6.52342Z" fill="white"/>
<path d="M133.094 3.68337C132.838 3.56976 132.583 3.50349 132.318 3.50349C131.882 3.50349 131.551 3.6455 131.314 3.92006C131.077 4.19463 130.954 4.56387 130.954 5.00885C130.954 5.4349 131.068 5.7852 131.314 6.06923C131.541 6.36273 131.863 6.52368 132.27 6.52368C132.545 6.52368 132.82 6.46688 133.085 6.36273L133.123 6.77931C132.829 6.86452 132.517 6.91186 132.195 6.90239C131.608 6.89292 131.182 6.70357 130.898 6.32486C130.604 5.96509 130.462 5.52011 130.462 4.99938C130.462 4.43132 130.633 3.9674 130.954 3.62657C131.276 3.27626 131.702 3.10584 132.242 3.09637C132.469 3.09637 132.649 3.11531 132.801 3.14371C132.876 3.15318 132.943 3.17212 132.999 3.18158C133.047 3.20052 133.094 3.21945 133.123 3.22892L133.094 3.68337Z" fill="white"/>
<path d="M134.448 1.49622H134.893V3.80634H134.912C135.007 3.60751 135.158 3.43709 135.347 3.30455C135.546 3.18147 135.773 3.11519 136.039 3.11519C136.521 3.11519 136.853 3.26668 137.023 3.54124C137.194 3.82527 137.279 4.19451 137.269 4.65843V6.82653H136.824V4.6679C136.824 4.50695 136.815 4.35546 136.796 4.21345C136.777 4.07143 136.739 3.95782 136.673 3.85367C136.559 3.62645 136.323 3.51284 135.963 3.50337C135.575 3.51284 135.3 3.66432 135.13 3.94835C134.969 4.24185 134.883 4.55428 134.893 4.88565V6.82653H134.448V1.49622Z" fill="white"/>
<path d="M141.028 6.23954H141.019C140.914 6.4573 140.754 6.61825 140.545 6.73186C140.337 6.84547 140.11 6.90228 139.873 6.91175C139.627 6.91175 139.419 6.86441 139.267 6.78867C139.106 6.72239 138.983 6.62772 138.898 6.52357C138.746 6.28688 138.671 6.07859 138.68 5.88924C138.68 5.58627 138.756 5.34958 138.898 5.16969C139.04 4.9898 139.22 4.86672 139.447 4.79098C139.665 4.71524 139.911 4.65843 140.167 4.63003C140.422 4.6111 140.668 4.6111 140.905 4.6111H140.99V4.43121C141 3.80634 140.725 3.50337 140.167 3.50337C139.788 3.49391 139.438 3.59805 139.106 3.79687V3.36136C139.438 3.20041 139.797 3.12467 140.167 3.1152C141.028 3.10573 141.445 3.55071 141.435 4.45961V6.05965C141.435 6.33422 141.445 6.58985 141.473 6.81707H141.038V6.23954H141.028ZM140.99 4.99927H140.858C140.659 4.99927 140.47 5.00874 140.271 5.01821C140.072 5.03714 139.883 5.07501 139.722 5.14129C139.561 5.19809 139.419 5.2833 139.324 5.40638C139.21 5.52 139.163 5.68095 139.163 5.87977C139.163 6.11646 139.239 6.27741 139.39 6.37209C139.532 6.47623 139.703 6.53304 139.911 6.53304C140.176 6.53304 140.375 6.47623 140.526 6.37209C140.678 6.27741 140.782 6.15433 140.848 6.01232C140.924 5.8703 140.962 5.71882 140.971 5.5768C140.981 5.43479 140.981 5.31171 140.981 5.21703V4.99927H140.99Z" fill="white"/>
<path d="M143.357 3.58883H142.628V3.20065H143.357V2.93555C143.357 2.73673 143.366 2.55685 143.385 2.36749C143.395 2.18761 143.433 2.02666 143.489 1.88464C143.546 1.74262 143.65 1.61954 143.783 1.53433C143.906 1.44913 144.086 1.41125 144.313 1.41125C144.389 1.41125 144.465 1.41125 144.55 1.42072C144.625 1.43966 144.692 1.45859 144.739 1.487L144.711 1.87517C144.616 1.82783 144.493 1.79943 144.351 1.79943C144.199 1.79943 144.095 1.8373 144.02 1.89411C143.944 1.96985 143.887 2.06453 143.859 2.16867C143.83 2.28228 143.811 2.3959 143.811 2.51898C143.811 2.64206 143.802 2.7746 143.802 2.88822V3.20065H144.616V3.58883H143.802V6.82678H143.357V3.58883Z" fill="white"/>
<path d="M147.532 3.58861H146.708V5.9366C146.708 6.09755 146.746 6.23957 146.822 6.35318C146.898 6.46679 147.021 6.53307 147.191 6.53307C147.352 6.53307 147.485 6.50467 147.598 6.44786L147.627 6.8171C147.57 6.83603 147.504 6.85497 147.409 6.88337C147.305 6.90231 147.201 6.92124 147.078 6.92124C146.879 6.92124 146.727 6.89284 146.614 6.82657C146.5 6.76029 146.424 6.67508 146.368 6.56147C146.32 6.44786 146.292 6.32478 146.273 6.18276C146.254 6.04075 146.254 5.88926 146.254 5.71885V3.58861H145.544V3.20044H146.254V2.32941L146.699 2.16846V3.20044H147.523V3.58861H147.532Z" fill="white"/>
<path d="M31.2691 12.1855C31.0703 12.1666 30.8715 12.1477 30.6916 12.1477C30.0478 12.1571 29.5555 12.356 29.2052 12.7536C28.8549 13.1512 28.675 13.6625 28.675 14.2874C28.675 14.9217 28.8454 15.433 29.1957 15.8211C29.5366 16.2188 30.0289 16.4176 30.6822 16.4271C30.8526 16.4271 31.0419 16.4081 31.2597 16.3797C31.468 16.3513 31.6479 16.2945 31.7899 16.2188L31.8183 16.6448C31.6668 16.7206 31.4869 16.7774 31.2691 16.8058C31.0514 16.8342 30.8526 16.8531 30.6822 16.8531C29.8963 16.8436 29.2809 16.607 28.8454 16.143C28.4004 15.6886 28.1827 15.0637 28.1827 14.2874C28.1827 13.5205 28.4099 12.9051 28.8549 12.4317C29.2904 11.9678 29.9058 11.7311 30.6822 11.7216C30.8431 11.7216 31.0419 11.7311 31.2691 11.7595C31.4964 11.7879 31.6763 11.8352 31.8183 11.911L31.7899 12.3654C31.6479 12.2802 31.468 12.2139 31.2691 12.1855Z" fill="white"/>
<path d="M33.598 13.6335C33.8725 13.2548 34.2986 13.0654 34.8761 13.056C35.4631 13.0654 35.8986 13.2548 36.1732 13.6335C36.4383 14.0027 36.5708 14.4383 36.5708 14.959C36.5708 15.4702 36.4383 15.9057 36.1732 16.275C35.8986 16.6537 35.4631 16.8431 34.8761 16.8525C34.2986 16.8431 33.8725 16.6537 33.598 16.275C33.3234 15.9057 33.1814 15.4702 33.1814 14.959C33.1909 14.4383 33.3234 13.9933 33.598 13.6335ZM33.9956 16.0194C34.1944 16.3129 34.4879 16.4643 34.8856 16.4643C35.2832 16.4643 35.5767 16.3129 35.785 16.0194C35.9838 15.7448 36.0785 15.385 36.0785 14.959C36.0785 14.5329 35.9838 14.1732 35.785 13.8797C35.5767 13.5956 35.2738 13.4536 34.8856 13.4441C34.4879 13.4441 34.1944 13.5956 33.9956 13.8797C33.7873 14.1732 33.6832 14.5329 33.6832 14.959C33.6832 15.385 33.7873 15.7353 33.9956 16.0194Z" fill="white"/>
<path d="M37.9719 13.9938C37.9719 13.7192 37.9625 13.4257 37.9435 13.1417H38.3791V13.7855H38.398C38.4359 13.7003 38.4927 13.6151 38.5495 13.5299C38.6063 13.4446 38.682 13.3689 38.7672 13.2932C38.8524 13.2174 38.9661 13.1606 39.0986 13.1133C39.2312 13.0659 39.3921 13.047 39.572 13.047C40.017 13.047 40.3389 13.189 40.5282 13.4446C40.7081 13.7003 40.8028 14.0316 40.8028 14.4387V16.7489H40.3578V14.5429C40.3578 14.2021 40.2915 13.9275 40.1685 13.7192C40.0264 13.5204 39.8087 13.4257 39.4962 13.4257C39.0986 13.4352 38.824 13.5772 38.6631 13.8518C38.5779 13.9843 38.5211 14.1168 38.4832 14.2683C38.4453 14.4293 38.4264 14.5808 38.4264 14.7417V16.7489H37.9814V13.9938H37.9719Z" fill="white"/>
<path d="M42.7722 13.5297H42.0432V13.1416H42.7722V12.8765C42.7722 12.6777 42.7817 12.4978 42.8006 12.3084C42.8101 12.1285 42.848 11.9676 42.9048 11.8256C42.9616 11.6835 43.0657 11.5605 43.1983 11.4753C43.3214 11.39 43.5012 11.3522 43.7285 11.3522C43.8042 11.3522 43.8799 11.3522 43.9652 11.3616C44.0409 11.3806 44.1072 11.3995 44.1545 11.4279L44.1261 11.8161C44.0314 11.7688 43.9084 11.7403 43.7663 11.7403C43.6243 11.7403 43.5107 11.7782 43.435 11.835C43.3592 11.9108 43.3024 12.0054 43.274 12.1096C43.2456 12.2232 43.2361 12.3368 43.2361 12.4599C43.2361 12.583 43.2267 12.7155 43.2267 12.8291V13.1416H44.0409V13.5297H43.2267V16.7677H42.7722V13.5297Z" fill="white"/>
<path d="M47.8186 16.6543C47.4778 16.7868 47.1275 16.8531 46.7677 16.8531C46.1807 16.8436 45.7547 16.6638 45.499 16.304C45.2434 15.9537 45.1203 15.5087 45.1203 14.9501C45.1203 14.3915 45.2623 13.9276 45.5464 13.5773C45.8209 13.227 46.1807 13.0566 46.6446 13.0471C47.1559 13.0566 47.5157 13.2365 47.7524 13.5773C47.9796 13.9181 48.0837 14.3442 48.0837 14.8365V15.0637H45.6127C45.6127 15.4614 45.7168 15.7833 45.9156 16.0389C46.1144 16.3135 46.4079 16.446 46.8056 16.4555C46.9855 16.4555 47.1654 16.4271 47.3547 16.3608C47.5535 16.3135 47.705 16.2472 47.8186 16.1809V16.6543ZM47.6009 14.6945C47.6009 14.3631 47.5346 14.0791 47.3926 13.8234C47.2411 13.5773 47.0044 13.4447 46.673 13.4353C46.3417 13.4447 46.086 13.5773 45.8967 13.8329C45.6979 14.0885 45.6032 14.3726 45.6032 14.6945H47.6009ZM46.8719 11.7216H47.4305L46.5405 12.7441H46.2091L46.8719 11.7216Z" fill="white"/>
<path d="M52.3631 16.7679H51.9181V16.1903H51.8992C51.6625 16.6353 51.2838 16.8531 50.7725 16.8531C50.2802 16.8436 49.9015 16.6637 49.6553 16.304C49.3997 15.9442 49.2766 15.4992 49.2766 14.9501C49.2671 14.3915 49.3902 13.937 49.6269 13.5867C49.8636 13.2364 50.2423 13.0565 50.7725 13.0565C50.9524 13.0565 51.1039 13.0849 51.2459 13.1323C51.3879 13.1891 51.5015 13.2459 51.5867 13.3311C51.7761 13.5015 51.8802 13.6341 51.9086 13.7477H51.9276V11.4376H52.3725V16.7679H52.3631ZM49.8163 15.4708C49.8541 15.6507 49.9109 15.8211 49.9867 15.9726C50.0719 16.1146 50.1855 16.2282 50.318 16.3229C50.4506 16.4176 50.621 16.4744 50.8388 16.4744C51.0376 16.4744 51.208 16.427 51.35 16.3229C51.4826 16.2377 51.5867 16.1146 51.6719 15.9631C51.8329 15.6412 51.9086 15.3099 51.9086 14.9595C51.9086 14.7891 51.8897 14.6187 51.8613 14.4388C51.8234 14.2684 51.7666 14.1075 51.6719 13.956C51.5867 13.8045 51.4731 13.6814 51.35 13.5867C51.208 13.5015 51.0376 13.4542 50.8388 13.4542C50.621 13.4542 50.4506 13.5015 50.318 13.5867C50.176 13.6719 50.0719 13.795 49.9867 13.9465C49.9109 14.0885 49.8541 14.2495 49.8163 14.4294C49.7784 14.6092 49.7689 14.7891 49.7689 14.969C49.7689 15.1205 49.7879 15.3004 49.8163 15.4708Z" fill="white"/>
<path d="M56.4248 16.6543C56.084 16.7868 55.7337 16.8531 55.3739 16.8531C54.7869 16.8436 54.3608 16.6638 54.1052 16.304C53.8496 15.9537 53.7265 15.5087 53.7265 14.9501C53.7265 14.3915 53.8685 13.9276 54.1525 13.5773C54.4271 13.227 54.7869 13.0566 55.2508 13.0471C55.7621 13.0566 56.1218 13.2365 56.3585 13.5773C56.5857 13.9181 56.6899 14.3442 56.6899 14.8365V15.0637H54.2094C54.2094 15.4614 54.3135 15.7833 54.5123 16.0389C54.7111 16.3135 55.0046 16.446 55.4023 16.4555C55.5822 16.4555 55.7621 16.4271 55.9514 16.3608C56.1502 16.3135 56.3017 16.2472 56.4153 16.1809V16.6543H56.4248ZM56.207 14.6945C56.207 14.3631 56.1408 14.0791 55.9987 13.8234C55.8473 13.5773 55.6106 13.4447 55.2792 13.4353C54.9478 13.4447 54.6922 13.5773 54.5029 13.8329C54.304 14.0885 54.2094 14.3726 54.2094 14.6945H56.207ZM55.478 11.7216H56.0366L55.1467 12.7441H54.8153L55.478 11.7216Z" fill="white"/>
<path d="M58.1005 13.9561C58.1005 13.6247 58.091 13.3501 58.0721 13.1513H58.5171V13.8519H58.5265C58.6117 13.6342 58.7348 13.4543 58.8863 13.3028C59.0378 13.1513 59.2271 13.0756 59.4544 13.0661C59.568 13.0661 59.6721 13.085 59.7668 13.104V13.5774C59.6721 13.549 59.5585 13.5395 59.4449 13.5395C59.265 13.5395 59.123 13.5868 59.0094 13.6626C58.8958 13.7478 58.8011 13.8614 58.7348 14.0129C58.6686 14.1549 58.6212 14.3064 58.5928 14.4768C58.5549 14.6567 58.5455 14.8271 58.5455 14.988V16.7774H58.1005V13.9561Z" fill="white"/>
<path d="M63.0995 16.1805H63.0806C62.9764 16.3982 62.8155 16.5592 62.6072 16.6728C62.3894 16.7864 62.1717 16.8432 61.935 16.8527C61.6793 16.8527 61.4805 16.8053 61.3196 16.7296C61.1586 16.6633 61.0355 16.5686 60.9503 16.4645C60.7988 16.2278 60.7326 16.0195 60.7326 15.8302C60.7326 15.5272 60.8083 15.2905 60.9503 15.1106C61.0923 14.9307 61.2722 14.8076 61.4995 14.7319C61.7172 14.6562 61.9634 14.5994 62.2285 14.571C62.4841 14.552 62.7303 14.552 62.967 14.552H63.0522V14.3721C63.0616 13.7473 62.7871 13.4443 62.2285 13.4443C61.8498 13.4348 61.4995 13.539 61.1681 13.7378V13.3023C61.4995 13.1413 61.8592 13.0656 62.2285 13.0561C63.0806 13.0466 63.5066 13.4916 63.4971 14.4005V16.0006C63.4971 16.2751 63.5066 16.5308 63.535 16.758H63.0995V16.1805ZM63.0522 14.9402H62.9196C62.7208 14.9402 62.5314 14.9497 62.3421 14.9591C62.1338 14.9781 61.9539 15.0159 61.793 15.0822C61.6225 15.139 61.4995 15.2242 61.3953 15.3473C61.2817 15.4609 61.2344 15.6219 61.2344 15.8207C61.2344 16.0574 61.3101 16.2183 61.4616 16.313C61.6036 16.4172 61.774 16.474 61.9823 16.474C62.2379 16.474 62.4462 16.4172 62.5977 16.313C62.7397 16.2183 62.8533 16.0952 62.9196 15.9532C62.9954 15.8112 63.0332 15.6597 63.0427 15.5177C63.0522 15.3757 63.0616 15.2526 63.0616 15.1579V14.9402H63.0522Z" fill="white"/>
<path d="M66.6883 13.5297H65.8646V15.8777C65.8646 16.0386 65.9025 16.1807 65.9782 16.2943C66.0445 16.4079 66.1676 16.4742 66.3475 16.4742C66.5084 16.4742 66.6409 16.4458 66.764 16.3889L66.7924 16.7582C66.7356 16.7771 66.6694 16.7961 66.5747 16.8245C66.4705 16.8434 66.3664 16.8623 66.2433 16.8623C66.0445 16.8623 65.893 16.8339 65.7794 16.7677C65.6658 16.7014 65.59 16.6162 65.5332 16.5026C65.4859 16.3889 65.4575 16.2659 65.4385 16.1238C65.4291 15.9818 65.4196 15.8304 65.4196 15.6599V13.5486H64.7095V13.1605H65.4196V12.2894L65.8646 12.1285V13.1605H66.6883V13.5297Z" fill="white"/>
<path d="M68.4864 12.1762H68.0414V11.5798H68.4864V12.1762ZM68.0414 13.1419H68.4864V16.7681H68.0414V13.1419Z" fill="white"/>
<path d="M70.3045 13.6335C70.579 13.2548 71.0051 13.0654 71.5826 13.056C72.1696 13.0654 72.6051 13.2548 72.8797 13.6335C73.1448 14.0027 73.2773 14.4383 73.2773 14.959C73.2773 15.4702 73.1448 15.9057 72.8797 16.275C72.6051 16.6537 72.1696 16.8431 71.5826 16.8525C71.0051 16.8431 70.579 16.6537 70.3045 16.275C70.0299 15.9057 69.8879 15.4702 69.8879 14.959C69.8973 14.4383 70.0299 13.9933 70.3045 13.6335ZM70.6926 16.0194C70.8915 16.3129 71.185 16.4643 71.5826 16.4643C71.9802 16.4643 72.2737 16.3129 72.482 16.0194C72.6809 15.7448 72.7755 15.385 72.7755 14.959C72.7755 14.5329 72.6809 14.1732 72.482 13.8797C72.2737 13.5956 71.9708 13.4536 71.5826 13.4441C71.185 13.4441 70.8915 13.5956 70.6926 13.8797C70.4843 14.1732 70.3802 14.5329 70.3802 14.959C70.3802 15.385 70.4843 15.7353 70.6926 16.0194Z" fill="white"/>
<path d="M74.6691 13.9938C74.6691 13.7192 74.6596 13.4257 74.6407 13.1417H75.0762V13.7855H75.0951C75.133 13.7003 75.1898 13.6151 75.2466 13.5299C75.3034 13.4446 75.3792 13.3689 75.4644 13.2932C75.5496 13.2174 75.6632 13.1606 75.7957 13.1133C75.9283 13.0659 76.0892 13.047 76.2691 13.047C76.7141 13.047 77.036 13.189 77.2254 13.4446C77.4053 13.7003 77.4999 14.0316 77.4999 14.4387V16.7489H77.055V14.5429C77.055 14.2021 76.9887 13.9275 76.8656 13.7192C76.7236 13.5204 76.5058 13.4257 76.1934 13.4257C75.7957 13.4352 75.5212 13.5772 75.3602 13.8518C75.275 13.9843 75.2182 14.1168 75.1803 14.2683C75.1425 14.4293 75.1235 14.5808 75.1235 14.7417V16.7489H74.6786V13.9938H74.6691Z" fill="white"/>
<path d="M82.3002 16.4643C82.518 16.4643 82.7168 16.4075 82.8683 16.2845C83.0197 16.1708 83.0955 16.0194 83.105 15.8111C83.105 15.5933 83.0103 15.4324 82.8399 15.3093C82.6694 15.1957 82.4706 15.0821 82.2339 14.9874C82.1203 14.94 82.0162 14.8832 81.9215 14.8264C81.8268 14.7696 81.7227 14.7033 81.6375 14.6371C81.5617 14.5613 81.486 14.4761 81.4386 14.372C81.3818 14.2773 81.3629 14.1637 81.3629 14.0406C81.3629 13.6808 81.486 13.4252 81.7321 13.2737C81.9688 13.1317 82.2339 13.056 82.5464 13.056C82.6505 13.056 82.7831 13.0654 82.9535 13.0844C83.1144 13.1128 83.2848 13.1601 83.4458 13.2169L83.4079 13.6051C83.1428 13.501 82.8777 13.4441 82.6032 13.4347C82.3665 13.4347 82.1866 13.4725 82.054 13.5578C81.9783 13.5956 81.931 13.6619 81.8931 13.7376C81.8552 13.8134 81.8268 13.9175 81.8268 14.0311C81.8268 14.1069 81.8552 14.1826 81.9026 14.2489C81.9594 14.3057 82.0256 14.3625 82.1108 14.4193C82.1961 14.4667 82.2907 14.514 82.4043 14.5708C82.5085 14.6181 82.6221 14.6655 82.7262 14.7318C82.9629 14.8264 83.1712 14.9684 83.3417 15.1294C83.5215 15.2998 83.6067 15.527 83.6162 15.8205C83.6162 16.0099 83.5783 16.1708 83.5026 16.2939C83.4269 16.4265 83.3227 16.5306 83.1996 16.6158C82.9345 16.7768 82.6505 16.8525 82.357 16.8525C82.0067 16.8525 81.6659 16.7957 81.344 16.6821L81.3818 16.2371C81.628 16.3886 81.9404 16.4643 82.3002 16.4643Z" fill="white"/>
<path d="M87.7723 15.9155C87.7628 16.19 87.7723 16.4741 87.8007 16.7676H87.3651V16.1238H87.3462C87.3178 16.1995 87.2705 16.2847 87.2137 16.3604C87.1568 16.4457 87.0811 16.5309 86.9959 16.6066C86.9107 16.6729 86.7971 16.7297 86.6645 16.777C86.532 16.8338 86.371 16.8528 86.1817 16.8528C85.7462 16.8528 85.4243 16.7108 85.2349 16.4551C85.0361 16.1995 84.9414 15.8681 84.9509 15.461V13.1414H85.3959V15.3474C85.3959 15.6977 85.4621 15.9628 85.6041 16.1522C85.7367 16.3604 85.9545 16.4646 86.2574 16.4646C86.4562 16.4646 86.6361 16.4267 86.7781 16.332C86.9202 16.2563 87.0338 16.1522 87.1095 16.0196C87.1947 15.8871 87.2515 15.745 87.2894 15.5936C87.3178 15.4421 87.3367 15.2906 87.3367 15.1391V13.132H87.7817V15.9155H87.7723Z" fill="white"/>
<path d="M89.8928 12.1762H89.4478V11.5798H89.8928V12.1762ZM89.4478 13.1419H89.8928V16.7681H89.4478V13.1419Z" fill="white"/>
<path d="M92.2509 16.4643C92.4686 16.4643 92.6675 16.4075 92.8189 16.2845C92.9704 16.1708 93.0462 16.0194 93.0556 15.8111C93.0556 15.5933 92.961 15.4324 92.7905 15.3093C92.6201 15.1957 92.4213 15.0821 92.1846 14.9874C92.071 14.94 91.9669 14.8832 91.8722 14.8264C91.7775 14.7696 91.6734 14.7033 91.5881 14.6371C91.5124 14.5613 91.4367 14.4761 91.3893 14.372C91.3325 14.2773 91.3136 14.1637 91.3136 14.0406C91.3136 13.6808 91.4367 13.4252 91.6828 13.2737C91.9195 13.1317 92.1846 13.056 92.497 13.056C92.6012 13.056 92.7337 13.0654 92.9042 13.0844C93.0651 13.1128 93.2355 13.1601 93.3965 13.2169L93.3586 13.6051C93.0935 13.501 92.8284 13.4441 92.5539 13.4347C92.3172 13.4347 92.1373 13.4725 92.0047 13.5578C91.929 13.5956 91.8816 13.6619 91.8438 13.7376C91.8059 13.8134 91.7775 13.9175 91.7775 14.0311C91.7775 14.1069 91.8059 14.1826 91.8532 14.2489C91.91 14.3057 91.9763 14.3625 92.0615 14.4193C92.1467 14.4667 92.2414 14.514 92.355 14.5708C92.4592 14.6181 92.5728 14.6655 92.6769 14.7318C92.9136 14.8264 93.1219 14.9684 93.2923 15.1294C93.4722 15.2998 93.5574 15.527 93.5669 15.8205C93.5669 16.0099 93.529 16.1708 93.4533 16.2939C93.3775 16.4265 93.2734 16.5306 93.1503 16.6158C92.8852 16.7768 92.6012 16.8525 92.3077 16.8525C91.9574 16.8525 91.6165 16.7957 91.2946 16.6821L91.3325 16.2371C91.5787 16.3886 91.8911 16.4643 92.2509 16.4643Z" fill="white"/>
<path d="M95.5645 16.4643C95.7823 16.4643 95.9811 16.4075 96.1326 16.2845C96.2841 16.1708 96.3598 16.0194 96.3693 15.8111C96.3693 15.5933 96.2746 15.4324 96.1042 15.3093C95.9338 15.1957 95.7349 15.0821 95.4982 14.9874C95.3846 14.94 95.2805 14.8832 95.1858 14.8264C95.0911 14.7696 94.987 14.7033 94.9018 14.6371C94.826 14.5613 94.7503 14.4761 94.703 14.372C94.6461 14.2773 94.6272 14.1637 94.6272 14.0406C94.6272 13.6808 94.7503 13.4252 94.9964 13.2737C95.2331 13.1317 95.4982 13.056 95.8107 13.056C95.9148 13.056 96.0474 13.0654 96.2178 13.0844C96.3787 13.1128 96.5492 13.1601 96.7101 13.2169L96.6722 13.6051C96.4071 13.501 96.142 13.4441 95.8675 13.4347C95.6308 13.4347 95.4509 13.4725 95.3184 13.5578C95.2426 13.5956 95.1953 13.6619 95.1574 13.7376C95.1195 13.8134 95.0911 13.9175 95.0911 14.0311C95.0911 14.1069 95.1195 14.1826 95.1669 14.2489C95.2237 14.3057 95.2899 14.3625 95.3752 14.4193C95.4604 14.4667 95.555 14.514 95.6687 14.5708C95.7728 14.6181 95.8864 14.6655 95.9906 14.7318C96.2273 14.8264 96.4355 14.9684 96.606 15.1294C96.7858 15.2998 96.8711 15.527 96.8805 15.8205C96.8805 16.0099 96.8427 16.1708 96.7669 16.2939C96.6912 16.4265 96.587 16.5306 96.4639 16.6158C96.1989 16.7768 95.9148 16.8525 95.6213 16.8525C95.271 16.8525 94.9302 16.7957 94.6083 16.6821L94.6461 16.2371C94.8923 16.3886 95.2047 16.4643 95.5645 16.4643Z" fill="white"/>
<path d="M100.639 16.6542C100.298 16.7867 99.9478 16.853 99.588 16.853C99.001 16.8435 98.575 16.6637 98.3193 16.3039C98.0637 15.9536 97.9406 15.5086 97.9406 14.95C97.9406 14.3914 98.0826 13.9275 98.3667 13.5772C98.6412 13.2269 99.001 13.0565 99.4649 13.047C99.9762 13.0565 100.336 13.2364 100.573 13.5772C100.8 13.918 100.904 14.3441 100.904 14.8364V15.0636H98.4235C98.4235 15.4613 98.5276 15.7832 98.7264 16.0388C98.9253 16.3134 99.2188 16.4459 99.6164 16.4554C99.7963 16.4554 99.9762 16.427 100.166 16.3607C100.364 16.3134 100.516 16.2471 100.629 16.1808V16.6542H100.639ZM100.421 14.6944C100.421 14.363 100.355 14.079 100.213 13.8233C100.061 13.5772 99.8247 13.4446 99.4933 13.4352C99.1619 13.4446 98.9063 13.5772 98.717 13.8328C98.5181 14.0884 98.4235 14.3725 98.4235 14.6944H100.421Z" fill="white"/>
<path d="M31.2691 22.1265C31.0703 22.1075 30.8715 22.0886 30.6916 22.0886C30.0478 22.0981 29.5555 22.2969 29.2052 22.6945C28.8549 23.0922 28.675 23.6034 28.675 24.2283C28.675 24.8626 28.8454 25.3739 29.1957 25.7621C29.5366 26.1597 30.0289 26.3585 30.6822 26.368C30.8526 26.368 31.0419 26.349 31.2597 26.3206C31.468 26.2922 31.6479 26.2354 31.7899 26.1597L31.8183 26.5857C31.6668 26.6615 31.4869 26.7183 31.2691 26.7467C31.0514 26.7751 30.8526 26.794 30.6822 26.794C29.8963 26.7846 29.2809 26.5479 28.8454 26.084C28.4004 25.6295 28.1827 25.0046 28.1827 24.2283C28.1827 23.4614 28.4099 22.846 28.8549 22.3726C29.2904 21.9087 29.9058 21.672 30.6822 21.6625C30.8431 21.6625 31.0419 21.672 31.2691 21.7004C31.4964 21.7288 31.6763 21.7761 31.8183 21.8519L31.7899 22.3063C31.6479 22.2211 31.468 22.1549 31.2691 22.1265Z" fill="white"/>
<path d="M33.598 23.5748C33.8725 23.1961 34.2986 23.0067 34.8761 22.9973C35.4631 23.0067 35.8986 23.1961 36.1732 23.5748C36.4383 23.944 36.5708 24.3795 36.5708 24.9003C36.5708 25.4115 36.4383 25.847 36.1732 26.2163C35.8986 26.595 35.4631 26.7843 34.8761 26.7938C34.2986 26.7843 33.8725 26.595 33.598 26.2163C33.3234 25.847 33.1814 25.4115 33.1814 24.9003C33.1909 24.3795 33.3234 23.9346 33.598 23.5748ZM33.9956 25.9606C34.1944 26.2541 34.4879 26.4056 34.8856 26.4056C35.2832 26.4056 35.5767 26.2541 35.785 25.9606C35.9838 25.6861 36.0785 25.3263 36.0785 24.9003C36.0785 24.4742 35.9838 24.1144 35.785 23.8209C35.5767 23.5369 35.2738 23.3949 34.8856 23.3854C34.4879 23.3854 34.1944 23.5369 33.9956 23.8209C33.7873 24.1144 33.6832 24.4742 33.6832 24.9003C33.6832 25.3263 33.7873 25.6766 33.9956 25.9606Z" fill="white"/>
<path d="M37.9719 23.9347C37.9719 23.6601 37.9625 23.3666 37.9435 23.0826H38.3791V23.7264H38.398C38.4359 23.6412 38.4927 23.556 38.5495 23.4708C38.6063 23.3856 38.682 23.3098 38.7672 23.2341C38.8524 23.1583 38.9661 23.1015 39.0986 23.0542C39.2312 23.0069 39.3921 22.9879 39.572 22.9879C40.017 22.9879 40.3389 23.1299 40.5282 23.3856C40.7081 23.6412 40.8028 23.9726 40.8028 24.3797V26.6898H40.3578V24.4838C40.3578 24.143 40.2915 23.8684 40.1685 23.6601C40.0264 23.4613 39.8087 23.3666 39.4962 23.3666C39.0986 23.3761 38.824 23.5181 38.6631 23.7927C38.5779 23.9252 38.5211 24.0578 38.4832 24.2092C38.4453 24.3702 38.4264 24.5217 38.4264 24.6826V26.6898H37.9814V23.9347H37.9719Z" fill="white"/>
<path d="M42.7722 23.4711H42.0432V23.0829H42.7722V22.8178C42.7722 22.619 42.7817 22.4391 42.8006 22.2498C42.8101 22.0699 42.848 21.9089 42.9048 21.7669C42.9616 21.6249 43.0657 21.5018 43.1983 21.4166C43.3214 21.3314 43.5012 21.2935 43.7285 21.2935C43.8042 21.2935 43.8799 21.2935 43.9652 21.303C44.0409 21.3219 44.1072 21.3409 44.1545 21.3693L44.1261 21.7574C44.0314 21.7101 43.9084 21.6817 43.7663 21.6817C43.6243 21.6817 43.5107 21.7196 43.435 21.7764C43.3592 21.8521 43.3024 21.9468 43.274 22.0509C43.2456 22.1645 43.2361 22.2782 43.2361 22.4012C43.2361 22.5243 43.2267 22.6569 43.2267 22.7705V23.0829H44.0409V23.4711H43.2267V26.709H42.7722V23.4711Z" fill="white"/>
<path d="M47.8186 26.5951C47.4778 26.7277 47.1275 26.7939 46.7677 26.7939C46.1807 26.7845 45.7547 26.6046 45.499 26.2448C45.2434 25.8945 45.1203 25.4495 45.1203 24.8909C45.1203 24.3323 45.2623 23.8684 45.5464 23.5181C45.8209 23.1678 46.1807 22.9974 46.6446 22.9879C47.1559 22.9974 47.5157 23.1773 47.7524 23.5181C47.9796 23.8589 48.0837 24.285 48.0837 24.7773V25.0045H45.6127C45.6127 25.4022 45.7168 25.7241 45.9156 25.9797C46.1144 26.2543 46.4079 26.3868 46.8056 26.3963C46.9855 26.3963 47.1654 26.3679 47.3547 26.3016C47.5535 26.2543 47.705 26.188 47.8186 26.1217V26.5951ZM47.6009 24.6353C47.6009 24.3039 47.5346 24.0199 47.3926 23.7643C47.2411 23.5181 47.0044 23.3856 46.673 23.3761C46.3417 23.3856 46.086 23.5181 45.8967 23.7737C45.6979 24.0294 45.6032 24.3134 45.6032 24.6353H47.6009Z" fill="white"/>
<path d="M52.3631 26.7088H51.9181V26.1313H51.8992C51.6625 26.5762 51.2838 26.794 50.7725 26.794C50.2802 26.7845 49.9015 26.6047 49.6553 26.2449C49.3997 25.8851 49.2766 25.4401 49.2766 24.891C49.2671 24.3324 49.3902 23.878 49.6269 23.5276C49.8636 23.1773 50.2423 22.9975 50.7725 22.9975C50.9524 22.9975 51.1039 23.0259 51.2459 23.0732C51.3879 23.13 51.5015 23.1868 51.5867 23.272C51.7761 23.4424 51.8802 23.575 51.9086 23.6886H51.9276V21.3785H52.3725V26.7088H52.3631ZM49.8163 25.4117C49.8541 25.5916 49.9109 25.762 49.9867 25.9135C50.0719 26.0555 50.1855 26.1691 50.318 26.2638C50.4506 26.3585 50.621 26.4153 50.8388 26.4153C51.0376 26.4153 51.208 26.368 51.35 26.2638C51.4826 26.1786 51.5867 26.0555 51.6719 25.904C51.8329 25.5821 51.9086 25.2508 51.9086 24.9005C51.9086 24.73 51.8897 24.5596 51.8613 24.3797C51.8234 24.2093 51.7666 24.0484 51.6719 23.8969C51.5867 23.7454 51.4731 23.6223 51.35 23.5276C51.208 23.4424 51.0376 23.3951 50.8388 23.3951C50.621 23.3951 50.4506 23.4424 50.318 23.5276C50.176 23.6129 50.0719 23.7359 49.9867 23.8874C49.9109 24.0294 49.8541 24.1904 49.8163 24.3703C49.7784 24.5502 49.7689 24.73 49.7689 24.9099C49.7689 25.0614 49.7879 25.2413 49.8163 25.4117Z" fill="white"/>
<path d="M56.4248 26.5951C56.084 26.7277 55.7337 26.7939 55.3739 26.7939C54.7869 26.7845 54.3608 26.6046 54.1052 26.2448C53.8496 25.8945 53.7265 25.4495 53.7265 24.8909C53.7265 24.3323 53.8685 23.8684 54.1525 23.5181C54.4271 23.1678 54.7869 22.9974 55.2508 22.9879C55.7621 22.9974 56.1218 23.1773 56.3585 23.5181C56.5857 23.8589 56.6899 24.285 56.6899 24.7773V25.0045H54.2094C54.2094 25.4022 54.3135 25.7241 54.5123 25.9797C54.7111 26.2543 55.0046 26.3868 55.4023 26.3963C55.5822 26.3963 55.7621 26.3679 55.9514 26.3016C56.1502 26.2543 56.3017 26.188 56.4153 26.1217V26.5951H56.4248ZM56.207 24.6353C56.207 24.3039 56.1408 24.0199 55.9987 23.7643C55.8473 23.5181 55.6106 23.3856 55.2792 23.3761C54.9478 23.3856 54.6922 23.5181 54.5029 23.7737C54.304 24.0294 54.2094 24.3134 54.2094 24.6353H56.207Z" fill="white"/>
<path d="M58.1005 23.897C58.1005 23.5656 58.091 23.2911 58.0721 23.0922H58.5171V23.7928H58.5265C58.6117 23.5751 58.7348 23.3952 58.8863 23.2437C59.0378 23.0922 59.2271 23.0165 59.4544 23.007C59.568 23.007 59.6721 23.026 59.7668 23.0449V23.5183C59.6721 23.4899 59.5585 23.4804 59.4449 23.4804C59.265 23.4804 59.123 23.5277 59.0094 23.6035C58.8958 23.6887 58.8011 23.8023 58.7348 23.9538C58.6686 24.0958 58.6212 24.2473 58.5928 24.4177C58.5549 24.5976 58.5455 24.768 58.5455 24.929V26.7184H58.1005V23.897Z" fill="white"/>
<path d="M63.0995 26.1217H63.0806C62.9764 26.3395 62.8155 26.5005 62.6072 26.6141C62.3894 26.7277 62.1717 26.7845 61.935 26.794C61.6793 26.794 61.4805 26.7466 61.3196 26.6709C61.1586 26.6046 61.0355 26.5099 60.9503 26.4058C60.7988 26.1691 60.7326 25.9608 60.7326 25.7714C60.7326 25.4685 60.8083 25.2318 60.9503 25.0519C61.0923 24.872 61.2722 24.7489 61.4995 24.6732C61.7172 24.5974 61.9634 24.5406 62.2285 24.5122C62.4841 24.4933 62.7303 24.4933 62.967 24.4933H63.0522V24.3134C63.0616 23.6885 62.7871 23.3856 62.2285 23.3856C61.8498 23.3761 61.4995 23.4803 61.1681 23.6791V23.2436C61.4995 23.0826 61.8592 23.0069 62.2285 22.9974C63.0806 22.9879 63.5066 23.4329 63.4971 24.3418V25.9419C63.4971 26.2164 63.5066 26.472 63.535 26.6993H63.0995V26.1217ZM63.0522 24.8815H62.9196C62.7208 24.8815 62.5314 24.8909 62.3421 24.9004C62.1338 24.9193 61.9539 24.9572 61.793 25.0235C61.6225 25.0803 61.4995 25.1655 61.3953 25.2886C61.2817 25.4022 61.2344 25.5631 61.2344 25.762C61.2344 25.9987 61.3101 26.1596 61.4616 26.2543C61.6036 26.3584 61.774 26.4152 61.9823 26.4152C62.2379 26.4152 62.4462 26.3584 62.5977 26.2543C62.7397 26.1596 62.8533 26.0365 62.9196 25.8945C62.9954 25.7525 63.0332 25.601 63.0427 25.459C63.0522 25.317 63.0616 25.1939 63.0616 25.0992V24.8815H63.0522Z" fill="white"/>
<path d="M64.7847 26.3304L66.9623 23.4712H64.8699V23.083H67.483V23.4712L65.3054 26.3304H67.483V26.7091H64.7847V26.3304Z" fill="white"/>
<path d="M69.2725 22.1176H68.8275V21.5211H69.2725V22.1176ZM68.8275 23.0833H69.2725V26.7094H68.8275V23.0833Z" fill="white"/>
<path d="M71.0905 23.5748C71.3651 23.1961 71.7911 23.0067 72.3686 22.9973C72.9556 23.0067 73.3911 23.1961 73.6657 23.5748C73.9308 23.944 74.0634 24.3795 74.0634 24.9003C74.0634 25.4115 73.9308 25.847 73.6657 26.2163C73.3911 26.595 72.9556 26.7843 72.3686 26.7938C71.7911 26.7843 71.3651 26.595 71.0905 26.2163C70.8159 25.847 70.6739 25.4115 70.6739 24.9003C70.6834 24.3795 70.8159 23.9346 71.0905 23.5748ZM71.4881 25.9606C71.687 26.2541 71.9805 26.4056 72.3781 26.4056C72.7757 26.4056 73.0692 26.2541 73.2775 25.9606C73.4764 25.6861 73.571 25.3263 73.571 24.9003C73.571 24.4742 73.4764 24.1144 73.2775 23.8209C73.0692 23.5369 72.7663 23.3949 72.3781 23.3854C71.9805 23.3854 71.687 23.5369 71.4881 23.8209C71.2799 24.1144 71.1757 24.4742 71.1757 24.9003C71.1757 25.3263 71.2799 25.6766 71.4881 25.9606Z" fill="white"/>
<path d="M75.4645 23.9347C75.4645 23.6601 75.455 23.3666 75.4361 23.0826H75.8716V23.7264H75.8905C75.9284 23.6412 75.9852 23.556 76.042 23.4708C76.0988 23.3856 76.1745 23.3098 76.2598 23.2341C76.345 23.1583 76.4586 23.1015 76.5911 23.0542C76.7237 23.0069 76.8846 22.9879 77.0645 22.9879C77.5095 22.9879 77.8314 23.1299 78.0207 23.3856C78.2006 23.6412 78.2953 23.9726 78.2953 24.3797V26.6898H77.8503V24.4838C77.8503 24.143 77.7841 23.8684 77.661 23.6601C77.519 23.4613 77.3012 23.3666 76.9888 23.3666C76.5911 23.3761 76.3166 23.5181 76.1556 23.7927C76.0704 23.9252 76.0136 24.0578 75.9757 24.2092C75.9379 24.3702 75.9189 24.5217 75.9189 24.6826V26.6898H75.4739V23.9347H75.4645Z" fill="white"/>
<path d="M82.395 26.5951C82.0541 26.7277 81.7038 26.7939 81.3441 26.7939C80.7571 26.7845 80.331 26.6046 80.0754 26.2448C79.8198 25.8945 79.6967 25.4495 79.6967 24.8909C79.6967 24.3323 79.8387 23.8684 80.1227 23.5181C80.3973 23.1678 80.7571 22.9974 81.221 22.9879C81.7322 22.9974 82.092 23.1773 82.3287 23.5181C82.5559 23.8589 82.6601 24.285 82.6601 24.7773V25.0045H80.1795C80.1795 25.4022 80.2837 25.7241 80.4825 25.9797C80.6813 26.2543 80.9748 26.3868 81.3725 26.3963C81.5524 26.3963 81.7322 26.3679 81.9216 26.3016C82.1204 26.2543 82.2719 26.188 82.3855 26.1217V26.5951H82.395ZM82.1678 24.6353C82.1678 24.3039 82.1015 24.0199 81.9595 23.7643C81.808 23.5181 81.5713 23.3856 81.2399 23.3761C80.9085 23.3856 80.6529 23.5181 80.4636 23.7737C80.2647 24.0294 80.1701 24.3134 80.1701 24.6353H82.1678Z" fill="white"/>
<path d="M87.536 26.3679C87.8484 26.3679 88.1135 26.2826 88.3312 26.1217C88.5395 25.9607 88.6437 25.7051 88.6531 25.3548C88.6531 25.1181 88.5301 24.9098 88.2934 24.7394C88.1892 24.6542 88.0661 24.5785 87.9336 24.5027C87.801 24.427 87.659 24.3512 87.517 24.2755C87.375 24.1998 87.2425 24.1051 87.1099 24.0199C86.9679 23.9347 86.8448 23.84 86.7407 23.7358C86.504 23.537 86.3904 23.2719 86.3809 22.9595C86.3809 22.5618 86.5418 22.2399 86.8448 22.0127C87.1383 21.7855 87.5076 21.6813 87.9525 21.6719C88.0851 21.6719 88.2366 21.6813 88.407 21.7003C88.5869 21.7287 88.7573 21.776 88.9277 21.8328L88.852 22.2778C88.6153 22.1547 88.3123 22.0979 87.9525 22.0979C87.8295 22.0979 87.6969 22.1074 87.5738 22.1358C87.4507 22.1642 87.3371 22.2115 87.2235 22.2873C87.1288 22.3535 87.0436 22.4388 86.9774 22.5429C86.9111 22.6565 86.8827 22.7985 86.8827 22.9595C86.8827 23.0731 86.9111 23.1867 86.9774 23.2909C87.0436 23.3855 87.1288 23.4802 87.233 23.5559C87.3371 23.6317 87.4602 23.7169 87.6022 23.7832C87.7348 23.8589 87.8768 23.9347 88.0188 24.0199C88.3123 24.1619 88.5774 24.3418 88.8046 24.5595C88.9088 24.6637 89.0034 24.7867 89.0697 24.9288C89.1265 25.0708 89.1644 25.2317 89.1644 25.4211C89.1549 25.9134 88.9845 26.2732 88.6437 26.4909C88.3123 26.7087 87.9431 26.8128 87.536 26.8128C87.0531 26.8034 86.6839 26.7371 86.4188 26.6045L86.4377 26.0744C86.7217 26.2637 87.0815 26.3679 87.536 26.3679Z" fill="white"/>
<path d="M91.8813 26.7091H91.3606L90.1298 23.083H90.6221L91.6257 26.2168H91.6446L92.6955 23.083H93.1689L91.8813 26.7091Z" fill="white"/>
<path d="M94.7789 22.1176H94.3339V21.5211H94.7789V22.1176ZM94.3339 23.0833H94.7789V26.7094H94.3339V23.0833Z" fill="white"/>
<path d="M96.1324 26.3304L98.31 23.4712H96.2176V23.083H98.8307V23.4712L96.6531 26.3304H98.8307V26.7091H96.1324V26.3304Z" fill="white"/>
<path d="M99.8346 26.3304L102.012 23.4712H99.9198V23.083H102.533V23.4712L100.355 26.3304H102.533V26.7091H99.8346V26.3304Z" fill="white"/>
<path d="M106.31 26.5951C105.969 26.7277 105.619 26.7939 105.259 26.7939C104.672 26.7845 104.246 26.6046 103.991 26.2448C103.735 25.8945 103.612 25.4495 103.612 24.8909C103.612 24.3323 103.754 23.8684 104.038 23.5181C104.313 23.1678 104.672 22.9974 105.136 22.9879C105.648 22.9974 106.007 23.1773 106.244 23.5181C106.471 23.8589 106.575 24.285 106.575 24.7773V25.0045H104.095C104.095 25.4022 104.199 25.7241 104.398 25.9797C104.597 26.2543 104.89 26.3868 105.288 26.3963C105.468 26.3963 105.648 26.3679 105.837 26.3016C106.036 26.2543 106.187 26.188 106.301 26.1217V26.5951H106.31ZM106.083 24.6353C106.083 24.3039 106.017 24.0199 105.875 23.7643C105.723 23.5181 105.487 23.3856 105.155 23.3761C104.824 23.3856 104.568 23.5181 104.379 23.7737C104.18 24.0294 104.085 24.3134 104.085 24.6353H106.083Z" fill="white"/>
<path d="M107.985 23.897C107.985 23.5656 107.976 23.2911 107.957 23.0922H108.402V23.7928H108.412C108.497 23.5751 108.62 23.3952 108.771 23.2437C108.923 23.0922 109.112 23.0165 109.339 23.007C109.453 23.007 109.557 23.026 109.652 23.0449V23.5183C109.557 23.4899 109.444 23.4804 109.33 23.4804C109.15 23.4804 109.008 23.5277 108.894 23.6035C108.781 23.6887 108.686 23.8023 108.62 23.9538C108.554 24.0958 108.506 24.2473 108.478 24.4177C108.44 24.5976 108.43 24.768 108.43 24.929V26.7184H107.985V23.897Z" fill="white"/>
<path d="M112.985 26.1217H112.966C112.861 26.3395 112.701 26.5005 112.492 26.6141C112.274 26.7277 112.057 26.7845 111.82 26.794C111.564 26.794 111.366 26.7466 111.205 26.6709C111.044 26.6046 110.921 26.5099 110.835 26.4058C110.684 26.1691 110.618 25.9608 110.618 25.7714C110.618 25.4685 110.693 25.2318 110.835 25.0519C110.977 24.872 111.157 24.7489 111.385 24.6732C111.602 24.5974 111.848 24.5406 112.114 24.5122C112.369 24.4933 112.615 24.4933 112.852 24.4933H112.937V24.3134C112.947 23.6885 112.672 23.3856 112.114 23.3856C111.735 23.3761 111.384 23.4803 111.053 23.6791V23.2436C111.384 23.0826 111.744 23.0069 112.114 22.9974C112.966 22.9879 113.392 23.4329 113.382 24.3418V25.9419C113.382 26.2164 113.392 26.472 113.42 26.6993H112.985V26.1217ZM112.937 24.8815H112.805C112.606 24.8815 112.416 24.8909 112.227 24.9004C112.019 24.9193 111.839 24.9572 111.678 25.0235C111.508 25.0803 111.385 25.1655 111.28 25.2886C111.167 25.4022 111.119 25.5631 111.119 25.762C111.119 25.9987 111.195 26.1596 111.347 26.2543C111.489 26.3584 111.659 26.4152 111.867 26.4152C112.123 26.4152 112.331 26.3584 112.483 26.2543C112.625 26.1596 112.738 26.0365 112.805 25.8945C112.88 25.7525 112.918 25.601 112.928 25.459C112.937 25.317 112.947 25.1939 112.947 25.0992V24.8815H112.937Z" fill="white"/>
<path d="M31.2691 32.0682C31.0703 32.0492 30.8715 32.0303 30.6916 32.0303C30.0478 32.0398 29.5555 32.2386 29.2052 32.6362C28.8549 33.0339 28.675 33.5451 28.675 34.17C28.675 34.8043 28.8454 35.3156 29.1957 35.7038C29.5366 36.1014 30.0289 36.3002 30.6822 36.3097C30.8526 36.3097 31.0419 36.2908 31.2597 36.2624C31.468 36.234 31.6479 36.1771 31.7899 36.1014L31.8183 36.5275C31.6668 36.6032 31.4869 36.66 31.2691 36.6884C31.0514 36.7168 30.8526 36.7357 30.6822 36.7357C29.8963 36.7263 29.2809 36.4896 28.8454 36.0257C28.4004 35.5712 28.1827 34.9463 28.1827 34.17C28.1827 33.4031 28.4099 32.7877 28.8549 32.3143C29.2904 31.8504 29.9058 31.6137 30.6822 31.6042C30.8431 31.6042 31.0419 31.6137 31.2691 31.6421C31.4964 31.6705 31.6763 31.7179 31.8183 31.7936L31.7899 32.2481C31.6479 32.1628 31.468 32.0966 31.2691 32.0682Z" fill="white"/>
<path d="M33.598 33.5157C33.8725 33.137 34.2986 32.9476 34.8761 32.9382C35.4631 32.9476 35.8986 33.137 36.1732 33.5157C36.4383 33.8849 36.5708 34.3205 36.5708 34.8412C36.5708 35.3524 36.4383 35.788 36.1732 36.1572C35.8986 36.5359 35.4631 36.7253 34.8761 36.7347C34.2986 36.7253 33.8725 36.5359 33.598 36.1572C33.3234 35.788 33.1814 35.3524 33.1814 34.8412C33.1909 34.3205 33.3234 33.8755 33.598 33.5157ZM33.9956 35.9016C34.1944 36.1951 34.4879 36.3465 34.8856 36.3465C35.2832 36.3465 35.5767 36.1951 35.785 35.9016C35.9838 35.627 36.0785 35.2672 36.0785 34.8412C36.0785 34.4151 35.9838 34.0554 35.785 33.7619C35.5767 33.4778 35.2738 33.3358 34.8856 33.3263C34.4879 33.3263 34.1944 33.4778 33.9956 33.7619C33.7873 34.0554 33.6832 34.4151 33.6832 34.8412C33.6832 35.2672 33.7873 35.6175 33.9956 35.9016Z" fill="white"/>
<path d="M37.9719 33.876C37.9719 33.6015 37.9625 33.308 37.9435 33.0239H38.3791V33.6677H38.398C38.4359 33.5825 38.4927 33.4973 38.5495 33.4121C38.6063 33.3269 38.682 33.2512 38.7672 33.1754C38.8524 33.0997 38.9661 33.0429 39.0986 32.9955C39.2312 32.9482 39.3921 32.9293 39.572 32.9293C40.017 32.9293 40.3389 33.0713 40.5282 33.3269C40.7081 33.5825 40.8028 33.9139 40.8028 34.321V36.6311H40.3578V34.4252C40.3578 34.0843 40.2915 33.8098 40.1685 33.6015C40.0264 33.4026 39.8087 33.308 39.4962 33.308C39.0986 33.3174 38.824 33.4595 38.6631 33.734C38.5779 33.8666 38.5211 33.9991 38.4832 34.1506C38.4453 34.3115 38.4264 34.463 38.4264 34.624V36.6311H37.9814V33.876H37.9719Z" fill="white"/>
<path d="M42.7722 33.412H42.0432V33.0238H42.7722V32.7587C42.7722 32.5599 42.7817 32.38 42.8006 32.1907C42.8101 32.0108 42.848 31.8498 42.9048 31.7078C42.9616 31.5658 43.0657 31.4427 43.1983 31.3575C43.3214 31.2723 43.5012 31.2344 43.7285 31.2344C43.8042 31.2344 43.8799 31.2344 43.9652 31.2439C44.0409 31.2628 44.1072 31.2818 44.1545 31.3102L44.1261 31.6984C44.0314 31.651 43.9084 31.6226 43.7663 31.6226C43.6243 31.6226 43.5107 31.6605 43.435 31.7173C43.3592 31.793 43.3024 31.8877 43.274 31.9919C43.2456 32.1055 43.2361 32.2191 43.2361 32.3422C43.2361 32.4652 43.2267 32.5978 43.2267 32.7114V33.0238H44.0409V33.412H43.2267V36.65H42.7722V33.412Z" fill="white"/>
<path d="M47.8186 36.5365C47.4778 36.669 47.1275 36.7353 46.7677 36.7353C46.1807 36.7258 45.7547 36.5459 45.499 36.1861C45.2434 35.8358 45.1203 35.3909 45.1203 34.8323C45.1203 34.2737 45.2623 33.8098 45.5464 33.4594C45.8209 33.1091 46.1807 32.9387 46.6446 32.9293C47.1559 32.9387 47.5157 33.1186 47.7524 33.4594C47.9796 33.8003 48.0837 34.2263 48.0837 34.7187V34.9459H45.6127C45.6127 35.3435 45.7168 35.6654 45.9156 35.9211C46.1144 36.1956 46.4079 36.3282 46.8056 36.3376C46.9855 36.3376 47.1654 36.3092 47.3547 36.243C47.5535 36.1956 47.705 36.1293 47.8186 36.0631V36.5365ZM47.6009 34.5766C47.6009 34.2453 47.5346 33.9612 47.3926 33.7056C47.2411 33.4595 47.0044 33.3269 46.673 33.3174C46.3417 33.3269 46.086 33.4594 45.8967 33.7151C45.6979 33.9707 45.6032 34.2547 45.6032 34.5766H47.6009Z" fill="white"/>
<path d="M52.3631 36.6501H51.9181V36.0726H51.8992C51.6625 36.5175 51.2838 36.7353 50.7725 36.7353C50.2802 36.7258 49.9015 36.5459 49.6553 36.1862C49.3997 35.8264 49.2766 35.3814 49.2766 34.8323C49.2671 34.2737 49.3902 33.8192 49.6269 33.4689C49.8636 33.1186 50.2423 32.9387 50.7725 32.9387C50.9524 32.9387 51.1039 32.9671 51.2459 33.0145C51.3879 33.0713 51.5015 33.1281 51.5867 33.2133C51.7761 33.3837 51.8802 33.5163 51.9086 33.6299H51.9276V31.3198H52.3725V36.6501H52.3631ZM49.8163 35.353C49.8541 35.5329 49.9109 35.7033 49.9867 35.8548C50.0719 35.9968 50.1855 36.1104 50.318 36.2051C50.4506 36.2998 50.621 36.3566 50.8388 36.3566C51.0376 36.3566 51.208 36.3092 51.35 36.2051C51.4826 36.1199 51.5867 35.9968 51.6719 35.8453C51.8329 35.5234 51.9086 35.1921 51.9086 34.8417C51.9086 34.6713 51.8897 34.5009 51.8613 34.321C51.8234 34.1506 51.7666 33.9897 51.6719 33.8382C51.5867 33.6867 51.4731 33.5636 51.35 33.4689C51.208 33.3837 51.0376 33.3364 50.8388 33.3364C50.621 33.3364 50.4506 33.3837 50.318 33.4689C50.176 33.5541 50.0719 33.6772 49.9867 33.8287C49.9109 33.9707 49.8541 34.1317 49.8163 34.3116C49.7784 34.4914 49.7689 34.6713 49.7689 34.8512C49.7689 35.0027 49.7879 35.1826 49.8163 35.353Z" fill="white"/>
<path d="M56.4248 36.5365C56.084 36.669 55.7337 36.7353 55.3739 36.7353C54.7869 36.7258 54.3608 36.5459 54.1052 36.1861C53.8496 35.8358 53.7265 35.3909 53.7265 34.8323C53.7265 34.2737 53.8685 33.8098 54.1525 33.4594C54.4271 33.1091 54.7869 32.9387 55.2508 32.9293C55.7621 32.9387 56.1218 33.1186 56.3585 33.4594C56.5857 33.8003 56.6899 34.2263 56.6899 34.7187V34.9459H54.2094C54.2094 35.3435 54.3135 35.6654 54.5123 35.9211C54.7111 36.1956 55.0046 36.3282 55.4023 36.3376C55.5822 36.3376 55.7621 36.3092 55.9514 36.243C56.1502 36.1956 56.3017 36.1293 56.4153 36.0631V36.5365H56.4248ZM56.207 34.5766C56.207 34.2453 56.1408 33.9612 55.9987 33.7056C55.8473 33.4595 55.6106 33.3269 55.2792 33.3174C54.9478 33.3269 54.6922 33.4594 54.5029 33.7151C54.304 33.9707 54.2094 34.2547 54.2094 34.5766H56.207Z" fill="white"/>
<path d="M58.1005 33.8379C58.1005 33.5065 58.091 33.232 58.0721 33.0331H58.5171V33.7338H58.5265C58.6117 33.516 58.7348 33.3361 58.8863 33.1846C59.0378 33.0331 59.2271 32.9574 59.4544 32.9479C59.568 32.9479 59.6721 32.9669 59.7668 32.9858V33.4592C59.6721 33.4308 59.5585 33.4213 59.4449 33.4213C59.265 33.4213 59.123 33.4687 59.0094 33.5444C58.8958 33.6296 58.8011 33.7432 58.7348 33.8947C58.6686 34.0367 58.6212 34.1882 58.5928 34.3586C58.5549 34.5385 58.5455 34.7089 58.5455 34.8699V36.6593H58.1005V33.8379Z" fill="white"/>
<path d="M63.0995 36.0627H63.0806C62.9764 36.2804 62.8155 36.4414 62.6072 36.555C62.3894 36.6686 62.1717 36.7254 61.935 36.7349C61.6793 36.7349 61.4805 36.6875 61.3196 36.6118C61.1586 36.5455 61.0355 36.4508 60.9503 36.3467C60.7988 36.11 60.7326 35.9017 60.7326 35.7124C60.7326 35.4094 60.8083 35.1727 60.9503 34.9928C61.0923 34.8129 61.2722 34.6898 61.4995 34.6141C61.7172 34.5384 61.9634 34.4816 62.2285 34.4532C62.4841 34.4342 62.7303 34.4342 62.967 34.4342H63.0522V34.2543C63.0616 33.6295 62.7871 33.3265 62.2285 33.3265C61.8498 33.317 61.4995 33.4212 61.1681 33.62V33.1845C61.4995 33.0235 61.8592 32.9478 62.2285 32.9383C63.0806 32.9289 63.5066 33.3738 63.4971 34.2827V35.8828C63.4971 36.1573 63.5066 36.413 63.535 36.6402H63.0995V36.0627ZM63.0522 34.8224H62.9196C62.7208 34.8224 62.5314 34.8319 62.3421 34.8413C62.1338 34.8603 61.9539 34.8981 61.793 34.9644C61.6225 35.0212 61.4995 35.1064 61.3953 35.2295C61.2817 35.3431 61.2344 35.5041 61.2344 35.7029C61.2344 35.9396 61.3101 36.1005 61.4616 36.1952C61.6036 36.2994 61.774 36.3562 61.9823 36.3562C62.2379 36.3562 62.4462 36.2994 62.5977 36.1952C62.7397 36.1005 62.8533 35.9775 62.9196 35.8354C62.9954 35.6934 63.0332 35.5419 63.0427 35.3999C63.0522 35.2579 63.0616 35.1348 63.0616 35.0402V34.8224H63.0522Z" fill="white"/>
<path d="M64.7847 36.2713L66.9623 33.4121H64.8699V33.0239H67.483V33.4121L65.3054 36.2713H67.483V36.6501H64.7847V36.2713Z" fill="white"/>
<path d="M69.2725 32.0585H68.8275V31.462H69.2725V32.0585ZM68.8275 33.0242H69.2725V36.6503H68.8275V33.0242Z" fill="white"/>
<path d="M73.7886 35.7977C73.7791 36.0722 73.7886 36.3563 73.817 36.6498H73.3815V36.006H73.3625C73.3341 36.0817 73.2868 36.1669 73.23 36.2426C73.1732 36.3279 73.0974 36.4131 73.0122 36.4888C72.927 36.5551 72.8134 36.6119 72.6809 36.6592C72.5483 36.716 72.3874 36.735 72.198 36.735C71.7625 36.735 71.4406 36.593 71.2512 36.3373C71.0524 36.0817 70.9577 35.7503 70.9672 35.3432V33.0236H71.4122V35.2296C71.4122 35.5799 71.4785 35.845 71.6205 36.0344C71.753 36.2426 71.9708 36.3468 72.2737 36.3468C72.4726 36.3468 72.6525 36.3089 72.7945 36.2142C72.9365 36.1385 73.0501 36.0344 73.1258 35.9018C73.211 35.7693 73.2679 35.6272 73.3057 35.4758C73.3341 35.3243 73.3531 35.1728 73.3531 35.0213V33.0142H73.798V35.7977H73.7886Z" fill="white"/>
<path d="M75.4645 33.876C75.4645 33.6015 75.455 33.308 75.4361 33.0239H75.8716V33.6677H75.8905C75.9284 33.5825 75.9852 33.4973 76.042 33.4121C76.0988 33.3269 76.1745 33.2512 76.2598 33.1754C76.345 33.0997 76.4586 33.0429 76.5911 32.9955C76.7237 32.9482 76.8846 32.9293 77.0645 32.9293C77.5095 32.9293 77.8314 33.0713 78.0207 33.3269C78.2006 33.5825 78.2953 33.9139 78.2953 34.321V36.6311H77.8503V34.4252C77.8503 34.0843 77.7841 33.8098 77.661 33.6015C77.519 33.4026 77.3012 33.308 76.9888 33.308C76.5911 33.3174 76.3166 33.4595 76.1556 33.734C76.0704 33.8666 76.0136 33.9991 75.9757 34.1506C75.9379 34.3115 75.9189 34.463 75.9189 34.624V36.6311H75.4739V33.876H75.4645Z" fill="white"/>
<path d="M83.0858 36.3465C83.3036 36.3465 83.5024 36.2897 83.6539 36.1667C83.8054 36.053 83.8811 35.9016 83.8906 35.6933C83.8906 35.4755 83.7959 35.3146 83.6255 35.1915C83.4551 35.0779 83.2563 34.9643 83.0196 34.8696C82.906 34.8222 82.8018 34.7654 82.7071 34.7086C82.6125 34.6518 82.5083 34.5855 82.4231 34.5193C82.3474 34.4435 82.2716 34.3583 82.2243 34.2542C82.1675 34.1595 82.1485 34.0459 82.1485 33.9228C82.1485 33.563 82.2716 33.3074 82.5178 33.1559C82.7545 33.0139 83.0196 32.9382 83.332 32.9382C83.4361 32.9382 83.5687 32.9476 83.7391 32.9666C83.9001 32.995 84.0705 33.0423 84.2314 33.0991L84.1936 33.4873C83.9285 33.3832 83.6634 33.3263 83.3888 33.3169C83.1521 33.3169 82.9722 33.3547 82.8397 33.44C82.7639 33.4778 82.7166 33.5441 82.6787 33.6198C82.6409 33.6956 82.6125 33.7997 82.6125 33.9133C82.6125 33.9891 82.6409 34.0648 82.6882 34.1311C82.745 34.1879 82.8113 34.2447 82.8965 34.3015C82.9817 34.3489 83.0764 34.3962 83.19 34.453C83.2941 34.5003 83.4077 34.5477 83.5119 34.614C83.7486 34.7086 83.9569 34.8506 84.1273 35.0116C84.3072 35.182 84.3924 35.4092 84.4019 35.7027C84.4019 35.8921 84.364 36.053 84.2882 36.1761C84.2125 36.3087 84.1084 36.4128 83.9853 36.498C83.7202 36.659 83.4362 36.7347 83.1427 36.7347C82.7923 36.7347 82.4515 36.6779 82.1296 36.5643L82.1675 36.1193C82.4136 36.2708 82.7355 36.3465 83.0858 36.3465Z" fill="white"/>
<path d="M86.996 36.6501H86.4753L85.2445 33.0239H85.7368L86.7404 36.1577H86.7593L87.8103 33.0239H88.2836L86.996 36.6501Z" fill="white"/>
<path d="M89.8937 32.0585H89.4487V31.462H89.8937V32.0585ZM89.4393 33.0242H89.8843V36.6503H89.4393V33.0242Z" fill="white"/>
<path d="M91.2373 36.2713L93.4149 33.4121H91.3225V33.0239H93.9356V33.4121L91.7581 36.2713H93.9356V36.6501H91.2373V36.2713Z" fill="white"/>
<path d="M95.28 33.8379C95.28 33.5065 95.2706 33.232 95.2516 33.0331H95.6966V33.7338H95.7061C95.7913 33.516 95.9144 33.3361 96.0659 33.1846C96.2174 33.0331 96.4067 32.9574 96.6339 32.9479C96.7475 32.9479 96.8517 32.9669 96.9464 32.9858V33.4592C96.8517 33.4308 96.7381 33.4213 96.6245 33.4213C96.4446 33.4213 96.3026 33.4687 96.1889 33.5444C96.0753 33.6296 95.9807 33.7432 95.9144 33.8947C95.8481 34.0367 95.8008 34.1882 95.7724 34.3586C95.7345 34.5385 95.725 34.7089 95.725 34.8699V36.6593H95.28V33.8379Z" fill="white"/>
<path d="M100.279 36.0627H100.26C100.156 36.2804 99.9951 36.4414 99.7868 36.555C99.569 36.6686 99.3513 36.7254 99.1146 36.7349C98.8589 36.7349 98.6601 36.6875 98.4992 36.6118C98.3382 36.5455 98.2151 36.4508 98.1299 36.3467C97.9784 36.11 97.9122 35.9017 97.9122 35.7124C97.9122 35.4094 97.9879 35.1727 98.1299 34.9928C98.2719 34.8129 98.4518 34.6898 98.6791 34.6141C98.8968 34.5384 99.143 34.4816 99.4081 34.4532C99.6637 34.4342 99.9099 34.4342 100.147 34.4342H100.232V34.2543C100.241 33.6295 99.9667 33.3265 99.4081 33.3265C99.0294 33.317 98.6791 33.4212 98.3477 33.62V33.1845C98.6791 33.0235 99.0388 32.9478 99.4081 32.9383C100.26 32.9289 100.686 33.3738 100.677 34.2827V35.8828C100.677 36.1573 100.686 36.413 100.715 36.6402H100.279V36.0627ZM100.232 34.8224H100.099C99.9004 34.8224 99.711 34.8319 99.5217 34.8413C99.3134 34.8603 99.1335 34.8981 98.9726 34.9644C98.8021 35.0212 98.6791 35.1064 98.5749 35.2295C98.4613 35.3431 98.414 35.5041 98.414 35.7029C98.414 35.9396 98.4897 36.1005 98.6412 36.1952C98.7832 36.2994 98.9536 36.3562 99.1619 36.3562C99.4175 36.3562 99.6258 36.2994 99.7773 36.1952C99.9193 36.1005 100.033 35.9775 100.099 35.8354C100.175 35.6934 100.213 35.5419 100.222 35.3999C100.232 35.2579 100.241 35.1348 100.241 35.0402V34.8224H100.232Z" fill="white"/>
<path d="M29.3658 56.1914C29.6782 56.1914 29.9433 56.1062 30.1611 55.9452C30.3694 55.7843 30.4735 55.5287 30.483 55.1784C30.483 54.9417 30.3599 54.7334 30.1232 54.563C30.0191 54.4778 29.896 54.402 29.7634 54.3263C29.6309 54.2505 29.4889 54.1748 29.3468 54.099C29.2048 54.0233 29.0723 53.9286 28.9397 53.8434C28.7977 53.7582 28.6746 53.6635 28.5705 53.5594C28.3338 53.3606 28.2202 53.0955 28.2107 52.783C28.2107 52.3854 28.3717 52.0635 28.6746 51.8363C28.9681 51.609 29.3374 51.5049 29.7824 51.4954C29.9149 51.4954 30.0664 51.5049 30.2368 51.5238C30.4167 51.5522 30.5871 51.5996 30.7575 51.6564L30.6818 52.1014C30.4451 51.9783 30.1421 51.9215 29.7824 51.9215C29.6593 51.9215 29.5267 51.9309 29.4037 51.9593C29.2806 51.9877 29.167 52.0351 29.0533 52.1108C28.9587 52.1771 28.8735 52.2623 28.8072 52.3665C28.7409 52.4801 28.7125 52.6221 28.7125 52.783C28.7125 52.8966 28.7409 53.0103 28.8072 53.1144C28.8735 53.2091 28.9587 53.3038 29.0628 53.3795C29.167 53.4552 29.29 53.5404 29.4321 53.6067C29.5646 53.6825 29.7066 53.7582 29.8486 53.8434C30.1421 53.9854 30.4072 54.1653 30.6345 54.3831C30.7386 54.4872 30.8333 54.6103 30.8996 54.7523C30.9564 54.8943 30.9942 55.0553 30.9942 55.2446C30.9848 55.737 30.8143 56.0967 30.4735 56.3145C30.1421 56.5322 29.7729 56.6364 29.3658 56.6364C28.8829 56.6269 28.5137 56.5606 28.2486 56.4281L28.2959 55.9263C28.5516 56.0873 28.9113 56.1914 29.3658 56.1914Z" fill="white"/>
<path d="M36.1832 56.5323H35.6435L34.6589 53.3985H34.6399L33.6553 56.5323H33.1156L31.9511 52.9062H32.4434L33.3997 56.04H33.4091L34.4127 52.9062H34.9524L35.9086 56.04H35.9275L36.9311 52.9062H37.3761L36.1832 56.5323Z" fill="white"/>
<path d="M38.9852 51.9407H38.5402V51.3442H38.9852V51.9407ZM38.5402 52.9064H38.9852V56.5325H38.5402V52.9064Z" fill="white"/>
<path d="M41.3335 56.2292C41.5513 56.2292 41.7501 56.1724 41.9016 56.0493C42.053 55.9357 42.1288 55.7842 42.1383 55.5759C42.1383 55.3581 42.0436 55.1972 41.8732 55.0741C41.7027 54.9605 41.5039 54.8469 41.2672 54.7522C41.1536 54.7049 41.0495 54.6481 40.9548 54.5913C40.8601 54.5345 40.756 54.4682 40.6708 54.4019C40.595 54.3262 40.5193 54.241 40.4719 54.1368C40.4151 54.0421 40.3962 53.9285 40.3962 53.8054C40.3962 53.4457 40.5193 53.19 40.7654 53.0386C41.0021 52.8965 41.2672 52.8208 41.5797 52.8208C41.6838 52.8208 41.8164 52.8303 41.9868 52.8492C42.1477 52.8776 42.3181 52.9249 42.4791 52.9817L42.4412 53.3699C42.1761 53.2658 41.911 53.209 41.6365 53.1995C41.3998 53.1995 41.2199 53.2374 41.0873 53.3226C41.0116 53.3605 40.9643 53.4267 40.9264 53.5025C40.8885 53.5782 40.8601 53.6824 40.8601 53.796C40.8601 53.8717 40.8885 53.9475 40.9359 54.0137C40.9927 54.0705 41.0589 54.1273 41.1441 54.1841C41.2294 54.2315 41.324 54.2788 41.4376 54.3356C41.5418 54.383 41.6554 54.4303 41.7595 54.4966C41.9962 54.5913 42.2045 54.7333 42.3749 54.8942C42.5548 55.0646 42.64 55.2919 42.6495 55.5854C42.6495 55.7747 42.6116 55.9357 42.5359 56.0588C42.4602 56.1913 42.356 56.2954 42.2329 56.3807C41.9678 56.5416 41.6838 56.6173 41.3903 56.6173C41.04 56.6173 40.6992 56.5605 40.3773 56.4469L40.4151 56.0019C40.6613 56.1534 40.9832 56.2292 41.3335 56.2292Z" fill="white"/>
<path d="M44.6471 56.2292C44.8649 56.2292 45.0637 56.1724 45.2152 56.0493C45.3667 55.9357 45.4424 55.7842 45.4519 55.5759C45.4519 55.3581 45.3572 55.1972 45.1868 55.0741C45.0164 54.9605 44.8175 54.8469 44.5809 54.7522C44.4672 54.7049 44.3631 54.6481 44.2684 54.5913C44.1737 54.5345 44.0696 54.4682 43.9844 54.4019C43.9086 54.3262 43.8329 54.241 43.7856 54.1368C43.7288 54.0421 43.7098 53.9285 43.7098 53.8054C43.7098 53.4457 43.8329 53.19 44.0791 53.0386C44.3158 52.8965 44.5809 52.8208 44.8933 52.8208C44.9974 52.8208 45.13 52.8303 45.3004 52.8492C45.4613 52.8776 45.6318 52.9249 45.7927 52.9817L45.7548 53.3699C45.4898 53.2658 45.2247 53.209 44.9501 53.1995C44.7134 53.1995 44.5335 53.2374 44.401 53.3226C44.3252 53.3605 44.2779 53.4267 44.24 53.5025C44.2021 53.5782 44.1737 53.6824 44.1737 53.796C44.1737 53.8717 44.2021 53.9475 44.2495 54.0137C44.3063 54.0705 44.3726 54.1273 44.4578 54.1841C44.543 54.2315 44.6377 54.2788 44.7513 54.3356C44.8554 54.383 44.969 54.4303 45.0732 54.4966C45.3099 54.5913 45.5182 54.7333 45.6886 54.8942C45.8685 55.0646 45.9537 55.2919 45.9631 55.5854C45.9631 55.7747 45.9253 55.9357 45.8495 56.0588C45.7738 56.1913 45.6696 56.2954 45.5466 56.3807C45.2815 56.5416 44.9974 56.6173 44.7039 56.6173C44.3536 56.6173 44.0128 56.5605 43.6909 56.4469L43.7288 56.0019C43.9844 56.1534 44.2968 56.2292 44.6471 56.2292Z" fill="white"/>
<path d="M52.7422 51.95C52.5434 51.9311 52.3445 51.9121 52.1646 51.9121C51.5208 51.9216 51.0285 52.1204 50.6782 52.5181C50.3279 52.9157 50.148 53.427 50.148 54.0518C50.148 54.6862 50.3184 55.1974 50.6687 55.5856C51.0096 55.9832 51.5019 56.1821 52.1552 56.1915C52.3256 56.1915 52.5149 56.1726 52.7327 56.1442C52.941 56.1158 53.1209 56.059 53.2629 55.9832L53.2913 56.4093C53.1398 56.485 52.9599 56.5418 52.7422 56.5702C52.5244 56.5986 52.3256 56.6176 52.1552 56.6176C51.3694 56.6081 50.754 56.3714 50.3184 55.9075C49.8735 55.453 49.6557 54.8282 49.6557 54.0518C49.6557 53.2849 49.8829 52.6695 50.3279 52.1962C50.7634 51.7322 51.3788 51.4956 52.1552 51.4861C52.3161 51.4861 52.515 51.4956 52.7422 51.524C52.9694 51.5524 53.1493 51.5997 53.2913 51.6754L53.2629 52.1299C53.1209 52.0447 52.941 51.9784 52.7422 51.95Z" fill="white"/>
<path d="M55.251 53.3983C55.5256 53.0196 55.9516 52.8303 56.5292 52.8208C57.1162 52.8303 57.5517 53.0196 57.8262 53.3983C58.0913 53.7676 58.2239 54.2031 58.2239 54.7238C58.2239 55.2351 58.0913 55.6706 57.8262 56.0398C57.5517 56.4185 57.1162 56.6079 56.5292 56.6173C55.9516 56.6079 55.5256 56.4185 55.251 56.0398C54.9765 55.6706 54.8344 55.2351 54.8344 54.7238C54.8439 54.2031 54.9765 53.7581 55.251 53.3983ZM55.6392 55.7842C55.838 56.0777 56.1315 56.2292 56.5292 56.2292C56.9268 56.2292 57.2203 56.0777 57.4286 55.7842C57.6274 55.5096 57.7221 55.1499 57.7221 54.7238C57.7221 54.2978 57.6274 53.938 57.4286 53.6445C57.2203 53.3605 56.9173 53.2184 56.5292 53.209C56.1315 53.209 55.838 53.3605 55.6392 53.6445C55.4309 53.938 55.3268 54.2978 55.3268 54.7238C55.3268 55.1499 55.4309 55.5002 55.6392 55.7842Z" fill="white"/>
<path d="M59.6153 53.7582C59.6153 53.4837 59.6058 53.1902 59.5869 52.9061H60.0224V53.5499H60.0413C60.0792 53.4647 60.136 53.3795 60.1928 53.2943C60.2496 53.2091 60.3253 53.1334 60.4105 53.0576C60.4957 52.9819 60.6094 52.9251 60.7419 52.8777C60.8745 52.8304 61.0354 52.8115 61.2153 52.8115C61.6603 52.8115 61.9822 52.9535 62.1715 53.2091C62.3514 53.4647 62.4461 53.7961 62.4461 54.2032V56.5133H62.0011V54.3074C62.0011 53.9665 61.9348 53.692 61.8118 53.4837C61.6697 53.2848 61.452 53.1902 61.1396 53.1902C60.7419 53.1996 60.4673 53.3417 60.3064 53.6162C60.2212 53.7488 60.1644 53.8813 60.1265 54.0328C60.0886 54.1937 60.0697 54.3452 60.0697 54.5062V56.5133H59.6247V53.7582H59.6153Z" fill="white"/>
<path d="M64.4249 53.2942H63.6959V52.906H64.4249V52.6409C64.4249 52.4421 64.4344 52.2622 64.4533 52.0729C64.4628 51.893 64.5007 51.732 64.5575 51.59C64.6143 51.448 64.7184 51.3249 64.851 51.2397C64.974 51.1545 65.1539 51.1166 65.3811 51.1166C65.4569 51.1166 65.5326 51.1166 65.6178 51.1261C65.6936 51.145 65.7599 51.164 65.8072 51.1924L65.7788 51.5806C65.6841 51.5332 65.561 51.5048 65.419 51.5048C65.277 51.5048 65.1634 51.5427 65.0876 51.5995C65.0119 51.6752 64.9551 51.7699 64.9267 51.8741C64.8983 51.9877 64.8888 52.1013 64.8888 52.2244C64.8888 52.3474 64.8794 52.48 64.8794 52.5936V52.906H65.6936V53.2942H64.8794V56.5322H64.4344V53.2942H64.4249Z" fill="white"/>
<path d="M69.4713 56.4187C69.1304 56.5512 68.7801 56.6175 68.4204 56.6175C67.8334 56.608 67.4073 56.4281 67.1517 56.0684C66.8961 55.718 66.773 55.2731 66.773 54.7145C66.773 54.1559 66.915 53.692 67.199 53.3417C67.4736 52.9913 67.8334 52.8209 68.2973 52.8115C68.8085 52.8209 69.1683 53.0008 69.405 53.3417C69.6322 53.6825 69.7364 54.1085 69.7364 54.6009V54.8281H67.2558C67.2558 55.2257 67.36 55.5476 67.5588 55.8033C67.7576 56.0778 68.0511 56.2104 68.4488 56.2198C68.6286 56.2198 68.8085 56.1914 68.9979 56.1252C69.1967 56.0778 69.3482 56.0115 69.4618 55.9453V56.4187H69.4713ZM69.2441 54.4588C69.2441 54.1275 69.1778 53.8434 69.0358 53.5878C68.8843 53.3417 68.6476 53.2091 68.3162 53.1996C67.9848 53.2091 67.7292 53.3417 67.5399 53.5973C67.341 53.8529 67.2464 54.1369 67.2464 54.4588H69.2441Z" fill="white"/>
<path d="M74.0157 56.5319H73.5707V55.9544H73.5518C73.3151 56.3994 72.9364 56.6171 72.4251 56.6171C71.9328 56.6077 71.5541 56.4278 71.308 56.068C71.0523 55.7082 70.9292 55.2632 70.9292 54.7141C70.9198 54.1555 71.0429 53.7011 71.2796 53.3508C71.5162 53.0005 71.895 52.8206 72.4251 52.8206C72.605 52.8206 72.7565 52.849 72.8985 52.8963C73.0406 52.9531 73.1542 53.0099 73.2394 53.0951C73.4287 53.2656 73.5329 53.3981 73.5613 53.5117H73.5802V51.2016H74.0252V56.5319H74.0157ZM71.4689 55.2348C71.5068 55.4147 71.5636 55.5851 71.6393 55.7366C71.7245 55.8786 71.8381 55.9923 71.9707 56.0869C72.1032 56.1816 72.2737 56.2384 72.4914 56.2384C72.6902 56.2384 72.8607 56.1911 73.0027 56.0869C73.1352 56.0017 73.2394 55.8786 73.3246 55.7272C73.4855 55.4053 73.5613 55.0739 73.5613 54.7236C73.5613 54.5532 73.5423 54.3827 73.5139 54.2029C73.4761 54.0324 73.4193 53.8715 73.3246 53.72C73.2394 53.5685 73.1258 53.4454 73.0027 53.3508C72.8607 53.2656 72.6902 53.2182 72.4914 53.2182C72.2737 53.2182 72.1032 53.2656 71.9707 53.3508C71.8287 53.436 71.7245 53.5591 71.6393 53.7105C71.5636 53.8526 71.5068 54.0135 71.4689 54.1934C71.431 54.3733 71.4216 54.5532 71.4216 54.7331C71.4216 54.8845 71.4405 55.0644 71.4689 55.2348Z" fill="white"/>
<path d="M78.0779 56.4187C77.737 56.5512 77.3867 56.6175 77.027 56.6175C76.44 56.608 76.0139 56.4281 75.7583 56.0684C75.5027 55.718 75.3796 55.2731 75.3796 54.7145C75.3796 54.1559 75.5216 53.692 75.8056 53.3417C76.0802 52.9913 76.44 52.8209 76.9039 52.8115C77.4151 52.8209 77.7749 53.0008 78.0116 53.3417C78.2388 53.6825 78.343 54.1085 78.343 54.6009V54.8281H75.8624C75.8624 55.2257 75.9666 55.5476 76.1654 55.8033C76.3642 56.0778 76.6577 56.2104 77.0554 56.2198C77.2353 56.2198 77.4151 56.1914 77.6045 56.1252C77.8033 56.0778 77.9548 56.0115 78.0684 55.9453V56.4187H78.0779ZM77.8506 54.4588C77.8506 54.1275 77.7844 53.8434 77.6424 53.5878C77.4909 53.3417 77.2542 53.2091 76.9228 53.1996C76.5914 53.2091 76.3358 53.3417 76.1465 53.5973C75.9476 53.8529 75.853 54.1369 75.853 54.4588H77.8506Z" fill="white"/>
<path d="M79.7531 53.7201C79.7531 53.3887 79.7437 53.1142 79.7247 52.9153H80.1697V53.616H80.1792C80.2644 53.3982 80.3875 53.2183 80.539 53.0668C80.6904 52.9153 80.8798 52.8396 81.107 52.8301C81.2206 52.8301 81.3248 52.8491 81.4195 52.868V53.3414C81.3248 53.313 81.2112 53.3035 81.0975 53.3035C80.9177 53.3035 80.7756 53.3509 80.662 53.4266C80.5484 53.5118 80.4537 53.6254 80.3875 53.7769C80.3212 53.9189 80.2739 54.0704 80.2455 54.2408C80.2076 54.4207 80.1981 54.5911 80.1981 54.7521V56.5415H79.7531V53.7201Z" fill="white"/>
<path d="M84.7522 55.9453H84.7332C84.6291 56.163 84.4682 56.324 84.2599 56.4376C84.0421 56.5512 83.8243 56.608 83.5877 56.6175C83.332 56.6175 83.1332 56.5702 82.9723 56.4944C82.8113 56.4281 82.6882 56.3335 82.603 56.2293C82.4515 55.9926 82.3853 55.7843 82.3853 55.595C82.3853 55.292 82.461 55.0553 82.603 54.8754C82.745 54.6956 82.9249 54.5725 83.1521 54.4967C83.3699 54.421 83.6161 54.3642 83.8812 54.3358C84.1368 54.3168 84.3829 54.3168 84.6196 54.3168H84.7048V54.137C84.7143 53.5121 84.4397 53.2091 83.8812 53.2091C83.5024 53.1997 83.1521 53.3038 82.8208 53.5026V53.0671C83.1521 52.9062 83.5119 52.8304 83.8812 52.8209C84.7332 52.8115 85.1593 53.2565 85.1498 54.1654V55.7654C85.1498 56.04 85.1593 56.2956 85.1877 56.5228H84.7522V55.9453ZM84.7048 54.705H84.5723C84.3735 54.705 84.1841 54.7145 83.9948 54.724C83.7865 54.7429 83.6066 54.7808 83.4456 54.847C83.2752 54.9038 83.1521 54.9891 83.048 55.1121C82.9344 55.2257 82.887 55.3867 82.887 55.5855C82.887 55.8222 82.9628 55.9832 83.1143 56.0778C83.2563 56.182 83.4267 56.2388 83.635 56.2388C83.8906 56.2388 84.0989 56.182 84.2504 56.0778C84.3924 55.9832 84.506 55.8601 84.5723 55.7181C84.648 55.5761 84.6859 55.4246 84.6954 55.2825C84.7048 55.1405 84.7143 55.0175 84.7143 54.9228V54.705H84.7048Z" fill="white"/>
<path d="M88.3308 53.2942H87.5071V55.6422C87.5071 55.8031 87.5449 55.9451 87.6207 56.0587C87.687 56.1723 87.8101 56.2386 87.9899 56.2386C88.1509 56.2386 88.2834 56.2102 88.4065 56.1534L88.4349 56.5227C88.3781 56.5416 88.3118 56.5605 88.2172 56.5889C88.113 56.6079 88.0089 56.6268 87.8858 56.6268C87.687 56.6268 87.5355 56.5984 87.4219 56.5321C87.3083 56.4658 87.2325 56.3806 87.1757 56.267C87.1284 56.1534 87.1 56.0303 87.081 55.8883C87.0716 55.7463 87.0621 55.5948 87.0621 55.4244V53.3131H86.352V52.9249H87.0621V52.0539L87.5071 51.8929V52.9249H88.3308V53.2942Z" fill="white"/>
<path d="M90.1395 51.9407H89.6945V51.3442H90.1395V51.9407ZM89.6945 52.9064H90.1395V56.5325H89.6945V52.9064Z" fill="white"/>
<path d="M91.9571 53.3983C92.2317 53.0196 92.6577 52.8303 93.2352 52.8208C93.8222 52.8303 94.2578 53.0196 94.5323 53.3983C94.7974 53.7676 94.93 54.2031 94.93 54.7238C94.93 55.2351 94.7974 55.6706 94.5323 56.0398C94.2578 56.4185 93.8222 56.6079 93.2352 56.6173C92.6577 56.6079 92.2317 56.4185 91.9571 56.0398C91.6825 55.6706 91.5405 55.2351 91.5405 54.7238C91.5405 54.2031 91.6825 53.7581 91.9571 53.3983ZM92.3453 55.7842C92.5441 56.0777 92.8376 56.2292 93.2352 56.2292C93.6329 56.2292 93.9264 56.0777 94.1347 55.7842C94.3335 55.5096 94.4282 55.1499 94.4282 54.7238C94.4282 54.2978 94.3335 53.938 94.1347 53.6445C93.9264 53.3605 93.6234 53.2184 93.2352 53.209C92.8376 53.209 92.5441 53.3605 92.3453 53.6445C92.137 53.938 92.0328 54.2978 92.0328 54.7238C92.0328 55.1499 92.137 55.5002 92.3453 55.7842Z" fill="white"/>
<path d="M96.3217 53.7582C96.3217 53.4837 96.3123 53.1902 96.2933 52.9061H96.7288V53.5499H96.7478C96.7857 53.4647 96.8425 53.3795 96.8993 53.2943C96.9561 53.2091 97.0318 53.1334 97.117 53.0576C97.2022 52.9819 97.3158 52.9251 97.4484 52.8777C97.5809 52.8304 97.7419 52.8115 97.9218 52.8115C98.3668 52.8115 98.6887 52.9535 98.878 53.2091C99.0579 53.4647 99.1526 53.7961 99.1526 54.2032V56.5133H98.7076V54.3074C98.7076 53.9665 98.6413 53.692 98.5182 53.4837C98.3762 53.2848 98.1585 53.1902 97.846 53.1902C97.4484 53.1996 97.1738 53.3417 97.0129 53.6162C96.9277 53.7488 96.8709 53.8813 96.833 54.0328C96.7951 54.1937 96.7762 54.3452 96.7762 54.5062V56.5133H96.3312V53.7582H96.3217Z" fill="white"/>
<path d="M10.0902 0C16.3767 0 20.1361 1.64746 20.1361 1.64746C20.1361 1.64746 20.4764 8.92768 19.0374 13.0557C16.5247 20.282 10.1105 22.3257 10.0814 22.335C10.0814 22.335 3.64274 20.2985 1.12433 13.0557C-0.305083 8.93712 0.035467 1.64746 0.035467 1.64746C0.035467 1.64746 3.79438 7.26233e-05 10.0902 0ZM8.07355 3.24805V7.9248H3.38703V11.9395H8.07355V16.626H12.0882V11.9395H16.765V7.9248H12.0882L12.0784 3.24805H8.07355Z" fill="white"/>
</svg>
